<svg width="85" height="43" viewBox="0 0 85 43" fill="none" xmlns="http://www.w3.org/2000/svg">
<path fill-rule="evenodd" clip-rule="evenodd" d="M61.3102 0.164923C60.4435 0.28353 59.6856 0.423122 59.6258 0.475431C59.566 0.527435 59.9328 0.656078 60.4408 0.761C61.3619 0.95138 61.3605 0.951988 59.9518 1.04566C59.1748 1.09736 58.0257 1.24729 57.3981 1.37867C56.6086 1.54411 57.0105 1.57422 58.7021 1.47629C62.5684 1.25276 66.5384 1.05509 67.0489 1.06026C67.3338 1.0633 67.4908 0.945906 67.45 0.761C67.4059 0.561192 68.3566 0.456879 70.221 0.456879C72.2358 0.456879 73.0381 0.552677 72.9863 0.787154C72.9404 0.995173 73.0084 1.09128 73.1701 1.04627C73.3113 1.00673 73.5001 1.05569 73.5898 1.15514C73.6794 1.25428 74.4863 1.48177 75.3828 1.66059C76.2793 1.83941 77.1963 2.10643 77.4203 2.25393C77.6445 2.40112 77.8279 2.40842 77.8279 2.27005C77.8279 1.92457 77.5401 1.72354 75.8718 0.90272C75.6626 0.799927 75.2714 0.57427 75.0025 0.401529C74.423 0.029285 63.6633 -0.156533 61.3102 0.164923ZM28.2205 0.485162C27.7098 0.654557 27.7244 0.668243 28.465 0.713253C29.245 0.760391 29.4807 0.631749 29.0084 0.416431C28.8738 0.354999 28.5194 0.386018 28.2205 0.485162ZM27.0252 0.634789C26.9056 0.686794 26.38 0.817262 25.857 0.924617C25.334 1.03197 24.9061 1.22053 24.9061 1.344C24.9061 1.46717 25.065 1.5137 25.2593 1.4471C25.5301 1.35434 25.5744 1.40087 25.4495 1.64721C25.3256 1.89111 25.4038 1.96076 25.7755 1.93673C26.2214 1.90814 26.2358 1.88503 25.9385 1.67336L25.6125 1.44132L26.0109 1.40513C26.23 1.38536 26.4256 1.49119 26.4456 1.64052C26.4662 1.79471 26.8801 1.81356 27.4055 1.68401C28.4018 1.43889 28.3845 1.3218 27.3512 1.31541C26.9926 1.31298 26.8214 1.24425 26.9708 1.16244C27.2275 1.02194 27.575 0.406395 27.3457 0.49824C27.289 0.521049 27.1447 0.582481 27.0252 0.634789ZM64.4933 0.681624C64.1222 0.740928 63.4865 0.741232 63.0806 0.682537C62.6746 0.624146 62.9783 0.575486 63.7552 0.575182C64.5322 0.574574 64.8643 0.622624 64.4933 0.681624ZM66.0101 0.658207C65.9355 0.742752 65.8132 0.742752 65.7384 0.658207C65.6638 0.573965 65.7249 0.50493 65.8743 0.50493C66.0237 0.50493 66.0849 0.573965 66.0101 0.658207ZM74.2689 0.962328C74.1943 1.04687 74.072 1.04687 73.9973 0.962328C73.9226 0.878086 73.9837 0.809051 74.1331 0.809051C74.2825 0.809051 74.3437 0.878086 74.2689 0.962328ZM75.0317 0.960503C74.9581 1.04383 74.8114 1.049 74.7057 0.971756C74.6 0.894509 74.6602 0.826386 74.8395 0.820304C75.0188 0.814221 75.1053 0.877174 75.0317 0.960503ZM28.5194 1.27466C28.6239 1.3513 28.7952 1.3513 28.8997 1.27466C29.0042 1.19833 28.9187 1.13568 28.7095 1.13568C28.5003 1.13568 28.4148 1.19833 28.5194 1.27466ZM29.5517 1.26645C29.6265 1.35099 29.7487 1.35099 29.8234 1.26645C29.8981 1.18221 29.837 1.11317 29.6875 1.11317C29.5381 1.11317 29.4771 1.18221 29.5517 1.26645ZM8.7477 1.76886C8.7164 1.91058 8.146 1.99847 7.48008 1.9641C6.27179 1.90237 4.15546 2.35003 3.79924 2.74296C3.68003 2.87434 3.6195 3.23077 3.63385 3.71645C3.6583 4.54305 3.67514 4.57255 4.28619 4.8566C4.78628 5.08925 4.8266 5.58132 4.34052 5.51958C4.01691 5.47853 3.98996 5.54482 4.01865 6.31121C4.04603 7.04353 4.01223 7.14815 3.74697 7.1521C3.36696 7.15819 3.23308 7.42855 3.20309 8.25089C3.18364 8.78584 3.25416 8.93121 3.6106 9.09057C4.18752 9.34877 4.15633 9.76937 3.54594 9.96188C3.06377 10.1139 2.46425 11.2094 2.579 11.7288C2.60747 11.8581 2.48402 12.0542 2.30461 12.1646C2.02262 12.338 1.99936 12.4237 2.13291 12.7975C2.21789 13.0353 2.3521 13.2321 2.4311 13.2345C2.53934 13.2382 2.53553 13.3084 2.41567 13.5207C2.30429 13.7178 2.43132 13.83 2.84046 13.896C3.41716 13.989 3.42423 14.0018 3.43401 14.9787C3.43955 15.5224 3.40728 15.9671 3.3625 15.9671C3.31773 15.9671 3.281 16.2408 3.281 16.5753C3.281 17.026 3.20363 17.1942 2.98216 17.2249C2.72168 17.2611 2.71505 17.2833 2.93065 17.3992C3.24568 17.5682 3.8187 18.3958 3.62255 18.3982C3.53963 18.3991 3.50117 18.5898 3.53464 18.834C3.62309 19.479 3.40793 19.827 2.69278 20.1956C2.05294 20.5252 1.77724 20.833 2.12183 20.833C2.22148 20.833 2.30298 21.0383 2.30298 21.2892C2.30298 21.6441 2.15813 21.7454 1.65097 21.7454C0.947881 21.7454 0.729239 22.3262 1.40646 22.395C1.65868 22.4205 1.72084 22.4865 1.56947 22.5683C1.43494 22.6407 1.32496 22.818 1.32496 22.9624C1.32496 23.1069 1.2264 23.3125 1.10599 23.4195C0.985589 23.5263 0.914085 23.7358 0.946903 23.8845C0.979829 24.0336 0.846058 24.2851 0.649693 24.4435C0.341182 24.6926 0.40345 24.7367 1.10762 24.7683C1.94448 24.806 1.97556 25.1263 1.18119 25.5259C0.828998 25.7029 0.786073 25.8038 0.899849 26.1873C1.00787 26.5517 1.05231 26.5629 1.12729 26.2454C1.19967 25.9386 1.25672 25.9842 1.38364 26.4501C1.53328 26.999 1.52622 27.0742 1.30008 27.3479C1.08882 27.6033 1.13946 27.6702 1.65097 27.8132C2.18736 27.9628 2.22496 28.0178 2.01773 28.3503C1.8908 28.554 1.57294 28.8119 1.31138 28.9232C0.498427 29.2693 0.45159 29.6318 1.21629 29.6595L1.92264 29.6847L0.998956 30.657L0.07527 31.6293L0.618614 31.7813L1.16196 31.9334L0.521682 32.3449C0.0742921 32.6326 -0.0729542 32.8373 0.0326719 33.0246C0.115912 33.1721 0.281741 33.3044 0.401277 33.3187C0.617093 33.3445 0.617094 33.3463 0.403233 33.5802C0.246967 33.7508 0.381282 33.8877 0.892243 34.0784C1.53046 34.3162 1.55577 34.3512 1.16196 34.45C0.922887 34.5099 0.680882 34.6869 0.624048 34.8429C0.560042 35.0187 1.01428 35.1358 1.81941 35.1507C2.82231 35.1693 3.04997 35.2444 2.81916 35.4801C2.64594 35.6574 2.52032 36.0132 2.52032 36.327C2.52032 36.7662 2.33037 36.9766 1.51655 37.4389C0.964508 37.7525 0.604922 38.0587 0.717394 38.1192C0.881049 38.2074 0.891591 38.2831 0.770208 38.4982C0.658714 38.6958 0.690445 38.7691 0.890287 38.7761C1.03971 38.7813 1.2339 38.913 1.32192 39.0687C1.4997 39.3832 1.45352 39.4601 0.875073 39.8126C0.717286 39.9087 0.561672 40.1812 0.52918 40.4184C0.479627 40.7791 0.667407 40.8265 1.68542 40.7091C2.58357 40.6057 2.85817 40.6562 2.73766 40.9025C2.60019 41.1839 2.60878 41.2286 2.79199 41.1878C3.15516 41.1063 3.23471 41.2036 3.06366 41.5199C2.95282 41.7249 3.1092 41.7516 3.55267 41.6038C4.36443 41.3329 4.32292 41.3298 6.16073 41.7994C7.28697 42.0871 8.93798 42.1339 12.5179 41.9803C15.4894 41.8526 18.2752 41.8964 19.7443 42.0935C24.5861 42.744 25.0677 42.7896 24.9985 42.5895C24.9597 42.4773 24.4218 42.3112 23.8031 42.2206C23.1846 42.1303 22.6319 41.9338 22.5752 41.7848C22.4337 41.4129 31.7909 41.4417 35.0911 41.8234C36.9841 42.0424 51.2827 42.4709 56.2571 42.4578C57.3669 42.4548 62.2074 42.0704 62.4295 41.9676C62.6128 41.8824 62.7075 41.9454 62.6676 42.126C62.6312 42.2909 62.6503 42.4256 62.7101 42.4256C62.7698 42.4256 62.8489 42.2887 62.8859 42.1215C62.9739 41.7228 63.3749 41.7273 63.3749 42.1269C63.3749 42.4709 65.942 42.4913 67.8166 42.1625C68.675 42.012 68.9566 42.0561 68.9964 42.3471C69.0254 42.5576 69.1199 42.7297 69.2067 42.7297C69.2935 42.7297 69.3343 42.5928 69.2973 42.4256C69.2604 42.2583 69.3186 42.098 69.4268 42.0695C69.5349 42.0409 69.6967 41.987 69.7864 41.9496C69.876 41.9125 70.2183 41.8654 70.547 41.845C70.9112 41.8225 71.0891 41.7091 71.0021 41.5552C70.8612 41.3049 71.632 41.0719 73.8071 40.7082C74.9006 40.5254 75.3954 40.0261 74.5624 39.9464C74.2964 39.9208 74.0299 39.8682 73.9701 39.8293C73.9103 39.7904 73.3969 39.7241 72.8291 39.6821L71.7967 39.6052L72.5031 39.3686C72.8916 39.2384 73.6902 39.0891 74.2778 39.0371C74.8653 38.9848 75.3694 38.8363 75.398 38.7071C75.4266 38.5778 75.5478 38.472 75.6673 38.472C75.7868 38.472 75.8583 38.3531 75.8263 38.2074C75.7938 38.0605 75.5615 38.0548 75.3037 38.1943C74.7834 38.476 74.2875 38.5468 74.3656 38.3285C74.4702 38.0353 76.7216 36.9496 76.8774 37.1168C76.9685 37.2145 77.0675 37.0834 77.1041 36.8167C77.1502 36.4806 77.3355 36.3289 77.743 36.2936L78.3169 36.244L77.7192 36.0646C77.249 35.9232 77.1839 35.8462 77.414 35.7036C77.575 35.6035 77.9417 35.6236 78.2291 35.7477C78.5164 35.8718 78.7626 35.9457 78.7762 35.9119C78.7898 35.8779 78.723 35.5391 78.6278 35.1586C78.5131 34.7006 78.4183 34.5692 78.3468 34.7693C78.2751 34.9697 78.1235 34.9646 77.8974 34.7535C77.2903 34.1875 77.3861 34.0601 78.3359 34.1711C78.9984 34.2484 79.2463 34.1824 79.1935 33.943C79.1476 33.7356 79.2157 33.5954 79.37 33.5787C79.5934 33.5544 78.5255 32.947 77.6649 32.6089C77.4855 32.5383 77.7056 32.458 78.1539 32.4306C78.6021 32.403 79.0422 32.2476 79.1319 32.0855C79.2671 31.841 79.2578 31.7889 79.0775 31.7813C78.958 31.7762 78.7869 31.6275 78.6972 31.4508C78.578 31.216 78.6729 31.1813 79.0501 31.3221C79.7245 31.5733 79.867 31.3078 79.5558 30.3809C79.4181 29.9703 79.3699 29.6525 79.4454 29.6525C79.5191 29.6525 79.5492 29.5156 79.5122 29.3484C79.4753 29.1811 79.2401 29.0421 78.9896 29.0397C78.7392 29.037 78.4609 28.8922 78.3712 28.7176C78.2539 28.4895 78.3682 28.4561 78.7787 28.599C79.3592 28.8007 79.5788 28.3956 79.1047 27.9975C78.8663 27.7974 78.8655 27.7852 79.0775 27.5002C79.2498 27.2691 79.2153 27.2347 78.9117 27.3357C78.4742 27.4814 78.0148 26.8257 78.3225 26.4951C78.4189 26.3917 78.5855 26.3072 78.6927 26.3072C78.8001 26.3072 78.9488 26.1019 79.0232 25.851C79.1295 25.4927 79.1298 25.3948 79.0248 25.3948C78.9507 25.3948 78.9191 25.1917 78.9539 24.9386C78.994 24.6454 78.9496 24.4748 78.8297 24.4611C78.6747 24.4432 78.6799 24.3973 78.8602 24.1905C79.0621 23.9587 79.0559 23.9174 78.7716 23.6035C78.6034 23.418 78.3955 23.266 78.3098 23.266C78.2241 23.266 78.1539 23.1291 78.1539 22.9618C78.1539 22.7946 78.435 22.6443 78.7787 22.6282L79.4036 22.5987L78.996 22.1307C78.5542 21.6234 78.4741 21.0258 78.7854 20.5596C78.8937 20.3975 79.5294 20.1679 80.1981 20.0493C80.8668 19.931 81.4139 19.7281 81.4139 19.5986C81.4139 19.469 81.2794 19.2257 81.1151 19.0575C80.8649 18.8021 80.9447 18.7482 81.6041 18.7282C82.0512 18.7145 82.3919 18.5725 82.3919 18.4C82.3919 18.2328 82.2912 18.0959 82.1682 18.0959C82.0452 18.0959 81.9734 17.9651 82.0087 17.8052C82.044 17.6452 82.1447 17.5914 82.2324 17.6856C82.3201 17.7796 82.3919 17.7282 82.3919 17.5713C82.3919 17.4141 82.1596 17.1331 81.8758 16.9466C81.4376 16.6589 81.6058 16.6224 82.9896 16.7045L84.6197 16.8016L83.207 16.2456C80.735 15.2727 80.7792 15.298 81.0879 15.0392C81.3393 14.8284 81.3418 14.809 81.1215 14.781C80.7902 14.7387 80.7061 14.2141 81.0048 14.0535C81.1417 13.9796 81.0501 13.9027 80.7981 13.8796C80.5491 13.8568 80.3291 13.7032 80.3091 13.5383C80.2892 13.3735 79.7105 13.1266 79.0232 12.99C77.7992 12.7467 77.783 12.7339 78.2321 12.3681C78.5247 12.13 79.2871 12.0193 80.3375 12.0621C81.8576 12.1245 81.9961 12.084 82.1382 11.5394C82.2736 11.0202 82.4556 10.9369 83.6461 10.8481C84.7256 10.7678 85 10.6598 85 10.3159C85 10.0787 84.9575 9.88463 84.9056 9.88463C84.7528 9.88463 82.8983 8.96831 82.6908 8.7904C82.2982 8.45344 82.5225 8.05869 83.1255 8.02493C83.7437 7.99026 83.7456 7.98722 83.3156 7.73845C83.0766 7.60007 82.4898 7.46869 82.0116 7.4468C81.1601 7.40726 80.0053 6.99396 80.3272 6.84342C80.6339 6.70018 79.5132 6.28019 78.764 6.25768C78.111 6.23791 77.9837 6.13847 77.764 5.47488L77.5122 4.71457L77.9689 4.6872L78.4255 4.65983L78.054 4.36088C77.8496 4.19665 77.5929 4.12792 77.4835 4.20791C77.3741 4.28789 77.2845 4.23954 77.2845 4.10025C77.2845 3.96096 77.1989 3.78427 77.0943 3.70763C76.9898 3.63129 77.1242 3.5355 77.3932 3.49535L77.8822 3.42206L77.3932 3.19154C75.7949 2.43853 64.4284 2.0228 60.7668 2.5836C59.7209 2.74387 58.368 2.87829 57.7603 2.88224C56.9805 2.88772 56.6393 3.00176 56.6004 3.27C56.5589 3.55618 56.5229 3.56256 56.4546 3.29494C56.378 2.99507 54.1214 2.6499 53.9207 2.90718C53.7246 3.15869 25.0986 3.12554 23.1674 2.8716C21.8824 2.70251 20.4154 2.51091 19.9073 2.44583C19.3993 2.38075 17.8872 2.25606 16.5472 2.16938C15.2071 2.08241 13.6178 1.92548 13.0155 1.82086C11.2737 1.51796 8.80975 1.48785 8.7477 1.76886ZM63.8979 1.57696C63.9763 1.66485 64.07 1.6539 64.1061 1.55293C64.1422 1.45196 64.0781 1.38019 63.9636 1.39327C63.837 1.40786 63.8112 1.47994 63.8979 1.57696ZM60.9639 1.88108C61.0422 1.96897 61.136 1.95802 61.1721 1.85705C61.2081 1.75608 61.144 1.68431 61.0295 1.69739C60.9029 1.71199 60.8771 1.78406 60.9639 1.88108ZM61.8332 1.88108C61.9116 1.96897 62.0053 1.95802 62.0414 1.85705C62.0775 1.75608 62.0134 1.68431 61.8988 1.69739C61.7722 1.71199 61.7465 1.78406 61.8332 1.88108ZM26.9437 2.49631C27.0782 2.5687 27.2981 2.5687 27.4327 2.49631C27.5672 2.42363 27.4571 2.36433 27.1882 2.36433C26.9192 2.36433 26.8091 2.42363 26.9437 2.49631ZM48.9512 3.69759C48.8776 3.78092 48.7309 3.78609 48.6252 3.70885C48.5194 3.6316 48.5796 3.56348 48.7589 3.55739C48.9382 3.55131 49.0247 3.61426 48.9512 3.69759ZM76.8204 3.68178C76.7843 3.78275 76.6905 3.79369 76.6122 3.7058C76.5255 3.60879 76.5512 3.53671 76.6778 3.52211C76.7923 3.50904 76.8565 3.58081 76.8204 3.68178ZM60.627 4.2219C60.664 4.3256 60.3073 4.42596 59.8341 4.44512C59.3609 4.46398 57.7268 4.54913 56.2027 4.63398C54.6787 4.71914 49.2839 4.894 44.2145 5.02326C39.145 5.15251 34.7306 5.3511 34.4047 5.46514C33.806 5.67438 33.0893 5.43291 33.2207 5.06583C33.2963 4.85447 34.325 4.7979 40.0926 4.68933C42.2939 4.64767 43.7058 4.50777 43.7058 4.33108C43.7058 4.17172 43.7746 4.11515 43.8587 4.20547C44.0911 4.45485 47.71 4.41258 50.3346 4.12975C52.9007 3.853 60.5196 3.92142 60.627 4.2219ZM63.4654 3.95457C63.3873 4.17324 61.5246 4.1997 61.4473 3.98316C61.4117 3.88372 61.8635 3.80221 62.4512 3.80221C63.0389 3.80221 63.4953 3.87064 63.4654 3.95457ZM63.8888 3.9859C63.8527 4.08687 63.7589 4.09782 63.6806 4.00992C63.5939 3.91291 63.6196 3.84083 63.7462 3.82624C63.8608 3.81316 63.9249 3.88493 63.8888 3.9859ZM55.6335 4.32135C55.7687 4.39403 55.9643 4.39129 56.0682 4.31526C56.1721 4.23923 56.0615 4.17962 55.8224 4.18297C55.5833 4.18631 55.4984 4.24866 55.6335 4.32135ZM70.4758 4.33442C70.5034 4.45972 69.8501 4.56251 69.0243 4.56251C68.1984 4.56251 67.4859 4.45972 67.4411 4.33442C67.3962 4.20912 68.0493 4.10633 68.8924 4.10633C69.7357 4.10633 70.4482 4.20912 70.4758 4.33442ZM71.036 4.41045C70.7393 4.76749 70.6557 4.76749 70.6557 4.41045C70.6557 4.24319 70.7901 4.11606 70.9545 4.12762C71.2194 4.14678 71.2286 4.17871 71.036 4.41045ZM51.1837 4.61817C51.262 4.70606 51.3558 4.69511 51.3919 4.59414C51.4279 4.49317 51.3638 4.4214 51.2493 4.43448C51.1227 4.44908 51.0969 4.52115 51.1837 4.61817ZM51.8308 4.63094C52.0261 4.69845 52.3195 4.69724 52.4828 4.6279C52.6461 4.55825 52.4863 4.5029 52.1277 4.50473C51.7691 4.50625 51.6355 4.56312 51.8308 4.63094ZM29.8946 5.34076C29.8163 5.47609 29.708 5.51015 29.654 5.41679C29.6 5.32342 29.6197 5.13609 29.6979 5.00075C29.7761 4.86542 29.8844 4.83136 29.9385 4.92472C29.9925 5.01809 29.9727 5.20542 29.8946 5.34076ZM31.8609 5.08469C31.8609 5.21577 31.5064 5.3067 31.0731 5.28693C30.4883 5.26017 30.3692 5.19235 30.6112 5.02386C31.0284 4.73312 31.8609 4.77388 31.8609 5.08469ZM32.9476 4.87424C32.9476 5.19904 32.3609 5.64458 32.1954 5.44538C32.06 5.28237 32.081 5.19022 32.2956 5.00714C32.6275 4.7237 32.9476 4.65862 32.9476 4.87424ZM29.4121 5.34015C29.3772 5.49768 28.9726 5.62481 28.5129 5.62237C28.0533 5.61964 27.7343 5.51715 27.8042 5.39428C27.9976 5.05397 29.4863 5.00379 29.4121 5.34015ZM64.1648 5.2182C64.0912 5.30153 63.9445 5.3067 63.8388 5.22945C63.7331 5.1522 63.7933 5.08408 63.9726 5.078C64.1519 5.07192 64.2384 5.13487 64.1648 5.2182ZM71.7696 5.53752C71.6351 5.60991 71.415 5.60991 71.2806 5.53752C71.1461 5.46484 71.2561 5.40554 71.5251 5.40554C71.794 5.40554 71.904 5.46484 71.7696 5.53752ZM4.36769 9.58051C4.36769 9.74778 4.34618 9.88463 4.31977 9.88463C4.29336 9.88463 4.24163 9.74778 4.20469 9.58051C4.16774 9.41324 4.18936 9.27639 4.25261 9.27639C4.31586 9.27639 4.36769 9.41324 4.36769 9.58051ZM1.41331 20.7366C1.49166 20.8245 1.58544 20.8135 1.62152 20.7126C1.6576 20.6116 1.59348 20.5398 1.47895 20.5529C1.35235 20.5675 1.32659 20.6396 1.41331 20.7366ZM78.6678 25.8826C78.6317 25.9836 78.5379 25.9945 78.4595 25.9066C78.3728 25.8096 78.3986 25.7375 78.5252 25.7229C78.6397 25.7099 78.7038 25.7816 78.6678 25.8826ZM2.30298 26.6113C2.30298 26.7786 2.25115 26.9154 2.1879 26.9154C2.12466 26.9154 2.10303 26.7786 2.13998 26.6113C2.17693 26.444 2.22865 26.3072 2.25506 26.3072C2.28147 26.3072 2.30298 26.444 2.30298 26.6113ZM34.6364 31.1935C34.7534 31.723 34.6202 31.8352 34.4711 31.3325C34.3854 31.0435 34.3771 30.869 34.4493 30.869C34.5128 30.869 34.5971 31.015 34.6364 31.1935ZM41.5273 31.9422C41.5919 31.8306 41.6166 31.6119 41.5821 31.4562C41.5462 31.2935 41.7959 31.1731 42.169 31.1731C42.544 31.1731 42.8352 31.3142 42.8581 31.507C42.8801 31.6907 43.1276 31.9136 43.4084 32.0021C44.1078 32.2229 43.9484 32.6913 43.2131 32.5754C42.7708 32.5058 42.6191 32.5867 42.6191 32.892C42.6191 33.4084 42.2215 33.4336 42.1477 32.9218C42.116 32.7013 42.0894 32.7728 42.0844 33.0918C42.0797 33.3944 42.0356 33.5726 41.9865 33.4875C41.9373 33.4026 41.8156 33.5997 41.7159 33.9257C41.5031 34.6215 40.9891 34.7313 40.9891 34.0814C40.9891 33.7487 40.8948 33.6873 40.5942 33.8235C40.2843 33.9643 40.2107 33.9111 40.2527 33.5766C40.2821 33.3418 40.3756 33.1639 40.4603 33.1809C40.5452 33.1979 40.6814 33.0115 40.7631 32.767C40.8921 32.3805 40.8633 32.3494 40.5428 32.5307C40.34 32.6454 40.0926 32.8029 39.993 32.8807C39.8935 32.9589 39.7834 32.8929 39.7484 32.7348C39.7134 32.5763 39.9321 32.3516 40.2343 32.2354C40.5365 32.1189 40.8422 31.8452 40.9136 31.6269C41.0201 31.3014 41.0765 31.3124 41.2268 31.6874C41.3276 31.9392 41.4629 32.0538 41.5273 31.9422ZM56.8548 31.5949C56.8548 31.8446 56.1901 31.9702 56.1372 31.7306C56.1065 31.5913 56.2553 31.4772 56.468 31.4772C56.6807 31.4772 56.8548 31.5301 56.8548 31.5949ZM37.0115 33.426C36.9182 34.107 36.7813 33.7666 36.8142 32.9346C36.8549 31.9 36.8575 31.8914 36.9718 32.4395C37.0299 32.7177 37.0477 33.1618 37.0115 33.426ZM44.7131 32.285C44.6395 32.3683 44.4928 32.3735 44.3871 32.2962C44.2813 32.219 44.3415 32.1509 44.5208 32.1448C44.7001 32.1387 44.7866 32.2016 44.7131 32.285ZM48.3786 32.4051C47.6817 32.7521 45.204 32.7408 45.0099 32.3896C44.9017 32.194 45.5239 32.1061 46.8572 32.128C48.2322 32.1512 48.7131 32.2384 48.3786 32.4051ZM50.6335 32.3032C50.4691 32.3729 50.2002 32.3729 50.0358 32.3032C49.8714 32.2336 50.0059 32.1767 50.3346 32.1767C50.6634 32.1767 50.7979 32.2336 50.6335 32.3032ZM51.6658 32.2868C51.5912 32.3713 51.4689 32.3713 51.3942 32.2868C51.3195 32.2026 51.3806 32.1335 51.53 32.1335C51.6794 32.1335 51.7406 32.2026 51.6658 32.2868ZM52.7525 32.2868C52.6779 32.3713 52.5556 32.3713 52.4808 32.2868C52.4062 32.2026 52.4673 32.1335 52.6167 32.1335C52.7661 32.1335 52.8273 32.2026 52.7525 32.2868ZM34.2516 32.5383C34.2516 32.9811 33.8465 33.9087 33.657 33.9002C33.4451 33.8904 33.4462 33.8676 33.6853 33.3099L33.9338 32.7299L33.4679 32.6128C33.0588 32.51 33.0781 32.4893 33.6268 32.4428C33.9705 32.4136 34.2516 32.4565 34.2516 32.5383ZM34.7655 32.5733C34.7295 32.6742 34.6357 32.6852 34.5573 32.5973C34.4706 32.5003 34.4964 32.4282 34.623 32.4136C34.7375 32.4005 34.8016 32.4723 34.7655 32.5733ZM41.4238 32.6937C41.4238 32.861 41.4756 32.9978 41.5389 32.9978C41.6021 32.9978 41.6237 32.861 41.5868 32.6937C41.5498 32.5264 41.4981 32.3896 41.4717 32.3896C41.4453 32.3896 41.4238 32.5264 41.4238 32.6937ZM75.4077 32.5733C75.3716 32.6742 75.2778 32.6852 75.1995 32.5973C75.1128 32.5003 75.1385 32.4282 75.2651 32.4136C75.3797 32.4005 75.4438 32.4723 75.4077 32.5733ZM76.225 32.5909C76.1503 32.6755 76.0281 32.6755 75.9533 32.5909C75.8787 32.5067 75.9397 32.4376 76.0892 32.4376C76.2386 32.4376 76.2998 32.5067 76.225 32.5909ZM29.5494 32.8774C29.5133 32.9784 29.4196 32.9893 29.3412 32.9014C29.2545 32.8044 29.2802 32.7323 29.4068 32.7177C29.5214 32.7047 29.5855 32.7764 29.5494 32.8774ZM32.5967 33.055C32.573 33.2536 32.4888 33.4765 32.4095 33.5504C32.3284 33.6261 32.2965 33.5443 32.3365 33.3631C32.3763 33.1824 32.2996 32.9832 32.1614 32.909C31.9861 32.8147 32.0196 32.7646 32.2774 32.7351C32.5138 32.708 32.6248 32.8193 32.5967 33.055ZM36.0447 33.3019C36.0051 33.6508 36.0251 33.9102 36.0917 33.9102C36.1555 33.9102 36.2077 34.0242 36.2077 34.1635C36.2077 34.5586 35.7658 34.3697 35.6694 33.9333C35.6027 33.6313 35.5307 33.6222 35.35 33.8929C35.2215 34.0851 35.0636 34.1511 34.999 34.0391C34.8685 33.8135 35.602 32.7576 35.9161 32.7183C36.0655 32.6998 36.0968 32.8418 36.0447 33.3019ZM56.5831 32.9978C56.62 33.1651 56.5984 33.3019 56.5352 33.3019C56.4719 33.3019 56.4201 33.1651 56.4201 32.9978C56.4201 32.8306 56.4416 32.6937 56.468 32.6937C56.4944 32.6937 56.5461 32.8306 56.5831 32.9978ZM57.6154 32.8278C57.6154 32.9017 57.5665 33.0465 57.5068 33.1499C57.447 33.2533 57.3981 33.1928 57.3981 33.0158C57.3981 32.8388 57.447 32.6937 57.5068 32.6937C57.5665 32.6937 57.6154 32.7539 57.6154 32.8278ZM73.5103 32.8932C73.4368 32.9765 73.2901 32.9817 73.1843 32.9045C73.0786 32.8272 73.1388 32.7591 73.3181 32.753C73.4974 32.7469 73.5839 32.8099 73.5103 32.8932ZM74.1037 32.8774C74.0676 32.9784 73.9738 32.9893 73.8955 32.9014C73.8087 32.8044 73.8345 32.7323 73.9611 32.7177C74.0756 32.7047 74.1397 32.7764 74.1037 32.8774ZM31.1546 33.3019C31.1915 33.4692 31.1699 33.6061 31.1066 33.6061C31.0434 33.6061 30.9916 33.4692 30.9916 33.3019C30.9916 33.1347 31.0131 32.9978 31.0395 32.9978C31.0659 32.9978 31.1176 33.1347 31.1546 33.3019ZM44.0024 33.1815C43.9663 33.2825 43.8725 33.2934 43.7942 33.2055C43.7075 33.1085 43.7332 33.0365 43.8598 33.0219C43.9743 33.0088 44.0385 33.0806 44.0024 33.1815ZM44.5457 33.1815C44.5097 33.2825 44.4159 33.2934 44.3375 33.2055C44.2508 33.1085 44.2766 33.0365 44.4032 33.0219C44.5177 33.0088 44.5818 33.0806 44.5457 33.1815ZM45.5532 33.454C45.5532 33.7049 45.6021 33.9102 45.6619 33.9102C45.7216 33.9102 45.7704 33.7393 45.7703 33.53C45.7701 33.2478 46.0087 33.1754 46.6954 33.2484C47.2551 33.308 47.5952 33.4631 47.5559 33.641C47.5202 33.8025 47.4047 33.8582 47.2992 33.7645C47.1938 33.6708 46.9656 33.8016 46.7922 34.0547C46.5131 34.4622 46.4729 34.4628 46.4418 34.0604C46.4024 33.5525 45.9293 33.4373 45.8249 33.9102C45.7521 34.2402 45.3039 34.3277 45.1985 34.0324C45.0927 33.7365 45.238 32.9978 45.4018 32.9978C45.4851 32.9978 45.5532 33.2031 45.5532 33.454ZM55.5507 33.454C55.4362 33.8402 55.4601 33.9102 55.7069 33.9102C55.8735 33.9102 55.9694 34.0404 55.9311 34.2143C55.8941 34.3816 55.7609 34.5184 55.6348 34.5184C55.5089 34.5184 55.4408 34.6164 55.4835 34.7359C55.5263 34.8554 55.957 34.9111 56.4407 34.86C57.2265 34.7766 57.3129 34.821 57.2505 35.2763C57.2046 35.6114 57.2272 35.738 57.3165 35.6464C57.3913 35.5695 57.4403 35.3529 57.4253 35.1647C57.4103 34.9764 57.5233 34.8226 57.6762 34.8226C57.8339 34.8226 57.9253 34.9542 57.8871 35.1267C57.8502 35.2939 57.8718 35.4308 57.935 35.4308C57.9983 35.4308 58.0501 35.2939 58.0501 35.1267C58.0501 34.6206 58.4565 34.7861 58.5301 35.3222C58.5677 35.5972 58.5823 35.8678 58.5623 35.9238C58.5423 35.9794 58.044 36.0625 57.455 36.1081C56.6732 36.1686 56.3718 36.0886 56.3387 35.8109C56.3137 35.602 56.1967 35.4308 56.0786 35.4308C55.9605 35.4308 55.8941 35.5677 55.9311 35.7349C55.9703 35.9122 55.8598 36.039 55.6658 36.039C55.483 36.039 55.3334 35.9022 55.3334 35.7349C55.3334 35.5677 55.1525 35.4308 54.9313 35.4308C54.4918 35.4308 54.5479 34.9445 55.0074 34.7724C55.2117 34.6957 55.2875 34.4631 55.3134 33.8342C55.3345 33.3214 55.4133 32.9978 55.5169 32.9978C55.655 32.9978 55.6611 33.0818 55.5507 33.454ZM66.3633 33.6991C66.4828 33.7864 66.3483 33.8439 66.0644 33.8272C65.7806 33.8104 65.5483 33.676 65.5483 33.5288C65.5483 33.3813 65.6522 33.3533 65.7792 33.4662C65.9558 33.6228 65.9892 33.5741 65.9213 33.2585C65.8516 32.934 65.866 32.92 65.9892 33.1931C66.0754 33.3844 66.2438 33.6118 66.3633 33.6991ZM52.7797 33.6061C52.7427 33.7733 52.6666 33.9102 52.6103 33.9102C52.554 33.9102 52.508 33.7733 52.508 33.6061C52.508 33.4388 52.5843 33.3019 52.6774 33.3019C52.7706 33.3019 52.8166 33.4388 52.7797 33.6061ZM41.2064 33.9102C41.4172 34.2913 41.5325 34.2913 41.5325 33.9102C41.5325 33.7429 41.4224 33.6082 41.2879 33.6106C41.0903 33.6146 41.0746 33.6718 41.2064 33.9102ZM51.4213 34.0422C51.4213 34.2891 51.5509 34.5245 51.7202 34.585C51.9599 34.6708 51.9303 34.7207 51.5707 34.8378C51.1621 34.9707 51.1225 34.9226 51.1225 34.2949C51.1225 33.9132 51.1891 33.6061 51.2719 33.6061C51.3541 33.6061 51.4213 33.8022 51.4213 34.0422ZM54.7901 33.8649C54.7901 34.0175 54.5935 34.1501 54.3532 34.1596C54.1128 34.1687 53.9383 34.0765 53.9651 33.9549C54.0382 33.6246 54.7901 33.5425 54.7901 33.8649ZM20.9397 34.2143C20.9766 34.3816 20.9306 34.5184 20.8374 34.5184C20.7443 34.5184 20.668 34.3816 20.668 34.2143C20.668 34.047 20.714 33.9102 20.7703 33.9102C20.8266 33.9102 20.9027 34.047 20.9397 34.2143ZM42.5105 34.2323C42.5105 34.4093 42.4561 34.4603 42.3896 34.3454C42.3232 34.2304 42.2262 34.325 42.174 34.5555C42.0989 34.887 42.0787 34.8633 42.0774 34.4424C42.0764 34.1115 42.1579 33.9102 42.2931 33.9102C42.4127 33.9102 42.5105 34.0553 42.5105 34.2323ZM44.0318 34.1383C44.0318 34.2636 43.9143 34.3664 43.7705 34.3664C43.6268 34.3664 43.532 34.2636 43.5597 34.1383C43.5873 34.013 43.7049 33.9102 43.8209 33.9102C43.937 33.9102 44.0318 34.013 44.0318 34.1383ZM64.7333 34.2143C64.6963 34.3816 64.5589 34.5087 64.428 34.4971C64.1985 34.4765 64.1977 34.4664 64.4072 34.2143C64.7063 33.8545 64.8127 33.8545 64.7333 34.2143ZM72.7204 34.2143C72.7204 34.3816 72.8305 34.5206 72.9649 34.523C73.0993 34.5257 73.2828 34.6605 73.3724 34.8226C73.4926 35.04 73.4071 35.1343 73.0464 35.1814C72.7775 35.2167 72.3863 35.2997 72.1771 35.3657C71.9679 35.432 70.1096 35.5263 68.0477 35.5753C65.9857 35.6242 64.592 35.5622 64.9506 35.4372C65.3092 35.3125 65.8471 35.1252 66.1459 35.0211C67.2941 34.6218 68.6867 34.5178 68.7548 34.8259C68.7925 34.9968 68.8735 35.0497 68.9348 34.9436C68.9962 34.8378 69.1606 34.922 69.3004 35.1312C69.44 35.3405 69.6432 35.4122 69.7519 35.2906C69.8605 35.1689 70.3008 35.0455 70.7303 35.0163C71.1597 34.9871 71.543 34.8736 71.5821 34.7642C71.6211 34.655 71.8199 34.6413 72.0237 34.7337C72.3186 34.8676 72.3944 34.8007 72.3944 34.4062C72.3944 34.1334 72.4678 33.9102 72.5574 33.9102C72.6471 33.9102 72.7204 34.047 72.7204 34.2143ZM75.9171 34.2903C75.9678 34.5945 75.9932 34.5945 76.0438 34.2903C76.1121 33.8816 77.0193 33.7514 77.1048 34.1383C77.1324 34.2636 76.9397 34.3183 76.6765 34.2596C76.3776 34.193 76.1978 34.2788 76.1978 34.4877C76.1978 34.995 75.6868 34.8885 75.6151 34.3664C75.5391 33.8117 75.8253 33.7396 75.9171 34.2903ZM50.715 34.5184C50.678 34.6857 50.5162 34.8128 50.3554 34.8013C50.0943 34.7821 50.0862 34.7517 50.2803 34.5184C50.5822 34.1553 50.7952 34.1553 50.715 34.5184ZM60.9298 34.5184C60.8929 34.6857 60.9634 34.8226 61.0864 34.8226C61.2094 34.8226 61.3102 34.6857 61.3102 34.5184C61.3102 34.1593 61.5208 34.2405 61.6997 34.6687C61.8639 35.0613 61.3058 35.7544 61.0036 35.5333C60.8869 35.4478 60.7585 35.5266 60.7184 35.7085C60.6782 35.8903 60.572 36.039 60.4823 36.039C60.3927 36.039 60.3519 35.8915 60.3917 35.7115C60.4418 35.4846 60.3102 35.4484 59.9635 35.5938C59.6597 35.7212 59.4628 35.6875 59.4628 35.5077C59.4628 35.345 59.7432 35.1306 60.0859 35.0318C60.4287 34.933 60.7261 34.7085 60.747 34.533C60.7678 34.3579 60.8327 34.2143 60.8909 34.2143C60.9493 34.2143 60.9668 34.3512 60.9298 34.5184ZM64.0368 34.4947C63.9527 34.644 63.7398 34.7152 63.5639 34.6529C63.3175 34.5656 63.2311 34.6769 63.1881 35.1373C63.1573 35.4661 63.0905 35.7349 63.0396 35.7349C62.9223 35.7349 63.0487 34.7447 63.204 34.447C63.2681 34.3241 63.5162 34.2237 63.7552 34.2237C64.0518 34.2237 64.1413 34.3098 64.0368 34.4947ZM25.7755 34.787C25.7755 35.1492 25.3553 35.4384 25.2859 35.1242C25.2556 34.9868 25.2922 34.8052 25.3673 34.7204C25.5899 34.4692 25.7755 34.4996 25.7755 34.787ZM27.1882 34.8226C27.1882 34.9898 27.1422 35.1267 27.0859 35.1267C27.0296 35.1267 26.9534 34.9898 26.9165 34.8226C26.8795 34.6553 26.9256 34.5184 27.0187 34.5184C27.1119 34.5184 27.1882 34.6553 27.1882 34.8226ZM29.1442 34.7894C29.1442 35.2492 28.3507 35.3472 28.0604 34.9232C27.8062 34.5519 27.8361 34.5221 28.465 34.5203C28.8386 34.5193 29.1442 34.6404 29.1442 34.7894ZM29.4784 34.9062C29.4649 35.2699 29.3159 35.1994 29.2692 34.8073C29.2453 34.6066 29.2844 34.4971 29.3561 34.5641C29.4278 34.631 29.4828 34.7848 29.4784 34.9062ZM30.4406 35.8642C30.4447 36.019 30.3576 35.8821 30.2468 35.56C30.1102 35.1632 30.0839 34.9047 30.1652 34.7578C30.274 34.5607 30.4213 35.1522 30.4406 35.8642ZM31.363 34.703C31.5841 34.9406 31.5859 35.4308 31.3655 35.4308C31.2724 35.4308 31.2244 35.5594 31.2592 35.7164C31.2939 35.8736 31.2237 35.9816 31.1032 35.956C30.8778 35.9086 30.8427 35.1689 31.0459 34.7511C31.179 34.4774 31.1561 34.4807 31.363 34.703ZM74.0244 34.8226C74.0244 34.9898 73.9388 35.1245 73.8343 35.1221C73.6717 35.1182 73.6678 35.0744 73.8071 34.8226C74.0122 34.4515 74.0244 34.4515 74.0244 34.8226ZM32.4628 35.2961C32.1849 35.6154 32.1701 35.6863 32.3542 35.817C32.5264 35.9396 32.515 35.9752 32.2946 36.0038C32.1373 36.0241 31.9693 35.803 31.8974 35.4816C31.7834 34.9707 31.8155 34.9241 32.2789 34.9253C32.7799 34.9266 32.7816 34.9299 32.4628 35.2961ZM33.9566 35.6467C34.0004 36.2878 33.9746 36.3699 33.7764 36.2209C33.6493 36.1254 33.3497 36.0412 33.1106 36.0339C32.7589 36.0232 32.7127 35.9606 32.8684 35.7069C32.9742 35.5345 33.0336 35.2699 33.0002 35.1188C32.9668 34.9679 33.1569 34.8566 33.4225 34.8715C33.8458 34.8952 33.9118 34.991 33.9566 35.6467ZM37.1497 35.602C37.2626 36.0339 37.3242 36.0771 37.4252 35.7945C37.6061 35.2882 37.8377 35.3399 37.8377 35.887C37.8377 36.2425 37.6997 36.338 37.2129 36.3191C36.8691 36.3061 36.6492 36.2261 36.7239 36.1418C37.0433 35.7808 36.8159 35.4308 36.262 35.4308C35.6155 35.4308 35.4417 35.9232 36.0175 36.1233C36.2371 36.1993 36.1368 36.2641 35.7522 36.2945C35.4052 36.3219 35.1018 36.1981 35.0608 36.0126C35.0082 35.7745 34.9547 35.7745 34.8696 36.0126C34.8047 36.1944 34.6782 36.3432 34.5885 36.3432C34.468 36.3432 34.4573 36.2541 34.5474 36.0019C34.6145 35.8143 34.6423 35.4633 34.6092 35.2219C34.5583 34.8508 34.7388 34.8034 35.7767 34.9144C36.8069 35.0245 37.0278 35.1349 37.1497 35.602ZM39.5759 35.5068C39.5767 35.8465 38.8392 35.783 38.7627 35.4366C38.7229 35.2568 38.871 35.1662 39.1361 35.2085C39.3777 35.2471 39.5755 35.3815 39.5759 35.5068ZM43.4885 35.4129C43.4885 35.5704 43.4397 35.7833 43.3801 35.8864C43.1905 36.2142 40.2552 36.0637 40.0111 35.7136C39.887 35.5357 41.2331 35.2225 42.3203 35.1762C42.9904 35.148 43.4885 35.2486 43.4885 35.4129ZM48.2541 35.5892C48.3686 35.9098 48.163 36.0184 47.1494 36.1725C46.1101 36.331 45.0099 35.9435 45.0099 35.4192C45.0099 35.1519 48.1568 35.3171 48.2541 35.5892ZM52.1277 35.724C51.4266 35.8991 50.8996 35.7702 51.0741 35.4661C51.1332 35.363 51.5412 35.3423 51.9806 35.4198L52.7797 35.561L52.1277 35.724ZM54.0294 35.4308C54.0294 35.5981 54.0079 35.7349 53.9815 35.7349C53.955 35.7349 53.9033 35.5981 53.8664 35.4308C53.8294 35.2635 53.851 35.1267 53.9143 35.1267C53.9775 35.1267 54.0294 35.2635 54.0294 35.4308ZM56.4744 35.4308C56.4375 35.5981 56.4835 35.7349 56.5767 35.7349C56.6698 35.7349 56.7461 35.5981 56.7461 35.4308C56.7461 35.2635 56.7001 35.1267 56.6438 35.1267C56.5875 35.1267 56.5114 35.2635 56.4744 35.4308ZM79.0029 35.3344C79.0812 35.4223 79.175 35.4113 79.2111 35.3104C79.2472 35.2094 79.1831 35.1376 79.0685 35.1507C78.9419 35.1653 78.9162 35.2374 79.0029 35.3344ZM53.5467 35.7063C53.5132 35.8578 53.388 35.9104 53.2686 35.8228C52.9695 35.6041 52.9965 35.4308 53.3294 35.4308C53.4823 35.4308 53.5801 35.5549 53.5467 35.7063ZM59.164 35.6321C59.0893 35.7167 58.9671 35.7167 58.8923 35.6321C58.8176 35.5479 58.8787 35.4788 59.0281 35.4788C59.1776 35.4788 59.2387 35.5479 59.164 35.6321ZM64.1627 35.6321C64.0881 35.7167 63.9658 35.7167 63.8911 35.6321C63.8164 35.5479 63.8775 35.4788 64.0269 35.4788C64.1763 35.4788 64.2375 35.5479 64.1627 35.6321ZM78.2082 36.9514C78.2451 37.1187 78.2969 37.2555 78.3233 37.2555C78.3497 37.2555 78.3712 37.1187 78.3712 36.9514C78.3712 36.7841 78.3194 36.6473 78.2561 36.6473C78.1929 36.6473 78.1712 36.7841 78.2082 36.9514ZM81.0676 36.855C81.1459 36.9429 81.2397 36.9319 81.2758 36.831C81.3119 36.73 81.2478 36.6582 81.1332 36.6713C81.0066 36.6859 80.9809 36.758 81.0676 36.855ZM36.6421 40.6769C36.6422 40.8022 35.6521 40.8794 34.4418 40.8484C32.9185 40.8092 32.5255 40.7389 33.1649 40.6203C34.4918 40.374 36.6419 40.409 36.6421 40.6769ZM37.729 40.7885C37.729 40.8524 37.4968 40.8889 37.2129 40.8691C36.7689 40.8381 36.7423 40.804 37.0227 40.6258C37.3273 40.4321 37.729 40.5248 37.729 40.7885ZM32.1054 40.8022C32.0308 40.8867 31.9085 40.8867 31.8338 40.8022C31.7591 40.7179 31.8202 40.6489 31.9696 40.6489C32.119 40.6489 32.1802 40.7179 32.1054 40.8022ZM22.2706 41.4506C22.3459 41.5892 21.9 41.7106 21.2667 41.7237C20.64 41.7367 20.147 41.6583 20.1711 41.5491C20.2369 41.2511 22.1143 41.1632 22.2706 41.4506ZM71.9394 41.7209C72.0178 41.8088 72.1115 41.7979 72.1476 41.6969C72.1837 41.5959 72.1196 41.5242 72.005 41.5372C71.8784 41.5518 71.8527 41.6239 71.9394 41.7209ZM63.9975 42.001C63.9614 42.102 63.8676 42.1129 63.7892 42.0251C63.7025 41.928 63.7283 41.856 63.8549 41.8414C63.9694 41.8283 64.0335 41.9001 63.9975 42.001ZM26.2313 42.6525C26.8705 42.706 27.9463 42.7063 28.622 42.6528C29.2977 42.5992 28.7747 42.5554 27.4598 42.5551C26.1449 42.5548 25.5921 42.5986 26.2313 42.6525ZM35.9706 42.796C36.0285 42.9581 36.1667 43.0372 36.2777 42.9712C36.4271 42.8827 36.3997 42.806 36.1723 42.6765C35.9739 42.563 35.9025 42.6056 35.9706 42.796ZM69.6574 42.6333C69.7357 42.7212 69.8295 42.7102 69.8656 42.6093C69.9017 42.5083 69.8375 42.4365 69.723 42.4496C69.5964 42.4642 69.5706 42.5363 69.6574 42.6333ZM36.8338 42.9447C36.969 43.0174 37.1646 43.0147 37.2685 42.9386C37.3724 42.8626 37.2618 42.803 37.0227 42.8063C36.7836 42.8097 36.6986 42.872 36.8338 42.9447ZM38.3552 42.9447C38.4904 43.0174 38.686 43.0147 38.7899 42.9386C38.8938 42.8626 38.7831 42.803 38.5441 42.8063C38.305 42.8097 38.22 42.872 38.3552 42.9447ZM41.7246 42.9502C41.9199 43.0177 42.2133 43.0165 42.3766 42.9471C42.5399 42.8775 42.3801 42.8222 42.0215 42.824C41.6629 42.8255 41.5293 42.8824 41.7246 42.9502ZM43.2998 42.9481C43.465 43.0177 43.7095 43.0159 43.8432 42.9438C43.9768 42.8717 43.8417 42.8145 43.5428 42.8167C43.244 42.8191 43.1347 42.8781 43.2998 42.9481ZM57.5339 42.9392C57.6385 43.0159 57.8097 43.0159 57.9143 42.9392C58.0188 42.8629 57.9333 42.8003 57.7241 42.8003C57.5149 42.8003 57.4294 42.8629 57.5339 42.9392ZM59.327 42.931C59.4017 43.0156 59.524 43.0156 59.5986 42.931C59.6734 42.8468 59.6122 42.7778 59.4628 42.7778C59.3134 42.7778 59.2523 42.8468 59.327 42.931Z" fill="#5DA399"/>
<path d="M21.52 37.216C18.8107 37.216 16.432 36.64 14.384 35.488C12.3573 34.3573 10.7787 32.7467 9.648 30.656C8.51733 28.5653 7.952 26.1013 7.952 23.264C7.952 21.1733 8.28267 19.264 8.944 17.536C9.62667 15.808 10.5867 14.3253 11.824 13.088C13.0827 11.8293 14.5653 10.8587 16.272 10.176C17.9787 9.49333 19.8667 9.152 21.936 9.152C24.4107 9.152 26.576 9.65333 28.432 10.656C30.288 11.6373 31.728 13.0133 32.752 14.784C33.7973 16.5547 34.32 18.624 34.32 20.992C34.32 22.848 34.064 24.4587 33.552 25.824C33.0613 27.1893 32.3573 28.2453 31.44 28.992C30.5227 29.7387 29.456 30.112 28.24 30.112C27.1947 30.112 26.352 29.8667 25.712 29.376C25.072 28.864 24.688 28.16 24.56 27.264C23.9627 28.2027 23.2373 28.9173 22.384 29.408C21.552 29.8773 20.6667 30.112 19.728 30.112C18.0853 30.112 16.8053 29.6 15.888 28.576C14.992 27.5307 14.544 26.1013 14.544 24.288C14.544 22.7307 14.8427 21.344 15.44 20.128C16.0373 18.8907 16.8587 17.92 17.904 17.216C18.9493 16.512 20.1333 16.16 21.456 16.16C23.504 16.16 24.8587 16.992 25.52 18.656L25.904 16.448H28.016L26.576 24.736C26.4907 25.2907 26.448 25.792 26.448 26.24C26.448 27.6693 27.088 28.384 28.368 28.384C29.584 28.384 30.576 27.712 31.344 26.368C32.112 25.0027 32.496 23.2107 32.496 20.992C32.496 18.9653 32.048 17.2053 31.152 15.712C30.2773 14.2187 29.0507 13.056 27.472 12.224C25.8933 11.392 24.0373 10.976 21.904 10.976C19.536 10.976 17.456 11.488 15.664 12.512C13.872 13.536 12.4747 14.976 11.472 16.832C10.4693 18.6667 9.968 20.8107 9.968 23.264C9.968 25.8027 10.4373 27.9787 11.376 29.792C12.3147 31.6053 13.648 32.992 15.376 33.952C17.104 34.9333 19.152 35.424 21.52 35.424C23.248 35.424 24.8053 35.1467 26.192 34.592C27.6 34.0587 28.7627 33.3013 29.68 32.32L30.736 33.856C29.6907 34.944 28.368 35.776 26.768 36.352C25.1893 36.928 23.44 37.216 21.52 37.216ZM20.016 28.256C20.976 28.256 21.8187 27.9787 22.544 27.424C23.2907 26.848 23.8773 26.0587 24.304 25.056C24.7307 24.0533 24.944 22.9013 24.944 21.6C24.944 19.2107 23.856 18.016 21.68 18.016C20.7413 18.016 19.8987 18.2933 19.152 18.848C18.4053 19.3813 17.808 20.1173 17.36 21.056C16.9333 21.9947 16.72 23.072 16.72 24.288C16.72 25.568 17.008 26.5493 17.584 27.232C18.16 27.9147 18.9707 28.256 20.016 28.256ZM46.5853 32.288C45.3479 32.288 44.2599 32.0107 43.3213 31.456C42.4039 30.9013 41.7106 30.144 41.2413 29.184V32H38.7133V9.44H41.3053V19.136C41.7533 18.2187 42.4466 17.4933 43.3853 16.96C44.3239 16.4267 45.3906 16.16 46.5853 16.16C47.9719 16.16 49.1773 16.4907 50.2013 17.152C51.2466 17.792 52.0466 18.72 52.6013 19.936C53.1773 21.1307 53.4653 22.56 53.4653 24.224C53.4653 25.8667 53.1773 27.296 52.6013 28.512C52.0466 29.7067 51.2466 30.6347 50.2013 31.296C49.1773 31.9573 47.9719 32.288 46.5853 32.288ZM46.0413 30.208C47.4919 30.208 48.6546 29.696 49.5293 28.672C50.4039 27.6267 50.8413 26.144 50.8413 24.224C50.8413 22.2827 50.4039 20.8 49.5293 19.776C48.6546 18.752 47.4919 18.24 46.0413 18.24C44.5906 18.24 43.4279 18.752 42.5533 19.776C41.6786 20.8 41.2413 22.2827 41.2413 24.224C41.2413 26.144 41.6786 27.6267 42.5533 28.672C43.4279 29.696 44.5906 30.208 46.0413 30.208ZM62.6175 32.288C61.4015 32.288 60.2495 32.1173 59.1615 31.776C58.0735 31.4347 57.1775 30.9547 56.4735 30.336L57.3055 28.512C58.0735 29.1307 58.9162 29.5893 59.8335 29.888C60.7722 30.1653 61.7215 30.304 62.6815 30.304C63.8975 30.304 64.8148 30.08 65.4335 29.632C66.0522 29.184 66.3615 28.576 66.3615 27.808C66.3615 27.2107 66.1588 26.7413 65.7535 26.4C65.3482 26.0373 64.7082 25.76 63.8335 25.568L60.9215 24.928C58.2762 24.352 56.9535 22.9867 56.9535 20.832C56.9535 19.424 57.5082 18.2933 58.6175 17.44C59.7482 16.5867 61.2202 16.16 63.0335 16.16C64.1002 16.16 65.1135 16.3307 66.0735 16.672C67.0548 16.992 67.8655 17.472 68.5055 18.112L67.6415 19.936C67.0228 19.36 66.2975 18.9227 65.4655 18.624C64.6548 18.304 63.8442 18.144 63.0335 18.144C61.8388 18.144 60.9322 18.3787 60.3135 18.848C59.6948 19.3173 59.3855 19.936 59.3855 20.704C59.3855 21.8987 60.1748 22.6667 61.7535 23.008L64.6655 23.616C66.0308 23.9147 67.0655 24.3947 67.7695 25.056C68.4735 25.696 68.8255 26.5707 68.8255 27.68C68.8255 29.1093 68.2602 30.24 67.1295 31.072C65.9988 31.8827 64.4948 32.288 62.6175 32.288Z" fill="white"/>
</svg>
