<svg width="193" height="147" viewBox="0 0 193 147" fill="none" xmlns="http://www.w3.org/2000/svg">
<path fill-rule="evenodd" clip-rule="evenodd" d="M139.21 0.563807C137.242 0.969278 135.521 1.44649 135.386 1.62531C135.25 1.80309 136.083 2.24287 137.236 2.60156C139.328 3.25239 139.324 3.25447 136.126 3.57469C134.362 3.75143 131.752 4.26399 130.327 4.71312C128.535 5.27871 129.447 5.38164 133.288 5.04686C142.067 4.2827 151.081 3.60692 152.24 3.62459C152.887 3.63499 153.244 3.23368 153.151 2.60156C153.051 1.9185 155.21 1.56189 159.443 1.56189C164.018 1.56189 165.839 1.88938 165.722 2.69097C165.618 3.4021 165.772 3.73064 166.139 3.57677C166.46 3.44161 166.888 3.609 167.092 3.94897C167.296 4.2879 169.128 5.06557 171.163 5.6769C173.199 6.28823 175.281 7.20106 175.79 7.7053C176.299 8.2085 176.715 8.23345 176.715 7.7604C176.715 6.57934 176.062 5.89211 172.274 3.08604C171.799 2.73464 170.91 1.9632 170.3 1.37267C168.984 0.100114 144.553 -0.535124 139.21 0.563807ZM64.0772 1.65858C62.9175 2.23767 62.9508 2.28446 64.6323 2.43833C66.4034 2.59948 66.9386 2.1597 65.866 1.42361C65.5606 1.2136 64.7557 1.31964 64.0772 1.65858ZM61.363 2.17009C61.0916 2.34788 59.8981 2.7939 58.7105 3.1609C57.5232 3.5279 56.5515 4.1725 56.5515 4.5946C56.5515 5.01567 56.9123 5.17474 57.3534 4.94705C57.9683 4.62995 58.069 4.78902 57.7852 5.63116C57.5039 6.46497 57.6816 6.70306 58.5255 6.62092C59.5381 6.52319 59.5707 6.44418 58.8956 5.72057L58.1553 4.9273L59.0601 4.80358C59.5576 4.736 60.0017 5.0978 60.0471 5.60828C60.0938 6.13539 61.0336 6.19985 62.2266 5.75695C64.4887 4.91898 64.4495 4.51871 62.1032 4.49688C61.289 4.48856 60.9004 4.25359 61.2396 3.97392C61.8224 3.49359 62.6115 1.3893 62.0909 1.70329C61.9621 1.78126 61.6344 1.99127 61.363 2.17009ZM146.438 2.3302C145.595 2.53294 144.152 2.53398 143.23 2.33332C142.308 2.13371 142.998 1.96736 144.762 1.96632C146.526 1.96424 147.28 2.12851 146.438 2.3302ZM149.882 2.25015C149.712 2.53918 149.435 2.53918 149.265 2.25015C149.095 1.96216 149.234 1.72616 149.573 1.72616C149.913 1.72616 150.052 1.96216 149.882 2.25015ZM168.634 3.28982C168.465 3.57885 168.187 3.57885 168.017 3.28982C167.848 3.00183 167.987 2.76583 168.326 2.76583C168.665 2.76583 168.804 3.00183 168.634 3.28982ZM170.366 3.28358C170.199 3.56845 169.866 3.58613 169.626 3.32205C169.386 3.05797 169.522 2.82509 169.93 2.80429C170.337 2.7835 170.533 2.99871 170.366 3.28358ZM64.7557 4.35756C64.9931 4.61956 65.3819 4.61956 65.6193 4.35756C65.8567 4.0966 65.6625 3.88243 65.1875 3.88243C64.7125 3.88243 64.5183 4.0966 64.7557 4.35756ZM67.0998 4.32949C67.2695 4.61852 67.5471 4.61852 67.7166 4.32949C67.8864 4.0415 67.7475 3.8055 67.4082 3.8055C67.0689 3.8055 66.9302 4.0415 67.0998 4.32949ZM19.8624 6.04702C19.7914 6.53151 18.4962 6.83197 16.9842 6.71449C14.2406 6.50344 9.43534 8.03383 8.62652 9.37708C8.35584 9.82622 8.21841 11.0447 8.25098 12.7051C8.30649 15.5309 8.34474 15.6317 9.73217 16.6028C10.8677 17.3981 10.9592 19.0803 9.85554 18.8693C9.12074 18.7289 9.05955 18.9556 9.12469 21.5755C9.18687 24.0791 9.11013 24.4367 8.50783 24.4502C7.64498 24.471 7.34099 25.3953 7.27289 28.2065C7.22872 30.0353 7.38886 30.5323 8.19818 31.0771C9.50813 31.9597 9.43731 33.3976 8.05136 34.0557C6.95657 34.5756 5.59529 38.3204 5.85585 40.0962C5.92049 40.5381 5.6402 41.2086 5.23282 41.586C4.59253 42.1787 4.53973 42.4718 4.84297 43.7496C5.03592 44.5626 5.34065 45.2353 5.52003 45.2436C5.76579 45.2561 5.75715 45.4962 5.485 46.2219C5.23209 46.8956 5.52053 47.2793 6.44951 47.5049C7.75897 47.823 7.77501 47.8667 7.79722 51.2061C7.8098 53.065 7.73652 54.585 7.63486 54.585C7.5332 54.585 7.4498 55.5207 7.4498 56.6644C7.4498 58.2052 7.27412 58.7801 6.77126 58.8851C6.17982 59.0088 6.16477 59.0847 6.65431 59.4808C7.36961 60.0589 8.67069 62.8878 8.22532 62.8962C8.03705 62.8993 7.9497 63.5511 8.0257 64.386C8.22655 66.5911 7.738 67.7805 6.11419 69.0406C4.66137 70.1676 4.03538 71.2197 4.8178 71.2197C5.04407 71.2197 5.22912 71.9215 5.22912 72.7793C5.22912 73.9925 4.90022 74.3388 3.74867 74.3388C2.15225 74.3388 1.6558 76.3245 3.1935 76.5595C3.76619 76.6468 3.90733 76.8724 3.56361 77.1521C3.25815 77.3995 3.00844 78.0057 3.00844 78.4995C3.00844 78.9934 2.78465 79.6962 2.51126 80.0621C2.23787 80.4271 2.07551 81.1434 2.15003 81.6518C2.22479 82.1612 1.92105 83.021 1.47519 83.5627C0.774684 84.4142 0.916069 84.5649 2.51496 84.6731C4.41512 84.802 4.48569 85.8968 2.682 87.2629C1.88231 87.868 1.78485 88.2132 2.04319 89.5242C2.28845 90.7697 2.38937 90.8082 2.55962 89.7227C2.72395 88.6737 2.85349 88.8297 3.14168 90.4224C3.48145 92.299 3.46541 92.5558 2.95194 93.4915C2.47227 94.3649 2.58725 94.5936 3.74867 95.0822C4.96659 95.5938 5.05196 95.7819 4.58143 96.9183C4.29323 97.6149 3.57151 98.4965 2.9776 98.877C1.13172 100.06 1.02538 101.299 2.7617 101.394L4.36553 101.48L2.26822 104.804L0.170907 108.128L1.40462 108.648L2.63833 109.168L1.18452 110.574C0.168687 111.558 -0.165649 112.258 0.0741845 112.898C0.263189 113.402 0.639717 113.855 0.911134 113.903C1.40116 113.992 1.40117 113.998 0.915577 114.797C0.560761 115.381 0.865735 115.849 2.02592 116.5C3.47503 117.313 3.53252 117.433 2.63833 117.771C2.0955 117.976 1.546 118.581 1.41696 119.114C1.27163 119.715 2.30301 120.115 4.13112 120.166C6.40831 120.23 6.92523 120.487 6.40115 121.292C6.00784 121.898 5.72261 123.115 5.72261 124.188C5.72261 125.689 5.2913 126.409 3.44345 127.989C2.19 129.061 1.37353 130.108 1.62891 130.315C2.0005 130.616 2.02444 130.875 1.74883 131.61C1.49567 132.286 1.56772 132.536 2.02147 132.56C2.36075 132.578 2.80167 133.028 3.00153 133.56C3.40521 134.635 3.30034 134.898 1.98693 136.103C1.62866 136.432 1.27533 137.364 1.20155 138.174C1.08904 139.407 1.51541 139.57 3.82689 139.168C5.86621 138.815 6.48973 138.987 6.21609 139.83C5.90396 140.791 5.92346 140.944 6.33946 140.805C7.16408 140.526 7.34469 140.859 6.95632 141.94C6.70464 142.641 7.05971 142.732 8.06666 142.227C9.90983 141.301 9.81557 141.29 13.9885 142.896C16.5457 143.879 20.2945 144.039 28.4229 143.514C35.1701 143.078 41.4956 143.227 44.8313 143.901C55.8249 146.125 56.9184 146.281 56.7613 145.597C56.6732 145.213 55.4518 144.645 54.0471 144.336C52.6426 144.027 51.3877 143.355 51.2589 142.846C50.9376 141.574 72.1841 141.673 79.6774 142.978C83.9757 143.726 116.442 145.191 127.737 145.146C130.257 145.136 141.247 143.822 141.752 143.471C142.168 143.179 142.383 143.395 142.292 144.012C142.21 144.576 142.253 145.036 142.389 145.036C142.524 145.036 142.704 144.568 142.788 143.997C142.988 142.634 143.898 142.649 143.898 144.015C143.898 145.191 149.727 145.261 153.984 144.137C155.933 143.622 156.572 143.773 156.663 144.768C156.728 145.487 156.943 146.076 157.14 146.076C157.337 146.076 157.43 145.608 157.346 145.036C157.262 144.464 157.394 143.917 157.64 143.819C157.885 143.721 158.253 143.537 158.456 143.409C158.66 143.282 159.437 143.121 160.183 143.052C161.01 142.975 161.414 142.587 161.217 142.061C160.897 141.205 162.647 140.409 167.586 139.165C170.069 138.54 171.192 136.833 169.3 136.561C168.697 136.474 168.091 136.294 167.956 136.161C167.82 136.028 166.654 135.801 165.365 135.657L163.021 135.394L164.625 134.586C165.507 134.141 167.32 133.63 168.654 133.452C169.988 133.273 171.133 132.766 171.198 132.324C171.263 131.882 171.538 131.521 171.809 131.521C172.081 131.521 172.243 131.114 172.17 130.616C172.096 130.114 171.569 130.094 170.984 130.571C169.802 131.534 168.676 131.776 168.854 131.03C169.091 130.028 174.203 126.316 174.557 126.888C174.764 127.222 174.989 126.773 175.072 125.862C175.176 124.713 175.597 124.194 176.522 124.073L177.825 123.904L176.468 123.291C175.401 122.807 175.253 122.544 175.775 122.056C176.141 121.714 176.974 121.783 177.626 122.207C178.278 122.631 178.837 122.884 178.868 122.769C178.899 122.652 178.747 121.494 178.531 120.193C178.271 118.628 178.056 118.178 177.893 118.863C177.731 119.548 177.386 119.53 176.873 118.809C175.494 116.874 175.712 116.438 177.869 116.818C179.373 117.082 179.936 116.856 179.816 116.038C179.712 115.329 179.866 114.849 180.217 114.792C180.724 114.709 178.299 112.633 176.345 111.477C175.938 111.236 176.437 110.961 177.455 110.868C178.473 110.773 179.472 110.242 179.676 109.688C179.983 108.852 179.962 108.674 179.553 108.648C179.281 108.63 178.893 108.122 178.689 107.518C178.418 106.715 178.634 106.597 179.49 107.078C181.021 107.937 181.345 107.029 180.638 103.86C180.326 102.457 180.216 101.37 180.388 101.37C180.555 101.37 180.623 100.902 180.54 100.33C180.456 99.7587 179.922 99.2835 179.353 99.2752C178.784 99.2659 178.152 98.771 177.949 98.1742C177.682 97.3945 177.942 97.2801 178.874 97.7687C180.192 98.458 180.691 97.0732 179.614 95.7123C179.073 95.0282 179.071 94.9866 179.553 94.0124C179.944 93.2223 179.865 93.1048 179.176 93.45C178.183 93.948 177.139 91.7064 177.838 90.5763C178.057 90.2228 178.435 89.9338 178.679 89.9338C178.923 89.9338 179.26 89.232 179.429 88.3743C179.67 87.1496 179.671 86.8148 179.433 86.8148C179.265 86.8148 179.193 86.1203 179.272 85.2553C179.363 84.253 179.262 83.6698 178.99 83.623C178.638 83.5617 178.65 83.4047 179.059 82.6977C179.518 81.9055 179.503 81.7641 178.858 80.6911C178.476 80.0569 178.004 79.5371 177.809 79.5371C177.615 79.5371 177.455 79.0693 177.455 78.4974C177.455 77.9256 178.094 77.412 178.874 77.3569L180.293 77.2561L179.367 75.656C178.364 73.9218 178.182 71.8789 178.889 70.2851C179.135 69.7309 180.579 68.946 182.097 68.5405C183.615 68.1361 184.858 67.4426 184.858 66.9997C184.858 66.5568 184.552 65.7251 184.179 65.1502C183.611 64.2768 183.792 64.0928 185.289 64.0242C186.304 63.9774 187.078 63.4919 187.078 62.9024C187.078 62.3306 186.849 61.8627 186.57 61.8627C186.291 61.8627 186.128 61.4157 186.208 60.8688C186.288 60.3219 186.517 60.1379 186.716 60.4602C186.915 60.7815 187.078 60.6058 187.078 60.0693C187.078 59.5318 186.551 58.5711 185.906 57.9338C184.911 56.9503 185.293 56.8255 188.435 57.1062L192.136 57.4379L188.929 55.5374C183.316 52.2115 183.416 52.2978 184.117 51.413C184.688 50.6925 184.694 50.626 184.194 50.5303C183.441 50.3858 183.25 48.5924 183.929 48.0434C184.239 47.7908 184.031 47.5278 183.459 47.4487C182.894 47.3708 182.394 46.8457 182.349 46.2822C182.304 45.7187 180.99 44.8745 179.429 44.4077C176.65 43.576 176.613 43.5323 177.633 42.2816C178.297 41.4675 180.028 41.0891 182.413 41.2357C185.865 41.4488 186.179 41.3105 186.502 39.4485C186.809 37.6738 187.223 37.3889 189.926 37.0853C192.377 36.8108 193 36.4418 193 35.2659C193 34.455 192.904 33.7916 192.786 33.7916C192.439 33.7916 188.228 30.6591 187.757 30.0509C186.865 28.899 187.375 27.5495 188.744 27.4341C190.147 27.3155 190.152 27.3051 189.175 26.4547C188.633 25.9816 187.3 25.5325 186.215 25.4577C184.281 25.3225 181.659 23.9096 182.39 23.3949C183.086 22.9053 180.542 21.4695 178.841 21.3925C177.358 21.325 177.069 20.985 176.57 18.7164L175.998 16.1173L177.035 16.0237L178.072 15.9301L177.228 14.9081C176.764 14.3467 176.182 14.1117 175.933 14.3852C175.685 14.6586 175.481 14.4933 175.481 14.0171C175.481 13.541 175.287 12.9369 175.05 12.6749C174.812 12.414 175.117 12.0865 175.728 11.9492L176.838 11.6987L175.728 10.9106C172.099 8.33638 146.29 6.91515 137.976 8.8323C135.602 9.3802 132.53 9.83974 131.15 9.85325C129.379 9.87197 128.604 10.2618 128.516 11.1788C128.422 12.1572 128.34 12.179 128.185 11.2641C128.011 10.239 122.887 9.05894 122.432 9.93851C121.986 10.7983 56.9885 10.685 52.6036 9.81686C49.6859 9.23881 46.3549 8.58382 45.2014 8.36133C44.0479 8.13884 40.6144 7.71257 37.5719 7.41627C34.529 7.11892 30.9204 6.58245 29.5527 6.22481C25.598 5.1893 20.0033 5.08637 19.8624 6.04702ZM145.086 5.39099C145.264 5.69145 145.477 5.65403 145.559 5.30886C145.641 4.96369 145.495 4.71832 145.235 4.76303C144.947 4.81293 144.889 5.05934 145.086 5.39099ZM138.424 6.43066C138.602 6.73112 138.815 6.6937 138.897 6.34853C138.978 6.00336 138.833 5.75799 138.573 5.8027C138.285 5.8526 138.227 6.099 138.424 6.43066ZM140.398 6.43066C140.576 6.73112 140.789 6.6937 140.871 6.34853C140.952 6.00336 140.807 5.75799 140.547 5.8027C140.259 5.8526 140.201 6.099 140.398 6.43066ZM61.1779 8.53391C61.4834 8.78136 61.9828 8.78136 62.2883 8.53391C62.5937 8.28543 62.3438 8.08269 61.7331 8.08269C61.1224 8.08269 60.8725 8.28543 61.1779 8.53391ZM111.148 12.6406C110.981 12.9255 110.648 12.9432 110.408 12.6791C110.168 12.415 110.304 12.1821 110.711 12.1613C111.119 12.1405 111.315 12.3557 111.148 12.6406ZM174.427 12.5865C174.346 12.9317 174.133 12.9691 173.955 12.6687C173.758 12.337 173.816 12.0906 174.104 12.0407C174.364 11.996 174.509 12.2414 174.427 12.5865ZM137.659 14.433C137.743 14.7875 136.933 15.1306 135.859 15.1961C134.784 15.2606 131.074 15.5517 127.613 15.8418C124.153 16.1329 111.903 16.7307 100.393 17.1725C88.8822 17.6144 78.859 18.2933 78.119 18.6832C76.7595 19.3985 75.1322 18.573 75.4305 17.3181C75.6022 16.5955 77.9379 16.4021 91.0338 16.031C96.032 15.8885 99.2379 15.4103 99.2379 14.8062C99.2379 14.2615 99.3941 14.0681 99.5851 14.3769C100.113 15.2294 108.33 15.0849 114.289 14.118C120.116 13.1719 137.415 13.4058 137.659 14.433ZM144.104 13.5191C143.926 14.2666 139.697 14.3571 139.522 13.6169C139.441 13.2769 140.467 12.9983 141.801 12.9983C143.135 12.9983 144.172 13.2322 144.104 13.5191ZM145.065 13.6262C144.983 13.9714 144.77 14.0088 144.592 13.7083C144.395 13.3767 144.454 13.1303 144.741 13.0804C145.001 13.0357 145.147 13.281 145.065 13.6262ZM126.321 14.773C126.628 15.0215 127.072 15.0121 127.308 14.7522C127.544 14.4923 127.293 14.2885 126.75 14.2999C126.207 14.3114 126.014 14.5245 126.321 14.773ZM160.021 14.8177C160.084 15.246 158.601 15.5974 156.726 15.5974C154.85 15.5974 153.233 15.246 153.131 14.8177C153.029 14.3893 154.512 14.0379 156.426 14.0379C158.341 14.0379 159.959 14.3893 160.021 14.8177ZM161.294 15.0776C160.62 16.2982 160.43 16.2982 160.43 15.0776C160.43 14.5058 160.735 14.0712 161.109 14.1107C161.71 14.1762 161.731 14.2854 161.294 15.0776ZM116.217 15.7877C116.395 16.0881 116.608 16.0507 116.69 15.7055C116.772 15.3604 116.626 15.115 116.366 15.1597C116.079 15.2096 116.02 15.456 116.217 15.7877ZM117.686 15.8314C118.13 16.0622 118.796 16.058 119.167 15.821C119.538 15.5829 119.175 15.3936 118.36 15.3999C117.546 15.4051 117.243 15.5995 117.686 15.8314ZM67.8782 18.2579C67.7006 18.7206 67.4546 18.837 67.3319 18.5179C67.2093 18.1987 67.2542 17.5582 67.4316 17.0956C67.6093 16.6329 67.8553 16.5165 67.9779 16.8357C68.1005 17.1549 68.0556 17.7953 67.8782 18.2579ZM72.343 17.3825C72.343 17.8306 71.5382 18.1415 70.5541 18.0739C69.2264 17.9824 68.956 17.7506 69.5055 17.1746C70.4527 16.1807 72.343 16.32 72.343 17.3825ZM74.8105 16.6631C74.8105 17.7735 73.4783 19.2966 73.1025 18.6156C72.7951 18.0583 72.8427 17.7433 73.33 17.1174C74.0835 16.1484 74.8105 15.926 74.8105 16.6631ZM66.7827 18.2559C66.7035 18.7944 65.7849 19.229 64.7411 19.2207C63.6974 19.2113 62.9732 18.8609 63.1319 18.4409C63.5711 17.2775 66.9512 17.106 66.7827 18.2559ZM145.692 17.839C145.525 18.1238 145.192 18.1415 144.952 17.8774C144.712 17.6133 144.848 17.3805 145.255 17.3597C145.662 17.3389 145.859 17.5541 145.692 17.839ZM162.959 18.9306C162.654 19.178 162.154 19.178 161.849 18.9306C161.544 18.6821 161.793 18.4794 162.404 18.4794C163.015 18.4794 163.264 18.6821 162.959 18.9306ZM9.91723 32.752C9.91723 33.3238 9.86837 33.7916 9.80842 33.7916C9.74846 33.7916 9.63101 33.3238 9.54711 32.752C9.46322 32.1802 9.51232 31.7123 9.65593 31.7123C9.79953 31.7123 9.91723 32.1802 9.91723 32.752ZM3.20905 70.8902C3.38695 71.1906 3.59989 71.1532 3.6818 70.808C3.76372 70.4629 3.61815 70.2175 3.35808 70.2622C3.07062 70.3121 3.01215 70.5585 3.20905 70.8902ZM178.622 88.4824C178.54 88.8276 178.327 88.865 178.149 88.5646C177.952 88.2329 178.011 87.9865 178.298 87.9366C178.558 87.8919 178.704 88.1373 178.622 88.4824ZM5.22912 90.9735C5.22912 91.5453 5.11143 92.0131 4.96782 92.0131C4.82422 92.0131 4.77512 91.5453 4.85901 90.9735C4.9429 90.4017 5.06035 89.9338 5.12031 89.9338C5.18027 89.9338 5.22912 90.4017 5.22912 90.9735ZM78.6451 106.638C78.9106 108.448 78.6083 108.832 78.2698 107.113C78.0751 106.126 78.0563 105.529 78.2202 105.529C78.3643 105.529 78.5557 106.028 78.6451 106.638ZM94.2915 109.198C94.4381 108.816 94.4941 108.069 94.4158 107.536C94.3344 106.98 94.9012 106.569 95.7485 106.569C96.6 106.569 97.261 107.051 97.3131 107.71C97.3629 108.338 97.925 109.1 98.5626 109.403C100.151 110.157 99.7887 111.759 98.1192 111.362C97.115 111.124 96.7705 111.401 96.7705 112.445C96.7705 114.21 95.8677 114.296 95.7001 112.547C95.6281 111.793 95.5676 112.037 95.5563 113.128C95.5457 114.162 95.4455 114.772 95.334 114.48C95.2224 114.19 94.9461 114.864 94.7196 115.979C94.2365 118.357 93.0694 118.733 93.0694 116.511C93.0694 115.373 92.8552 115.163 92.1727 115.629C91.469 116.111 91.302 115.929 91.3972 114.785C91.4641 113.982 91.6763 113.374 91.8687 113.432C92.0614 113.491 92.3706 112.853 92.5562 112.017C92.849 110.696 92.7837 110.59 92.056 111.21C91.5956 111.602 91.0338 112.14 90.8077 112.406C90.5817 112.673 90.3318 112.448 90.2523 111.907C90.1729 111.366 90.6693 110.597 91.3555 110.2C92.0417 109.802 92.7358 108.866 92.8979 108.12C93.1397 107.007 93.2678 107.045 93.609 108.327C93.838 109.187 94.1452 109.579 94.2915 109.198ZM129.094 108.011C129.094 108.864 127.585 109.293 127.465 108.474C127.395 107.998 127.733 107.608 128.216 107.608C128.698 107.608 129.094 107.789 129.094 108.011ZM84.0379 114.27C83.8259 116.598 83.5153 115.435 83.5898 112.59C83.6823 109.053 83.6882 109.024 83.9478 110.898C84.0796 111.849 84.12 113.367 84.0379 114.27ZM101.525 110.37C101.358 110.654 101.025 110.672 100.785 110.408C100.545 110.144 100.681 109.911 101.089 109.89C101.496 109.869 101.692 110.085 101.525 110.37ZM109.848 110.78C108.265 111.966 102.64 111.928 102.199 110.727C101.953 110.059 103.366 109.758 106.393 109.833C109.515 109.912 110.607 110.21 109.848 110.78ZM114.968 110.432C114.594 110.67 113.984 110.67 113.611 110.432C113.237 110.194 113.543 109.999 114.289 109.999C115.036 109.999 115.341 110.194 114.968 110.432ZM117.312 110.376C117.142 110.665 116.865 110.665 116.695 110.376C116.525 110.088 116.664 109.852 117.003 109.852C117.343 109.852 117.482 110.088 117.312 110.376ZM119.779 110.376C119.61 110.665 119.332 110.665 119.162 110.376C118.993 110.088 119.132 109.852 119.471 109.852C119.81 109.852 119.949 110.088 119.779 110.376ZM77.7714 111.236C77.7714 112.749 76.8515 115.92 76.4212 115.891C75.94 115.858 75.9425 115.78 76.4853 113.873L77.0496 111.891L75.9919 111.49C75.0629 111.139 75.1068 111.068 76.3526 110.909C77.133 110.809 77.7714 110.956 77.7714 111.236ZM78.9382 111.355C78.8563 111.7 78.6433 111.738 78.4654 111.437C78.2685 111.106 78.327 110.859 78.6145 110.809C78.8745 110.765 79.0201 111.01 78.9382 111.355ZM94.0564 111.767C94.0564 112.339 94.1741 112.807 94.3177 112.807C94.4613 112.807 94.5104 112.339 94.4265 111.767C94.3426 111.195 94.2251 110.727 94.1652 110.727C94.1052 110.727 94.0564 111.195 94.0564 111.767ZM171.22 111.355C171.138 111.7 170.925 111.738 170.747 111.437C170.55 111.106 170.609 110.859 170.896 110.809C171.156 110.765 171.302 111.01 171.22 111.355ZM173.076 111.415C172.906 111.704 172.628 111.704 172.459 111.415C172.289 111.127 172.428 110.891 172.767 110.891C173.106 110.891 173.245 111.127 173.076 111.415ZM67.0946 112.395C67.0127 112.74 66.7997 112.777 66.6218 112.477C66.4249 112.145 66.4834 111.899 66.7708 111.849C67.0309 111.804 67.1765 112.05 67.0946 112.395ZM74.0137 113.002C73.9599 113.681 73.7687 114.443 73.5886 114.696C73.4045 114.954 73.332 114.675 73.4228 114.055C73.5133 113.438 73.3391 112.757 73.0253 112.503C72.6273 112.181 72.7033 112.009 73.2888 111.908C73.8255 111.816 74.0774 112.196 74.0137 113.002ZM81.8426 113.846C81.7528 115.039 81.7982 115.926 81.9494 115.926C82.0943 115.926 82.2127 116.315 82.2127 116.792C82.2127 118.142 81.2095 117.496 80.9906 116.005C80.8391 114.972 80.6755 114.941 80.2652 115.866C79.9735 116.523 79.615 116.749 79.4682 116.366C79.1721 115.595 80.8374 111.985 81.5507 111.851C81.89 111.788 81.961 112.273 81.8426 113.846ZM128.477 112.807C128.561 113.378 128.512 113.846 128.368 113.846C128.224 113.846 128.107 113.378 128.107 112.807C128.107 112.235 128.156 111.767 128.216 111.767C128.276 111.767 128.393 112.235 128.477 112.807ZM130.821 112.225C130.821 112.478 130.71 112.973 130.574 113.326C130.438 113.68 130.327 113.473 130.327 112.868C130.327 112.263 130.438 111.767 130.574 111.767C130.71 111.767 130.821 111.973 130.821 112.225ZM166.912 112.449C166.745 112.734 166.412 112.751 166.171 112.487C165.931 112.223 166.068 111.99 166.475 111.97C166.882 111.949 167.079 112.164 166.912 112.449ZM168.259 112.395C168.177 112.74 167.964 112.777 167.786 112.477C167.589 112.145 167.648 111.899 167.935 111.849C168.195 111.804 168.341 112.05 168.259 112.395ZM70.7392 113.846C70.8231 114.418 70.774 114.886 70.6304 114.886C70.4868 114.886 70.3691 114.418 70.3691 113.846C70.3691 113.274 70.4179 112.807 70.4779 112.807C70.5379 112.807 70.6553 113.274 70.7392 113.846ZM99.9113 113.434C99.8294 113.78 99.6164 113.817 99.4385 113.517C99.2416 113.185 99.3001 112.939 99.5876 112.889C99.8476 112.844 99.9932 113.089 99.9113 113.434ZM101.145 113.434C101.063 113.78 100.85 113.817 100.672 113.517C100.475 113.185 100.534 112.939 100.821 112.889C101.081 112.844 101.227 113.089 101.145 113.434ZM103.433 114.366C103.433 115.224 103.544 115.926 103.679 115.926C103.815 115.926 103.926 115.341 103.926 114.626C103.925 113.661 104.467 113.414 106.026 113.663C107.297 113.867 108.069 114.397 107.98 115.005C107.899 115.558 107.637 115.748 107.397 115.428C107.158 115.107 106.639 115.554 106.246 116.419C105.612 117.813 105.521 117.815 105.45 116.439C105.361 114.703 104.287 114.309 104.049 115.926C103.884 117.054 102.867 117.353 102.627 116.343C102.387 115.332 102.717 112.807 103.089 112.807C103.278 112.807 103.433 113.508 103.433 114.366ZM126.133 114.366C125.873 115.686 125.927 115.926 126.487 115.926C126.866 115.926 127.084 116.371 126.996 116.965C126.913 117.537 126.61 118.005 126.324 118.005C126.038 118.005 125.883 118.34 125.98 118.748C126.077 119.157 127.055 119.347 128.154 119.172C129.938 118.888 130.134 119.039 129.992 120.596C129.888 121.741 129.939 122.174 130.142 121.861C130.312 121.598 130.423 120.858 130.389 120.214C130.355 119.571 130.612 119.045 130.959 119.045C131.317 119.045 131.524 119.495 131.438 120.084C131.354 120.656 131.403 121.124 131.547 121.124C131.69 121.124 131.808 120.656 131.808 120.084C131.808 118.354 132.731 118.92 132.898 120.753C132.983 121.693 133.016 122.618 132.971 122.809C132.925 122.999 131.794 123.283 130.457 123.439C128.681 123.646 127.997 123.373 127.922 122.423C127.865 121.709 127.599 121.124 127.332 121.124C127.063 121.124 126.913 121.592 126.996 122.164C127.086 122.77 126.835 123.203 126.394 123.203C125.979 123.203 125.639 122.735 125.639 122.164C125.639 121.592 125.229 121.124 124.726 121.124C123.728 121.124 123.856 119.461 124.899 118.873C125.363 118.611 125.535 117.816 125.594 115.666C125.642 113.913 125.821 112.807 126.056 112.807C126.369 112.807 126.384 113.093 126.133 114.366ZM150.684 115.204C150.955 115.502 150.65 115.699 150.005 115.642C149.361 115.585 148.833 115.125 148.833 114.622C148.833 114.118 149.069 114.022 149.357 114.408C149.758 114.943 149.834 114.777 149.68 113.698C149.522 112.588 149.555 112.54 149.834 113.474C150.03 114.128 150.412 114.906 150.684 115.204ZM119.841 114.886C119.757 115.458 119.584 115.926 119.456 115.926C119.328 115.926 119.224 115.458 119.224 114.886C119.224 114.314 119.397 113.846 119.609 113.846C119.82 113.846 119.925 114.314 119.841 114.886ZM93.5629 115.926C94.0413 117.228 94.3031 117.228 94.3031 115.926C94.3031 115.354 94.0531 114.893 93.7479 114.901C93.2991 114.915 93.2636 115.11 93.5629 115.926ZM116.757 116.377C116.757 117.221 117.051 118.026 117.435 118.233C117.979 118.526 117.912 118.696 117.096 119.097C116.168 119.551 116.078 119.387 116.078 117.241C116.078 115.936 116.229 114.886 116.417 114.886C116.604 114.886 116.757 115.556 116.757 116.377ZM124.406 115.771C124.406 116.293 123.959 116.746 123.414 116.778C122.868 116.809 122.472 116.494 122.533 116.078C122.698 114.949 124.406 114.669 124.406 115.771ZM47.5454 116.965C47.6293 117.537 47.5247 118.005 47.3132 118.005C47.1018 118.005 46.9286 117.537 46.9286 116.965C46.9286 116.393 47.0329 115.926 47.1608 115.926C47.2886 115.926 47.4615 116.393 47.5454 116.965ZM96.5238 117.027C96.5238 117.632 96.4004 117.806 96.2494 117.413C96.0986 117.02 95.8783 117.344 95.7599 118.132C95.5894 119.265 95.5435 119.184 95.5405 117.745C95.5383 116.614 95.7233 115.926 96.0303 115.926C96.3017 115.926 96.5238 116.421 96.5238 117.027ZM99.9782 116.705C99.9782 117.134 99.7112 117.485 99.3847 117.485C99.0585 117.485 98.8432 117.134 98.9061 116.705C98.9688 116.277 99.2357 115.926 99.4992 115.926C99.7628 115.926 99.9782 116.277 99.9782 116.705ZM146.983 116.965C146.899 117.537 146.587 117.972 146.289 117.932C145.768 117.861 145.767 117.827 146.242 116.965C146.921 115.735 147.163 115.735 146.983 116.965ZM165.118 116.965C165.118 117.537 165.368 118.012 165.673 118.02C165.979 118.03 166.395 118.49 166.599 119.045C166.871 119.788 166.677 120.11 165.858 120.271C165.248 120.392 164.359 120.676 163.884 120.901C163.409 121.128 159.19 121.45 154.508 121.618C149.826 121.785 146.662 121.573 147.476 121.146C148.29 120.719 149.512 120.079 150.19 119.723C152.797 118.358 155.959 118.003 156.114 119.056C156.199 119.64 156.383 119.821 156.523 119.458C156.662 119.097 157.035 119.385 157.353 120.1C157.67 120.815 158.131 121.06 158.378 120.645C158.624 120.229 159.624 119.807 160.599 119.707C161.574 119.607 162.445 119.219 162.534 118.845C162.622 118.472 163.073 118.425 163.536 118.741C164.206 119.198 164.378 118.97 164.378 117.621C164.378 116.689 164.544 115.926 164.748 115.926C164.952 115.926 165.118 116.393 165.118 116.965ZM172.377 117.225C172.492 118.265 172.549 118.265 172.664 117.225C172.819 115.828 174.879 115.383 175.073 116.705C175.136 117.134 174.698 117.321 174.101 117.12C173.422 116.892 173.014 117.186 173.014 117.9C173.014 119.634 171.853 119.27 171.691 117.485C171.518 115.589 172.168 115.342 172.377 117.225ZM115.153 118.005C115.069 118.577 114.702 119.011 114.336 118.972C113.743 118.906 113.725 118.802 114.166 118.005C114.851 116.764 115.335 116.764 115.153 118.005ZM138.347 118.005C138.263 118.577 138.423 119.045 138.702 119.045C138.981 119.045 139.21 118.577 139.21 118.005C139.21 116.777 139.688 117.055 140.095 118.518C140.467 119.861 139.2 122.23 138.514 121.474C138.249 121.182 137.957 121.451 137.866 122.073C137.775 122.695 137.534 123.203 137.331 123.203C137.127 123.203 137.034 122.699 137.125 122.084C137.238 121.308 136.94 121.184 136.152 121.681C135.463 122.117 135.016 122.001 135.016 121.387C135.016 120.831 135.652 120.098 136.43 119.76C137.209 119.422 137.884 118.655 137.931 118.055C137.979 117.456 138.126 116.965 138.258 116.965C138.391 116.965 138.43 117.433 138.347 118.005ZM145.401 117.924C145.21 118.434 144.727 118.678 144.327 118.464C143.768 118.166 143.572 118.547 143.474 120.121C143.404 121.244 143.253 122.164 143.137 122.164C142.871 122.164 143.158 118.778 143.51 117.761C143.656 117.341 144.219 116.997 144.762 116.997C145.435 116.997 145.639 117.292 145.401 117.924ZM58.5255 118.923C58.5255 120.161 57.5716 121.15 57.4139 120.076C57.345 119.606 57.4282 118.985 57.5987 118.695C58.104 117.836 58.5255 117.94 58.5255 118.923ZM61.7331 119.045C61.7331 119.616 61.6287 120.084 61.5009 120.084C61.3731 120.084 61.2001 119.616 61.1163 119.045C61.0324 118.473 61.137 118.005 61.3484 118.005C61.5599 118.005 61.7331 118.473 61.7331 119.045ZM66.1745 118.931C66.1745 120.503 64.3728 120.838 63.7137 119.389C63.1363 118.119 63.2044 118.017 64.6323 118.011C65.4806 118.008 66.1745 118.422 66.1745 118.931ZM66.9332 119.33C66.9026 120.574 66.5643 120.333 66.4582 118.993C66.4039 118.306 66.4928 117.932 66.6556 118.161C66.8185 118.39 66.9433 118.916 66.9332 119.33ZM69.1181 122.605C69.1275 123.135 68.9296 122.667 68.6779 121.566C68.3678 120.209 68.3081 119.325 68.4929 118.823C68.7399 118.149 69.0742 120.172 69.1181 122.605ZM71.2125 118.636C71.7146 119.448 71.7185 121.124 71.2181 121.124C71.0067 121.124 70.8979 121.564 70.9768 122.1C71.0555 122.638 70.8961 123.007 70.6225 122.919C70.1108 122.757 70.0311 120.229 70.4925 118.8C70.7947 117.865 70.7427 117.876 71.2125 118.636ZM168.079 119.045C168.079 119.616 167.885 120.077 167.647 120.069C167.278 120.055 167.269 119.905 167.586 119.045C168.051 117.776 168.079 117.776 168.079 119.045ZM73.7097 120.663C73.0786 121.755 73.045 121.997 73.463 122.444C73.8541 122.863 73.8282 122.985 73.3278 123.083C72.9705 123.152 72.589 122.396 72.4259 121.298C72.1671 119.551 72.2399 119.392 73.292 119.396C74.4297 119.4 74.4334 119.412 73.7097 120.663ZM77.1015 121.862C77.2009 124.054 77.1424 124.334 76.6924 123.825C76.4037 123.498 75.7234 123.211 75.1806 123.186C74.3819 123.149 74.277 122.935 74.6306 122.068C74.8709 121.478 75.0056 120.574 74.9299 120.057C74.8541 119.542 75.2857 119.161 75.8887 119.212C76.8498 119.293 76.9998 119.621 77.1015 121.862ZM84.3517 121.709C84.6081 123.186 84.748 123.333 84.9772 122.367C85.388 120.636 85.9139 120.813 85.9139 122.683C85.9139 123.899 85.6005 124.225 84.4951 124.161C83.7146 124.116 83.2152 123.843 83.3847 123.555C84.1102 122.321 83.5937 121.124 82.3361 121.124C80.8682 121.124 80.4734 122.807 81.7809 123.491C82.2796 123.751 82.0518 123.973 81.1786 124.077C80.3905 124.17 79.7016 123.747 79.6086 123.113C79.4892 122.299 79.3678 122.299 79.1746 123.113C79.027 123.734 78.7398 124.243 78.5363 124.243C78.2626 124.243 78.2384 123.938 78.443 123.076C78.5952 122.435 78.6584 121.235 78.5831 120.41C78.4677 119.141 78.8775 118.979 81.2341 119.359C83.5733 119.735 84.0749 120.112 84.3517 121.709ZM89.8605 121.384C89.8625 122.545 88.1878 122.328 88.0141 121.144C87.9238 120.529 88.2601 120.219 88.8619 120.364C89.4104 120.496 89.8598 120.955 89.8605 121.384ZM98.7445 121.063C98.7445 121.601 98.6337 122.329 98.4984 122.681C98.0679 123.802 91.4029 123.287 90.8487 122.091C90.5669 121.483 93.6233 120.412 96.092 120.254C97.6134 120.157 98.7445 120.501 98.7445 121.063ZM109.565 121.666C109.825 122.761 109.358 123.133 107.057 123.66C104.697 124.201 102.199 122.877 102.199 121.084C102.199 120.171 109.344 120.735 109.565 121.666ZM118.36 122.126C116.769 122.725 115.572 122.284 115.968 121.244C116.103 120.892 117.029 120.821 118.027 121.086L119.841 121.569L118.36 122.126ZM122.678 121.124C122.678 121.696 122.63 122.164 122.57 122.164C122.51 122.164 122.392 121.696 122.308 121.124C122.224 120.552 122.274 120.084 122.417 120.084C122.561 120.084 122.678 120.552 122.678 121.124ZM128.23 121.124C128.146 121.696 128.251 122.164 128.462 122.164C128.674 122.164 128.847 121.696 128.847 121.124C128.847 120.552 128.743 120.084 128.615 120.084C128.487 120.084 128.314 120.552 128.23 121.124ZM179.383 120.794C179.561 121.095 179.774 121.057 179.856 120.712C179.938 120.367 179.792 120.122 179.532 120.166C179.245 120.216 179.186 120.463 179.383 120.794ZM121.582 122.066C121.506 122.584 121.222 122.763 120.951 122.464C120.272 121.716 120.333 121.124 121.089 121.124C121.436 121.124 121.658 121.548 121.582 122.066ZM134.337 121.812C134.168 122.101 133.89 122.101 133.72 121.812C133.551 121.524 133.689 121.288 134.029 121.288C134.368 121.288 134.507 121.524 134.337 121.812ZM145.687 121.812C145.518 122.101 145.24 122.101 145.07 121.812C144.901 121.524 145.039 121.288 145.379 121.288C145.718 121.288 145.857 121.524 145.687 121.812ZM177.579 126.322C177.663 126.894 177.78 127.362 177.84 127.362C177.9 127.362 177.949 126.894 177.949 126.322C177.949 125.75 177.831 125.283 177.687 125.283C177.544 125.283 177.495 125.75 177.579 126.322ZM184.071 125.993C184.249 126.293 184.462 126.256 184.544 125.911C184.626 125.565 184.48 125.32 184.22 125.365C183.933 125.415 183.874 125.661 184.071 125.993ZM83.1992 139.058C83.1994 139.487 80.9511 139.751 78.2032 139.645C74.7443 139.51 73.8521 139.27 75.3039 138.865C78.3167 138.023 83.1987 138.142 83.1992 139.058ZM85.6671 139.44C85.6671 139.658 85.1398 139.783 84.4951 139.715C83.4871 139.609 83.4267 139.493 84.0633 138.884C84.7549 138.221 85.6671 138.538 85.6671 139.44ZM72.8982 139.487C72.7287 139.776 72.4511 139.776 72.2813 139.487C72.1118 139.199 72.2505 138.963 72.5898 138.963C72.929 138.963 73.068 139.199 72.8982 139.487ZM50.5673 141.703C50.7383 142.177 49.7259 142.592 48.2879 142.637C46.8649 142.681 45.7454 142.413 45.8002 142.04C45.9497 141.021 50.2125 140.721 50.5673 141.703ZM163.345 142.627C163.523 142.928 163.736 142.89 163.818 142.545C163.899 142.2 163.754 141.955 163.494 141.999C163.206 142.049 163.148 142.296 163.345 142.627ZM145.312 143.585C145.23 143.93 145.017 143.967 144.839 143.667C144.642 143.335 144.701 143.089 144.988 143.039C145.248 142.994 145.394 143.24 145.312 143.585ZM59.5605 145.812C61.0119 145.995 63.4546 145.996 64.9889 145.813C66.5231 145.63 65.3355 145.48 62.35 145.479C59.3644 145.478 58.1092 145.628 59.5605 145.812ZM81.6743 146.303C81.8058 146.857 82.1197 147.127 82.3716 146.901C82.7109 146.599 82.6487 146.337 82.1323 145.894C81.682 145.506 81.5199 145.652 81.6743 146.303ZM158.163 145.746C158.341 146.047 158.554 146.009 158.636 145.664C158.718 145.319 158.572 145.074 158.312 145.118C158.025 145.168 157.966 145.415 158.163 145.746ZM83.6344 146.811C83.9414 147.059 84.3855 147.05 84.6214 146.79C84.8573 146.53 84.6061 146.327 84.0633 146.338C83.5205 146.349 83.3275 146.563 83.6344 146.811ZM87.0888 146.811C87.3958 147.059 87.8399 147.05 88.0758 146.79C88.3117 146.53 88.0605 146.327 87.5177 146.338C86.9748 146.349 86.7819 146.563 87.0888 146.811ZM94.7393 146.83C95.1827 147.061 95.8489 147.056 96.2198 146.819C96.5906 146.581 96.2277 146.392 95.4134 146.398C94.5992 146.403 94.2959 146.598 94.7393 146.83ZM98.3161 146.822C98.6912 147.061 99.2463 147.054 99.5498 146.808C99.8533 146.561 99.5464 146.366 98.8678 146.373C98.1893 146.382 97.9411 146.583 98.3161 146.822ZM130.636 146.792C130.873 147.054 131.262 147.054 131.499 146.792C131.737 146.531 131.543 146.317 131.068 146.317C130.593 146.317 130.399 146.531 130.636 146.792ZM134.707 146.764C134.877 147.053 135.154 147.053 135.324 146.764C135.494 146.476 135.355 146.24 135.016 146.24C134.676 146.24 134.538 146.476 134.707 146.764Z" fill="#5DA399"/>
<path d="M58.04 101.432C52.6213 101.432 47.864 100.28 43.768 97.976C39.7147 95.7147 36.5573 92.4933 34.296 88.312C32.0347 84.1307 30.904 79.2027 30.904 73.528C30.904 69.3467 31.5653 65.528 32.888 62.072C34.2533 58.616 36.1733 55.6507 38.648 53.176C41.1653 50.6587 44.1307 48.7173 47.544 47.352C50.9573 45.9867 54.7333 45.304 58.872 45.304C63.8213 45.304 68.152 46.3067 71.864 48.312C75.576 50.2747 78.456 53.0267 80.504 56.568C82.5947 60.1093 83.64 64.248 83.64 68.984C83.64 72.696 83.128 75.9173 82.104 78.648C81.1227 81.3787 79.7147 83.4907 77.88 84.984C76.0453 86.4773 73.912 87.224 71.48 87.224C69.3893 87.224 67.704 86.7333 66.424 85.752C65.144 84.728 64.376 83.32 64.12 81.528C62.9253 83.4053 61.4747 84.8347 59.768 85.816C58.104 86.7547 56.3333 87.224 54.456 87.224C51.1707 87.224 48.6107 86.2 46.776 84.152C44.984 82.0613 44.088 79.2027 44.088 75.576C44.088 72.4613 44.6853 69.688 45.88 67.256C47.0747 64.7813 48.7173 62.84 50.808 61.432C52.8987 60.024 55.2667 59.32 57.912 59.32C62.008 59.32 64.7173 60.984 66.04 64.312L66.808 59.896H71.032L68.152 76.472C67.9813 77.5813 67.896 78.584 67.896 79.48C67.896 82.3387 69.176 83.768 71.736 83.768C74.168 83.768 76.152 82.424 77.688 79.736C79.224 77.0053 79.992 73.4213 79.992 68.984C79.992 64.9307 79.096 61.4107 77.304 58.424C75.5547 55.4373 73.1013 53.112 69.944 51.448C66.7867 49.784 63.0747 48.952 58.808 48.952C54.072 48.952 49.912 49.976 46.328 52.024C42.744 54.072 39.9493 56.952 37.944 60.664C35.9387 64.3333 34.936 68.6213 34.936 73.528C34.936 78.6053 35.8747 82.9573 37.752 86.584C39.6293 90.2107 42.296 92.984 45.752 94.904C49.208 96.8667 53.304 97.848 58.04 97.848C61.496 97.848 64.6107 97.2933 67.384 96.184C70.2 95.1173 72.5253 93.6027 74.36 91.64L76.472 94.712C74.3813 96.888 71.736 98.552 68.536 99.704C65.3787 100.856 61.88 101.432 58.04 101.432ZM55.032 83.512C56.952 83.512 58.6373 82.9573 60.088 81.848C61.5813 80.696 62.7547 79.1173 63.608 77.112C64.4613 75.1067 64.888 72.8027 64.888 70.2C64.888 65.4213 62.712 63.032 58.36 63.032C56.4827 63.032 54.7973 63.5867 53.304 64.696C51.8107 65.7627 50.616 67.2347 49.72 69.112C48.8667 70.9893 48.44 73.144 48.44 75.576C48.44 78.136 49.016 80.0987 50.168 81.464C51.32 82.8293 52.9413 83.512 55.032 83.512ZM108.171 91.576C105.696 91.576 103.52 91.0213 101.643 89.912C99.8078 88.8027 98.4212 87.288 97.4825 85.368V91H92.4265V45.88H97.6105V65.272C98.5065 63.4373 99.8932 61.9867 101.771 60.92C103.648 59.8533 105.781 59.32 108.171 59.32C110.944 59.32 113.355 59.9813 115.403 61.304C117.493 62.584 119.093 64.44 120.203 66.872C121.355 69.2613 121.931 72.12 121.931 75.448C121.931 78.7333 121.355 81.592 120.203 84.024C119.093 86.4133 117.493 88.2693 115.403 89.592C113.355 90.9147 110.944 91.576 108.171 91.576ZM107.083 87.416C109.984 87.416 112.309 86.392 114.059 84.344C115.808 82.2533 116.683 79.288 116.683 75.448C116.683 71.5653 115.808 68.6 114.059 66.552C112.309 64.504 109.984 63.48 107.083 63.48C104.181 63.48 101.856 64.504 100.107 66.552C98.3572 68.6 97.4825 71.5653 97.4825 75.448C97.4825 79.288 98.3572 82.2533 100.107 84.344C101.856 86.392 104.181 87.416 107.083 87.416ZM140.235 91.576C137.803 91.576 135.499 91.2347 133.323 90.552C131.147 89.8693 129.355 88.9093 127.947 87.672L129.611 84.024C131.147 85.2613 132.832 86.1787 134.667 86.776C136.544 87.3307 138.443 87.608 140.363 87.608C142.795 87.608 144.63 87.16 145.867 86.264C147.104 85.368 147.723 84.152 147.723 82.616C147.723 81.4213 147.318 80.4827 146.507 79.8C145.696 79.0747 144.416 78.52 142.667 78.136L136.843 76.856C131.552 75.704 128.907 72.9733 128.907 68.664C128.907 65.848 130.016 63.5867 132.235 61.88C134.496 60.1733 137.44 59.32 141.067 59.32C143.2 59.32 145.227 59.6613 147.147 60.344C149.11 60.984 150.731 61.944 152.011 63.224L150.283 66.872C149.046 65.72 147.595 64.8453 145.931 64.248C144.31 63.608 142.688 63.288 141.067 63.288C138.678 63.288 136.864 63.7573 135.627 64.696C134.39 65.6347 133.771 66.872 133.771 68.408C133.771 70.7973 135.35 72.3333 138.507 73.016L144.331 74.232C147.062 74.8293 149.131 75.7893 150.539 77.112C151.947 78.392 152.651 80.1413 152.651 82.36C152.651 85.2187 151.52 87.48 149.259 89.144C146.998 90.7653 143.99 91.576 140.235 91.576Z" fill="white"/>
</svg>
