<svg width="481" height="87" viewBox="0 0 481 87" fill="none" xmlns="http://www.w3.org/2000/svg">
<path fill-rule="evenodd" clip-rule="evenodd" d="M346.604 0.332777C341.704 0.572099 337.419 0.853763 337.082 0.95931C336.744 1.06424 338.817 1.32382 341.689 1.53552C346.896 1.91967 346.888 1.92089 338.925 2.1099C334.532 2.21422 328.036 2.51674 324.488 2.78184C320.025 3.11566 322.296 3.17642 331.86 2.97882C353.717 2.52779 376.16 2.12892 379.046 2.13935C380.657 2.14549 381.545 1.90862 381.314 1.53552C381.064 1.13236 386.439 0.921877 396.979 0.921877C408.369 0.921877 412.905 1.11517 412.612 1.5883C412.353 2.00803 412.737 2.20194 413.651 2.11112C414.449 2.03135 415.517 2.13015 416.024 2.33081C416.531 2.53086 421.092 2.98987 426.16 3.35069C431.229 3.71151 436.412 4.2503 437.679 4.54791C438.946 4.84492 439.983 4.85965 439.983 4.58044C439.983 3.88334 438.356 3.47771 428.925 1.82148C427.742 1.61407 425.531 1.15875 424.01 0.810194C420.735 0.0590905 359.907 -0.315848 346.604 0.332777ZM159.539 0.978945C156.651 1.32075 156.734 1.34836 160.921 1.43918C165.33 1.5343 166.663 1.27472 163.992 0.840262C163.232 0.716306 161.228 0.778897 159.539 0.978945ZM152.781 1.28086C152.105 1.38579 149.134 1.64905 146.177 1.86566C143.221 2.08228 140.801 2.46274 140.801 2.71188C140.801 2.96041 141.699 3.0543 142.798 2.91991C144.329 2.73275 144.579 2.82664 143.873 3.32369C143.173 3.81584 143.615 3.95636 145.716 3.90788C148.237 3.8502 148.318 3.80356 146.637 3.37646L144.794 2.90825L147.047 2.83523C148.286 2.79534 149.392 3.00889 149.505 3.31019C149.621 3.62131 151.961 3.65935 154.931 3.39794C160.563 2.90334 160.466 2.66709 154.624 2.6542C152.597 2.64929 151.629 2.51061 152.474 2.34554C153.925 2.06203 155.889 0.820013 154.593 1.00533C154.272 1.05136 153.457 1.17531 152.781 1.28086ZM364.599 1.37536C362.501 1.49502 358.907 1.49564 356.613 1.3772C354.317 1.25938 356.034 1.1612 360.426 1.16059C364.819 1.15936 366.696 1.25631 364.599 1.37536ZM373.174 1.32811C372.752 1.4987 372.061 1.4987 371.638 1.32811C371.216 1.15813 371.561 1.01883 372.406 1.01883C373.251 1.01883 373.597 1.15813 373.174 1.32811ZM419.863 1.94176C419.441 2.11235 418.75 2.11235 418.328 1.94176C417.905 1.77178 418.251 1.63248 419.095 1.63248C419.94 1.63248 420.286 1.77178 419.863 1.94176ZM424.175 1.93807C423.759 2.10621 422.93 2.11665 422.332 1.96078C421.735 1.80492 422.075 1.66746 423.089 1.65518C424.102 1.64291 424.591 1.76994 424.175 1.93807ZM161.228 2.57197C161.819 2.72661 162.787 2.72661 163.378 2.57197C163.969 2.41795 163.486 2.29154 162.303 2.29154C161.12 2.29154 160.637 2.41795 161.228 2.57197ZM167.064 2.5554C167.487 2.726 168.178 2.726 168.6 2.5554C169.023 2.38542 168.677 2.24613 167.832 2.24613C166.987 2.24613 166.642 2.38542 167.064 2.5554ZM49.4532 3.56915C49.2763 3.85511 46.0516 4.03245 42.287 3.96311C35.4562 3.83854 23.492 4.74183 21.4782 5.53466C20.8043 5.79975 20.4621 6.51895 20.5432 7.49894C20.6814 9.16683 20.7766 9.22636 24.231 9.7995C27.0582 10.2689 27.2861 11.2618 24.5382 11.1373C22.7087 11.0544 22.5564 11.1882 22.7185 12.7346C22.8734 14.2122 22.6823 14.4233 21.1827 14.4313C19.0344 14.4436 18.2775 14.9891 18.108 16.6484C17.998 17.7278 18.3967 18.0211 20.4117 18.3427C23.6732 18.8637 23.4969 19.7123 20.0462 20.1008C17.3204 20.4076 13.9311 22.618 14.5798 23.6661C14.7408 23.9269 14.0429 24.3227 13.0286 24.5454C11.4344 24.8952 11.303 25.0683 12.058 25.8224C12.5384 26.3023 13.2971 26.6993 13.7437 26.7042C14.3556 26.7116 14.3341 26.8534 13.6565 27.2817C13.0268 27.6793 13.7449 27.9058 16.0579 28.0389C19.3182 28.2267 19.3581 28.2525 19.4134 30.2235C19.4448 31.3207 19.2623 32.2179 19.0092 32.2179C18.7561 32.2179 18.5484 32.7701 18.5484 33.4451C18.5484 34.3546 18.111 34.6939 16.859 34.7559C15.3864 34.8289 15.349 34.8737 16.5678 35.1075C18.3488 35.4487 21.5882 37.1184 20.4793 37.1233C20.0106 37.1252 19.7931 37.5099 19.9823 38.0027C20.4824 39.3042 19.266 40.0063 15.223 40.75C11.6058 41.4152 10.0472 42.0362 11.9953 42.0362C12.5587 42.0362 13.0194 42.4504 13.0194 42.9567C13.0194 43.6728 12.2005 43.8771 9.33339 43.8771C5.35864 43.8771 4.1226 45.0492 7.95114 45.1879C9.37701 45.2394 9.72841 45.3726 8.87264 45.5377C8.11209 45.6837 7.49039 46.0415 7.49039 46.333C7.49039 46.6244 6.93318 47.0393 6.2525 47.2553C5.57182 47.4707 5.16758 47.8935 5.35311 48.1935C5.53925 48.4942 4.783 49.0017 3.6729 49.3214C1.9288 49.824 2.28082 49.913 6.26171 49.9768C10.9927 50.0529 11.1684 50.699 6.67762 51.5054C4.68656 51.8625 4.44389 52.0663 5.0871 52.8401C5.69775 53.5752 5.94902 53.5979 6.37291 52.9573C6.78206 52.3381 7.10458 52.4301 7.82212 53.3703C8.66806 54.4779 8.62813 54.6295 7.3497 55.1817C6.15543 55.6972 6.44171 55.8322 9.33339 56.1206C12.3658 56.4225 12.5783 56.5336 11.4068 57.2043C10.6892 57.6155 8.8923 58.1358 7.41359 58.3604C2.81775 59.0588 2.55297 59.7902 6.87605 59.8461L10.8692 59.897L5.64738 61.8588L0.425522 63.8207L3.4972 64.1275L6.56888 64.4343L2.94922 65.2646C0.419994 65.8451 -0.412431 66.2581 0.184704 66.6361C0.655285 66.9337 1.59276 67.2006 2.26853 67.2295C3.4886 67.2816 3.4886 67.2853 2.27959 67.7572C1.39618 68.1014 2.1555 68.3776 5.0441 68.7623C8.6521 69.2422 8.79524 69.3128 6.56888 69.5122C5.21734 69.6331 3.84922 69.9903 3.52792 70.3051C3.16608 70.6597 5.734 70.896 10.2856 70.9261C15.9553 70.9635 17.2424 71.1151 15.9375 71.5906C14.9583 71.9484 14.2481 72.6664 14.2481 73.2997C14.2481 74.1858 13.1742 74.6104 8.57346 75.5431C5.45263 76.1758 3.41979 76.7938 4.05563 76.9159C4.98082 77.0938 5.04042 77.2466 4.3542 77.6805C3.72389 78.0793 3.90328 78.2272 5.03304 78.2413C5.87775 78.2518 6.97557 78.5175 7.47318 78.8317C8.47824 79.4662 8.21715 79.6214 4.94704 80.3327C4.05502 80.5266 3.17529 81.0764 2.9916 81.555C2.71147 82.2828 3.77304 82.3785 9.52814 82.1417C14.6056 81.933 16.1581 82.0349 15.4768 82.532C14.6996 83.0996 14.7482 83.1898 15.7839 83.1076C17.837 82.9431 18.2867 83.1395 17.3198 83.7777C16.6931 84.1913 17.5772 84.2453 20.0843 83.947C24.6734 83.4003 24.4387 83.3941 34.8283 84.3416C41.1953 84.9221 50.5289 85.0166 70.767 84.7067C87.566 84.449 103.315 84.5374 111.62 84.935C138.992 86.2476 141.715 86.3396 141.323 85.9359C141.104 85.7094 138.063 85.3744 134.566 85.1915C131.069 85.0093 127.944 84.6128 127.624 84.3122C126.824 83.5617 179.723 83.62 198.38 84.3901C209.082 84.8319 289.915 85.6965 318.037 85.6701C324.311 85.664 351.676 84.8884 352.931 84.681C353.968 84.5091 354.503 84.6362 354.278 85.0007C354.072 85.3333 354.18 85.6051 354.518 85.6051C354.856 85.6051 355.303 85.329 355.512 84.9915C356.009 84.187 358.276 84.1962 358.276 85.0025C358.276 85.6965 372.789 85.7376 383.387 85.0743C388.239 84.7705 389.831 84.8595 390.056 85.4468C390.22 85.8714 390.754 86.2187 391.245 86.2187C391.736 86.2187 391.966 85.9426 391.758 85.6051C391.549 85.2676 391.878 84.9442 392.489 84.8865C393.1 84.8288 394.015 84.7202 394.522 84.6447C395.029 84.5699 396.964 84.4748 398.822 84.4337C400.881 84.3882 401.887 84.1593 401.395 83.8488C400.598 83.3438 404.956 82.8738 417.252 82.1398C423.435 81.771 426.232 80.7634 421.522 80.6027C420.019 80.5511 418.512 80.4449 418.174 80.3664C417.836 80.2879 414.933 80.1541 411.723 80.0694L405.887 79.9141L409.88 79.4367C412.077 79.1741 416.591 78.8728 419.913 78.7679C423.235 78.6623 426.085 78.3628 426.246 78.102C426.408 77.8412 427.093 77.6277 427.769 77.6277C428.444 77.6277 428.849 77.3878 428.667 77.0938C428.484 76.7974 427.17 76.7858 425.713 77.0674C422.772 77.6357 419.968 77.7787 420.41 77.3381C421.001 76.7465 433.729 74.5558 434.61 74.8933C435.125 75.0903 435.684 74.8258 435.891 74.2876C436.152 73.6095 437.199 73.3033 439.503 73.2322L442.747 73.1321L439.369 72.7701C436.71 72.4847 436.342 72.3295 437.643 72.0417C438.553 71.8398 440.627 71.8803 442.251 72.1307C443.875 72.381 445.267 72.5301 445.344 72.462C445.421 72.3933 445.043 71.7097 444.505 70.942C443.857 70.0179 443.321 69.7528 442.916 70.1566C442.512 70.5609 441.654 70.5505 440.376 70.1246C436.944 68.9826 437.486 68.7255 442.855 68.9495C446.601 69.1054 448.002 68.9722 447.703 68.4893C447.444 68.0708 447.829 67.7879 448.701 67.7541C449.964 67.705 443.927 66.4796 439.061 65.7972C438.048 65.6548 439.292 65.4928 441.826 65.4376C444.36 65.3818 446.848 65.0682 447.355 64.7411C448.119 64.2478 448.067 64.1428 447.048 64.1275C446.372 64.117 445.404 63.817 444.898 63.4604C444.224 62.9867 444.76 62.9168 446.892 63.2009C450.705 63.7077 451.511 63.172 449.751 61.3016C448.973 60.4732 448.7 59.8319 449.127 59.8319C449.544 59.8319 449.714 59.5558 449.505 59.2183C449.296 58.8808 447.967 58.6004 446.551 58.5955C445.135 58.5899 443.561 58.2978 443.055 57.9456C442.392 57.4854 443.037 57.4179 445.358 57.7063C448.64 58.1131 449.882 57.2957 447.201 56.4925C445.853 56.0887 445.849 56.0642 447.048 55.4892C448.021 55.0228 447.827 54.9535 446.11 55.1572C443.637 55.4511 441.04 54.1281 442.779 53.4611C443.324 53.2524 444.266 53.0818 444.872 53.0818C445.479 53.0818 446.32 52.6676 446.741 52.1614C447.341 51.4385 447.343 51.2409 446.75 51.2409C446.331 51.2409 446.152 50.831 446.349 50.3204C446.575 49.7289 446.325 49.3846 445.646 49.357C444.77 49.3208 444.8 49.2281 445.819 48.8109C446.961 48.3433 446.925 48.2598 445.318 47.6265C444.367 47.2522 443.192 46.9454 442.707 46.9454C442.223 46.9454 441.826 46.6692 441.826 46.3317C441.826 45.9942 443.415 45.6911 445.358 45.6586L448.891 45.599L446.587 44.6546C444.089 43.6311 443.636 42.4252 445.396 41.4845C446.008 41.1575 449.602 40.6942 453.383 40.4548C457.163 40.2161 460.256 39.8068 460.256 39.5454C460.256 39.284 459.495 38.7931 458.567 38.4537C457.152 37.9383 457.603 37.8297 461.331 37.7892C463.858 37.7615 465.785 37.475 465.785 37.127C465.785 36.7895 465.215 36.5134 464.52 36.5134C463.825 36.5134 463.419 36.2495 463.618 35.9267C463.818 35.604 464.387 35.4953 464.883 35.6856C465.379 35.8752 465.785 35.7715 465.785 35.4548C465.785 35.1376 464.472 34.5706 462.867 34.1944C460.39 33.6139 461.341 33.5403 469.164 33.7059L478.379 33.9017L470.393 32.78C456.418 30.8169 456.668 30.8678 458.413 30.3456C459.834 29.9204 459.848 29.8811 458.603 29.8246C456.73 29.7393 456.254 28.6808 457.943 28.3568C458.717 28.2077 458.199 28.0524 456.775 28.0058C455.367 27.9598 454.123 27.6499 454.01 27.3173C453.898 26.9847 450.626 26.4864 446.741 26.2109C439.821 25.7199 439.729 25.6942 442.268 24.956C443.923 24.4755 448.232 24.2521 454.17 24.3386C462.764 24.4644 463.547 24.3828 464.351 23.2838C465.116 22.2363 466.145 22.0681 472.875 21.889C478.978 21.7269 480.529 21.5091 480.529 20.8151C480.529 20.3364 480.289 19.9449 479.995 19.9449C479.131 19.9449 468.648 18.096 467.474 17.737C465.255 17.0571 466.523 16.2606 469.932 16.1925C473.427 16.1225 473.438 16.1164 471.007 15.6144C469.655 15.3352 466.338 15.0701 463.635 15.0259C458.821 14.9462 452.292 14.1122 454.113 13.8085C455.846 13.5194 449.511 12.672 445.275 12.6266C441.584 12.5867 440.864 12.386 439.622 11.047L438.198 9.51293L440.78 9.4577L443.362 9.40247L441.261 8.79926C440.106 8.46789 438.655 8.3292 438.036 8.49059C437.417 8.65198 436.911 8.55442 436.911 8.27337C436.911 7.99232 436.427 7.63578 435.836 7.48114C435.245 7.32712 436.005 7.13382 437.526 7.05282L440.29 6.90493L437.526 6.43979C428.49 4.9204 364.232 4.08154 343.532 5.21311C337.619 5.5365 329.971 5.80773 326.535 5.81571C322.127 5.82675 320.198 6.05687 319.978 6.59811C319.743 7.17555 319.54 7.18844 319.154 6.64843C318.721 6.04337 305.964 5.34688 304.829 5.86603C303.72 6.37351 141.889 6.30663 130.972 5.79423C123.707 5.45304 115.414 5.06645 112.542 4.93513C109.67 4.80381 101.121 4.55221 93.546 4.37732C85.97 4.20182 76.9853 3.88518 73.58 3.67408C63.7335 3.06289 49.804 3.00214 49.4532 3.56915ZM361.233 3.18194C361.676 3.35928 362.206 3.33719 362.41 3.13346C362.614 2.92973 362.252 2.78491 361.604 2.81129C360.888 2.84075 360.743 2.98618 361.233 3.18194ZM344.646 3.79558C345.089 3.97293 345.619 3.95084 345.823 3.74711C346.027 3.54338 345.664 3.39855 345.017 3.42494C344.301 3.4544 344.156 3.59983 344.646 3.79558ZM349.561 3.79558C350.004 3.97293 350.534 3.95084 350.738 3.74711C350.942 3.54338 350.579 3.39855 349.932 3.42494C349.216 3.4544 349.07 3.59983 349.561 3.79558ZM152.32 5.03699C153.081 5.18304 154.324 5.18304 155.085 5.03699C155.845 4.89033 155.223 4.77067 153.702 4.77067C152.182 4.77067 151.56 4.89033 152.32 5.03699ZM276.735 7.46089C276.319 7.62903 275.49 7.63947 274.892 7.4836C274.294 7.32773 274.634 7.19028 275.648 7.178C276.662 7.16573 277.151 7.29275 276.735 7.46089ZM434.287 7.42899C434.083 7.63272 433.553 7.65481 433.11 7.47746C432.62 7.28171 432.766 7.13628 433.481 7.10682C434.129 7.08043 434.491 7.22525 434.287 7.42899ZM342.741 8.51882C342.951 8.72807 340.934 8.93058 338.259 8.96924C335.584 9.00728 326.346 9.17911 317.73 9.35031C309.114 9.52213 278.616 9.87498 249.957 10.1358C221.298 10.3966 196.342 10.7973 194.5 11.0274C191.115 11.4496 187.063 10.9624 187.806 10.2217C188.234 9.79521 194.049 9.68107 226.655 9.462C239.099 9.37793 247.081 9.09565 247.081 8.73912C247.081 8.41757 247.47 8.30343 247.946 8.48568C249.259 8.98887 269.718 8.90358 284.556 8.33289C299.063 7.77447 342.135 7.91254 342.741 8.51882ZM358.788 7.97943C358.346 8.42064 347.816 8.47403 347.379 8.03711C347.178 7.83645 349.732 7.67199 353.054 7.67199C356.377 7.67199 358.957 7.81006 358.788 7.97943ZM361.181 8.04263C360.977 8.24636 360.447 8.26845 360.004 8.09111C359.514 7.89536 359.66 7.74992 360.375 7.72047C361.023 7.69408 361.385 7.8389 361.181 8.04263ZM314.512 8.71948C315.276 8.86615 316.382 8.86062 316.969 8.70721C317.557 8.5538 316.931 8.43352 315.58 8.44027C314.228 8.44702 313.748 8.57282 314.512 8.71948ZM398.419 8.74587C398.575 8.99869 394.883 9.20611 390.214 9.20611C385.545 9.20611 381.517 8.99869 381.263 8.74587C381.01 8.49305 384.702 8.28564 389.468 8.28564C394.236 8.28564 398.263 8.49305 398.419 8.74587ZM401.587 8.89928C399.909 9.6197 399.437 9.6197 399.437 8.89928C399.437 8.56178 400.197 8.30527 401.126 8.32859C402.623 8.36725 402.675 8.43168 401.587 8.89928ZM289.356 9.3184C289.799 9.49575 290.329 9.47365 290.533 9.26992C290.737 9.06619 290.374 8.92138 289.727 8.94776C289.011 8.97722 288.865 9.12265 289.356 9.3184ZM293.014 9.34418C294.118 9.48041 295.777 9.47795 296.7 9.33804C297.623 9.19751 296.72 9.08583 294.692 9.08951C292.665 9.09258 291.91 9.20733 293.014 9.34418ZM169.002 10.7764C168.56 11.0495 167.948 11.1182 167.642 10.9298C167.337 10.7414 167.449 10.3634 167.89 10.0904C168.333 9.8173 168.945 9.74857 169.251 9.93696C169.556 10.1253 169.444 10.5034 169.002 10.7764ZM180.119 10.2597C180.119 10.5242 178.115 10.7077 175.665 10.6678C172.359 10.6138 171.686 10.477 173.054 10.137C175.412 9.55036 180.119 9.63259 180.119 10.2597ZM186.262 9.83509C186.262 10.4905 182.945 11.3895 182.01 10.9875C181.244 10.6586 181.363 10.4727 182.576 10.1033C184.452 9.53134 186.262 9.40002 186.262 9.83509ZM166.275 10.7752C166.078 11.0931 163.79 11.3496 161.192 11.3447C158.593 11.3391 156.79 11.1323 157.185 10.8844C158.279 10.1978 166.694 10.0965 166.275 10.7752ZM362.742 10.5291C362.326 10.6973 361.497 10.7077 360.899 10.5518C360.301 10.396 360.641 10.2585 361.655 10.2462C362.669 10.234 363.158 10.361 362.742 10.5291ZM405.734 11.1735C404.974 11.3195 403.729 11.3195 402.969 11.1735C402.209 11.0268 402.831 10.9071 404.351 10.9071C405.872 10.9071 406.494 11.0268 405.734 11.1735ZM24.6918 19.3313C24.6918 19.6688 24.5702 19.9449 24.4209 19.9449C24.2716 19.9449 23.9792 19.6688 23.7703 19.3313C23.5614 18.9938 23.6837 18.7176 24.0412 18.7176C24.3988 18.7176 24.6918 18.9938 24.6918 19.3313ZM7.98984 41.8417C8.43278 42.019 8.96295 41.9969 9.16691 41.7932C9.37087 41.5895 9.00841 41.4446 8.3609 41.471C7.6452 41.5005 7.4996 41.6459 7.98984 41.8417ZM444.731 52.2252C444.527 52.4289 443.997 52.451 443.554 52.2737C443.064 52.0779 443.209 51.9325 443.925 51.903C444.573 51.8766 444.935 52.0215 444.731 52.2252ZM13.0194 53.6955C13.0194 54.033 12.7264 54.3091 12.3688 54.3091C12.0113 54.3091 11.889 54.033 12.0979 53.6955C12.3068 53.358 12.5992 53.0818 12.7485 53.0818C12.8978 53.0818 13.0194 53.358 13.0194 53.6955ZM195.81 62.9413C196.471 64.0097 195.718 64.2361 194.875 63.2217C194.39 62.6388 194.344 62.2865 194.752 62.2865C195.11 62.2865 195.587 62.5811 195.81 62.9413ZM234.766 64.4521C235.131 64.2269 235.27 63.7857 235.075 63.4715C234.873 63.1432 236.284 62.9002 238.393 62.9002C240.514 62.9002 242.159 63.1849 242.289 63.574C242.413 63.9446 243.813 64.3944 245.4 64.573C249.354 65.0185 248.453 65.9635 244.296 65.7297C241.796 65.5892 240.938 65.7524 240.938 66.3685C240.938 67.4105 238.69 67.4614 238.273 66.4287C238.094 65.9838 237.943 66.128 237.915 66.7717C237.888 67.3823 237.639 67.7419 237.361 67.57C237.084 67.3988 236.396 67.7965 235.832 68.4543C234.629 69.8583 231.723 70.0798 231.723 68.7685C231.723 68.0972 231.19 67.9732 229.491 68.2481C227.738 68.5322 227.323 68.4248 227.56 67.7498C227.726 67.2761 228.254 66.9171 228.734 66.9515C229.213 66.9858 229.983 66.6097 230.445 66.1163C231.174 65.3364 231.012 65.2738 229.2 65.6395C228.054 65.8708 226.655 66.1887 226.092 66.3458C225.529 66.5035 224.907 66.3704 224.709 66.0513C224.511 65.7315 225.747 65.2781 227.456 65.0436C229.164 64.8086 230.892 64.2563 231.296 63.8157C231.898 63.1591 232.217 63.1812 233.067 63.9379C233.637 64.446 234.402 64.6773 234.766 64.4521ZM321.416 63.7513C321.416 64.2551 317.659 64.5085 317.36 64.025C317.186 63.7439 318.027 63.5138 319.23 63.5138C320.432 63.5138 321.416 63.6206 321.416 63.7513ZM209.236 67.4461C208.709 68.82 207.935 68.1334 208.121 66.4544C208.351 64.3668 208.366 64.3496 209.012 65.4554C209.34 66.0169 209.441 66.9128 209.236 67.4461ZM252.776 65.1437C252.36 65.3118 251.53 65.3222 250.933 65.1664C250.335 65.0105 250.675 64.8731 251.689 64.8608C252.703 64.8485 253.192 64.9755 252.776 65.1437ZM273.498 65.3861C269.558 66.0862 255.551 66.0635 254.453 65.3548C253.842 64.9602 257.359 64.7828 264.897 64.827C272.67 64.8737 275.389 65.0498 273.498 65.3861ZM286.245 65.1805C285.316 65.321 283.796 65.321 282.866 65.1805C281.937 65.04 282.698 64.9252 284.556 64.9252C286.414 64.9252 287.175 65.04 286.245 65.1805ZM292.082 65.1474C291.659 65.318 290.968 65.318 290.546 65.1474C290.124 64.9774 290.469 64.8381 291.314 64.8381C292.158 64.8381 292.504 64.9774 292.082 65.1474ZM298.225 65.1474C297.803 65.318 297.112 65.318 296.689 65.1474C296.267 64.9774 296.612 64.8381 297.457 64.8381C298.302 64.8381 298.648 64.9774 298.225 65.1474ZM193.634 65.6548C193.634 66.5483 191.344 68.4199 190.273 68.4027C189.075 68.3831 189.081 68.3371 190.432 67.2117L191.837 66.0414L189.204 65.8052C186.891 65.5978 187 65.556 190.102 65.4622C192.045 65.4032 193.634 65.4898 193.634 65.6548ZM196.539 65.7254C196.335 65.9291 195.805 65.9512 195.362 65.7739C194.872 65.5781 195.018 65.4327 195.733 65.4032C196.381 65.3769 196.743 65.5217 196.539 65.7254ZM234.18 65.9684C234.18 66.3059 234.473 66.5821 234.831 66.5821C235.188 66.5821 235.311 66.3059 235.102 65.9684C234.893 65.6309 234.601 65.3548 234.451 65.3548C234.302 65.3548 234.18 65.6309 234.18 65.9684ZM426.301 65.7254C426.097 65.9291 425.567 65.9512 425.124 65.7739C424.634 65.5781 424.779 65.4327 425.495 65.4032C426.143 65.3769 426.505 65.5217 426.301 65.7254ZM430.921 65.761C430.499 65.9316 429.808 65.9316 429.386 65.761C428.964 65.591 429.309 65.4517 430.154 65.4517C430.998 65.4517 431.344 65.591 430.921 65.761ZM167.051 66.3391C166.847 66.5428 166.317 66.5649 165.874 66.3875C165.384 66.1918 165.53 66.0463 166.245 66.0169C166.893 65.9905 167.255 66.1353 167.051 66.3391ZM184.278 66.6974C184.145 67.0981 183.668 67.5479 183.22 67.6971C182.762 67.8499 182.581 67.6848 182.807 67.3191C183.033 66.9545 182.599 66.5526 181.817 66.4029C180.827 66.2126 181.016 66.1114 182.474 66.0519C183.81 65.9973 184.437 66.2219 184.278 66.6974ZM203.771 67.1957C203.547 67.8996 203.66 68.423 204.037 68.423C204.397 68.423 204.692 68.6531 204.692 68.9342C204.692 69.7313 202.194 69.3502 201.649 68.4696C201.272 67.8603 200.865 67.8419 199.843 68.388C199.117 68.7758 198.225 68.909 197.859 68.6832C197.122 68.2279 201.268 66.0973 203.044 66.0181C203.889 65.9807 204.066 66.2673 203.771 67.1957ZM319.88 66.5821C320.089 66.9196 319.967 67.1957 319.609 67.1957C319.252 67.1957 318.959 66.9196 318.959 66.5821C318.959 66.2446 319.08 65.9684 319.23 65.9684C319.379 65.9684 319.671 66.2446 319.88 66.5821ZM325.716 66.239C325.716 66.3881 325.44 66.6802 325.102 66.8889C324.764 67.0975 324.488 66.9754 324.488 66.6183C324.488 66.2611 324.764 65.9684 325.102 65.9684C325.44 65.9684 325.716 66.0899 325.716 66.239ZM415.575 66.371C415.159 66.5391 414.329 66.5495 413.732 66.3937C413.134 66.2378 413.474 66.1004 414.488 66.0881C415.502 66.0758 415.991 66.2028 415.575 66.371ZM418.929 66.3391C418.725 66.5428 418.195 66.5649 417.752 66.3875C417.262 66.1918 417.407 66.0463 418.123 66.0169C418.77 65.9905 419.133 66.1353 418.929 66.3391ZM176.126 67.1957C176.334 67.5332 176.212 67.8094 175.855 67.8094C175.497 67.8094 175.204 67.5332 175.204 67.1957C175.204 66.8582 175.326 66.5821 175.475 66.5821C175.624 66.5821 175.917 66.8582 176.126 67.1957ZM248.758 66.9527C248.554 67.1564 248.024 67.1785 247.581 67.0012C247.091 66.8054 247.236 66.66 247.952 66.6305C248.599 66.6041 248.962 66.749 248.758 66.9527ZM251.83 66.9527C251.626 67.1564 251.095 67.1785 250.653 67.0012C250.162 66.8054 250.308 66.66 251.024 66.6305C251.671 66.6041 252.034 66.749 251.83 66.9527ZM257.525 67.5025C257.525 68.0088 257.802 68.423 258.139 68.423C258.477 68.423 258.753 68.0781 258.753 67.6559C258.751 67.0865 260.1 66.9404 263.982 67.0877C267.146 67.208 269.069 67.5209 268.847 67.8799C268.645 68.2058 267.992 68.3181 267.396 68.1291C266.8 67.9401 265.51 68.2039 264.53 68.7145C262.952 69.5368 262.724 69.538 262.549 68.7261C262.326 67.7014 259.651 67.4688 259.061 68.423C258.649 69.0888 256.116 69.2655 255.52 68.6697C254.922 68.0726 255.743 66.5821 256.669 66.5821C257.14 66.5821 257.525 66.9963 257.525 67.5025ZM314.044 67.5025C313.397 68.2819 313.532 68.423 314.927 68.423C315.869 68.423 316.411 68.6856 316.194 69.0366C315.985 69.3742 315.232 69.6503 314.52 69.6503C313.808 69.6503 313.422 69.8479 313.664 70.089C313.906 70.3302 316.341 70.4425 319.075 70.3394C323.518 70.1713 324.006 70.2609 323.653 71.1795C323.394 71.8557 323.521 72.111 324.026 71.9263C324.449 71.7711 324.726 71.3341 324.641 70.9543C324.557 70.5744 325.195 70.2639 326.06 70.2639C326.951 70.2639 327.468 70.5297 327.252 70.8776C327.043 71.2151 327.166 71.4912 327.523 71.4912C327.881 71.4912 328.174 71.2151 328.174 70.8776C328.174 69.8565 330.471 70.1903 330.887 71.2722C331.1 71.8269 331.182 72.373 331.069 72.486C330.956 72.5983 328.139 72.7658 324.81 72.8578C320.389 72.9799 318.686 72.8186 318.499 72.2583C318.357 71.8367 317.696 71.4912 317.028 71.4912C316.361 71.4912 315.985 71.7674 316.194 72.1049C316.416 72.4626 315.791 72.7185 314.695 72.7185C313.661 72.7185 312.815 72.4424 312.815 72.1049C312.815 71.7674 311.792 71.4912 310.542 71.4912C308.057 71.4912 308.375 70.51 310.972 70.1627C312.127 70.0081 312.556 69.5386 312.702 68.2696C312.821 67.235 313.267 66.5821 313.853 66.5821C314.633 66.5821 314.668 66.7514 314.044 67.5025ZM375.17 67.9971C375.846 68.1732 375.086 68.2892 373.481 68.2555C371.876 68.2217 370.563 67.9505 370.563 67.6535C370.563 67.3559 371.15 67.2994 371.868 67.5271C372.867 67.8431 373.056 67.7449 372.672 67.108C372.278 66.4532 372.359 66.425 373.056 66.976C373.543 67.362 374.495 67.821 375.17 67.9971ZM298.378 67.8094C298.17 68.1469 297.739 68.423 297.421 68.423C297.102 68.423 296.843 68.1469 296.843 67.8094C296.843 67.4718 297.274 67.1957 297.8 67.1957C298.327 67.1957 298.587 67.4718 298.378 67.8094ZM232.952 68.423C234.143 69.1919 234.795 69.1919 234.795 68.423C234.795 68.0855 234.172 67.8136 233.412 67.8186C232.295 67.8265 232.206 67.9419 232.952 68.423ZM290.699 68.6893C290.699 69.1876 291.432 69.6626 292.389 69.7847C293.744 69.9577 293.577 70.0584 291.544 70.2946C289.234 70.5628 289.01 70.4658 289.01 69.1993C289.01 68.4291 289.386 67.8094 289.855 67.8094C290.319 67.8094 290.699 68.2052 290.699 68.6893ZM309.744 68.3316C309.744 68.6396 308.632 68.9072 307.274 68.9262C305.915 68.9446 304.929 68.7587 305.08 68.5132C305.493 67.8468 309.744 67.6811 309.744 68.3316ZM118.378 69.0366C118.587 69.3742 118.326 69.6503 117.8 69.6503C117.273 69.6503 116.842 69.3742 116.842 69.0366C116.842 68.6991 117.102 68.423 117.42 68.423C117.739 68.423 118.169 68.6991 118.378 69.0366ZM240.324 69.0729C240.324 69.43 240.017 69.5331 239.641 69.3011C239.265 69.0692 238.717 69.26 238.422 69.7252C237.997 70.394 237.883 70.3462 237.876 69.4969C237.87 68.8292 238.331 68.423 239.095 68.423C239.771 68.423 240.324 68.7157 240.324 69.0729ZM248.924 68.8832C248.924 69.1361 248.26 69.3435 247.447 69.3435C246.635 69.3435 246.098 69.1361 246.255 68.8832C246.411 68.6304 247.076 68.423 247.732 68.423C248.388 68.423 248.924 68.6304 248.924 68.8832ZM365.955 69.0366C365.747 69.3742 364.97 69.6307 364.23 69.6073C362.932 69.5656 362.928 69.5454 364.112 69.0366C365.803 68.3107 366.404 68.3107 365.955 69.0366ZM411.109 69.0366C411.109 69.3742 411.731 69.6546 412.491 69.6595C413.251 69.665 414.288 69.9369 414.795 70.2639C415.475 70.7027 414.991 70.8929 412.952 70.988C411.432 71.0592 409.22 71.2267 408.037 71.3599C406.855 71.4937 396.35 71.6839 384.693 71.7827C373.036 71.8815 365.157 71.7563 367.184 71.5041C369.211 71.2525 372.252 70.8745 373.942 70.6647C380.433 69.8589 388.306 69.6491 388.69 70.2707C388.903 70.6156 389.362 70.7223 389.708 70.5082C390.055 70.2946 390.985 70.4646 391.775 70.8868C392.564 71.309 393.713 71.4538 394.327 71.2083C394.941 70.9629 397.43 70.7137 399.858 70.6548C402.286 70.5959 404.453 70.367 404.674 70.1461C404.894 69.9258 406.018 69.8982 407.171 70.0848C408.837 70.3548 409.266 70.2198 409.266 69.4239C409.266 68.8734 409.681 68.423 410.188 68.423C410.694 68.423 411.109 68.6991 411.109 69.0366ZM429.181 69.1901C429.467 69.8037 429.611 69.8037 429.897 69.1901C430.283 68.3653 435.412 68.1027 435.895 68.8832C436.051 69.1361 434.962 69.2465 433.474 69.1281C431.784 68.9937 430.768 69.1667 430.768 69.5883C430.768 70.6119 427.879 70.3971 427.474 69.3435C427.044 68.2242 428.662 68.0787 429.181 69.1901ZM286.706 69.6503C286.497 69.9878 285.582 70.2443 284.673 70.221C283.197 70.1823 283.152 70.121 284.249 69.6503C285.955 68.9176 287.159 68.9176 286.706 69.6503ZM344.454 69.6503C344.245 69.9878 344.643 70.2639 345.339 70.2639C346.034 70.2639 346.604 69.9878 346.604 69.6503C346.604 68.9256 347.794 69.0894 348.806 69.9534C349.734 70.7457 346.579 72.1442 344.871 71.698C344.211 71.5256 343.485 71.6845 343.258 72.0515C343.031 72.4185 342.431 72.7185 341.924 72.7185C341.417 72.7185 341.187 72.4209 341.411 72.0576C341.695 71.5999 340.951 71.5268 338.99 71.8201C337.273 72.0773 336.16 72.0092 336.16 71.6465C336.16 71.3182 337.745 70.8856 339.683 70.6861C341.62 70.4867 343.302 70.0338 343.42 69.6798C343.538 69.3263 343.904 69.0366 344.234 69.0366C344.564 69.0366 344.663 69.3128 344.454 69.6503ZM362.018 69.6024C361.543 69.9037 360.339 70.0473 359.345 69.9215C357.952 69.7454 357.463 69.97 357.22 70.8991C357.046 71.5624 356.668 72.1049 356.381 72.1049C355.717 72.1049 356.432 70.1068 357.31 69.5061C357.672 69.2582 359.075 69.0557 360.426 69.0557C362.103 69.0557 362.609 69.2293 362.018 69.6024ZM145.716 70.1921C145.716 70.923 143.341 71.5066 142.948 70.8727C142.777 70.5953 142.984 70.229 143.409 70.0578C144.667 69.5509 145.716 69.6122 145.716 70.1921ZM153.702 70.2639C153.702 70.6014 153.442 70.8776 153.124 70.8776C152.806 70.8776 152.375 70.6014 152.167 70.2639C151.958 69.9264 152.218 69.6503 152.745 69.6503C153.271 69.6503 153.702 69.9264 153.702 70.2639ZM164.76 70.1971C164.76 71.1249 160.275 71.3225 158.634 70.4671C157.196 69.7178 157.366 69.6577 160.921 69.654C163.033 69.6521 164.76 69.8964 164.76 70.1971ZM166.649 70.4327C166.573 71.1666 165.731 71.0242 165.467 70.2333C165.332 69.8283 165.553 69.6073 165.958 69.7423C166.364 69.8773 166.675 70.1878 166.649 70.4327ZM172.089 72.3657C172.113 72.678 171.62 72.4019 170.993 71.752C170.221 70.9512 170.073 70.4296 170.533 70.1332C171.148 69.7356 171.98 70.9291 172.089 72.3657ZM177.304 70.0228C178.554 70.502 178.564 71.4912 177.318 71.4912C176.792 71.4912 176.521 71.7508 176.717 72.0674C176.913 72.3847 176.516 72.6026 175.835 72.551C174.561 72.4553 174.362 70.9629 175.511 70.1197C176.264 69.5675 176.134 69.5742 177.304 70.0228ZM418.481 70.2639C418.481 70.6014 417.997 70.8733 417.406 70.8684C416.487 70.8604 416.465 70.772 417.252 70.2639C418.412 69.5153 418.481 69.5153 418.481 70.2639ZM183.522 71.2194C181.95 71.8637 181.867 72.0067 182.907 72.2706C183.881 72.5179 183.816 72.5897 182.571 72.6473C181.681 72.6885 180.731 72.2423 180.325 71.5937C179.681 70.5628 179.862 70.4689 182.482 70.4714C185.314 70.4738 185.323 70.4806 183.522 71.2194ZM191.966 71.9269C192.214 73.2205 192.068 73.3862 190.948 73.0855C190.229 72.8928 188.535 72.7228 187.184 72.7081C185.195 72.6866 184.934 72.5602 185.814 72.0484C186.413 71.7005 186.748 71.1666 186.559 70.8616C186.371 70.5573 187.445 70.3327 188.947 70.3627C191.34 70.4106 191.713 70.6039 191.966 71.9269ZM210.018 71.8367C210.656 72.7081 211.005 72.7952 211.575 72.2252C212.598 71.2034 213.907 71.3078 213.907 72.4117C213.907 73.1291 213.127 73.3217 210.375 73.2837C208.432 73.2573 207.188 73.0959 207.61 72.9259C209.416 72.1975 208.131 71.4912 204.999 71.4912C201.345 71.4912 200.362 72.4847 203.617 72.8885C204.859 73.0419 204.292 73.1726 202.118 73.234C200.155 73.2892 198.44 73.0395 198.209 72.6651C197.911 72.1847 197.609 72.1847 197.128 72.6651C196.761 73.0321 196.045 73.3322 195.539 73.3322C194.857 73.3322 194.797 73.1524 195.306 72.6437C195.685 72.265 195.843 71.5569 195.655 71.0697C195.368 70.321 196.388 70.2253 202.256 70.4493C208.08 70.6714 209.329 70.8942 210.018 71.8367ZM223.734 71.6446C223.738 72.3301 219.569 72.2018 219.136 71.5029C218.912 71.1402 219.749 70.9574 221.247 71.0427C222.613 71.1206 223.732 71.3918 223.734 71.6446ZM245.853 71.455C245.853 71.7729 245.577 72.2025 245.24 72.4105C244.168 73.072 227.574 72.7682 226.194 72.0619C225.492 71.7029 233.102 71.0709 239.249 70.9776C243.037 70.9205 245.853 71.1237 245.853 71.455ZM272.794 71.8109C273.441 72.4577 272.279 72.6768 266.549 72.9879C260.674 73.3076 254.453 72.5258 254.453 71.4679C254.453 70.9285 272.244 71.2617 272.794 71.8109ZM294.692 72.0828C290.729 72.4363 287.75 72.1761 288.736 71.5624C289.071 71.3544 291.377 71.3127 293.861 71.4691L298.378 71.7539L294.692 72.0828ZM305.443 71.4912C305.443 71.8287 305.322 72.1049 305.172 72.1049C305.023 72.1049 304.731 71.8287 304.522 71.4912C304.313 71.1537 304.435 70.8776 304.793 70.8776C305.15 70.8776 305.443 71.1537 305.443 71.4912ZM319.266 71.4912C319.057 71.8287 319.317 72.1049 319.844 72.1049C320.37 72.1049 320.802 71.8287 320.802 71.4912C320.802 71.1537 320.542 70.8776 320.224 70.8776C319.905 70.8776 319.475 71.1537 319.266 71.4912ZM446.626 71.2967C447.069 71.4741 447.599 71.452 447.803 71.2482C448.007 71.0445 447.644 70.8997 446.997 70.9261C446.281 70.9555 446.135 71.101 446.626 71.2967ZM302.714 72.0472C302.525 72.3528 301.818 72.459 301.142 72.2822C299.452 71.841 299.604 71.4912 301.486 71.4912C302.351 71.4912 302.904 71.7416 302.714 72.0472ZM334.471 71.8975C334.049 72.0681 333.358 72.0681 332.935 71.8975C332.513 71.7275 332.858 71.5882 333.703 71.5882C334.547 71.5882 334.893 71.7275 334.471 71.8975ZM362.73 71.8975C362.308 72.0681 361.617 72.0681 361.194 71.8975C360.772 71.7275 361.118 71.5882 361.962 71.5882C362.807 71.5882 363.153 71.7275 362.73 71.8975ZM442.133 74.5595C442.342 74.897 442.634 75.1731 442.784 75.1731C442.933 75.1731 443.055 74.897 443.055 74.5595C443.055 74.222 442.762 73.9458 442.404 73.9458C442.046 73.9458 441.924 74.222 442.133 74.5595ZM458.298 74.3649C458.741 74.5423 459.271 74.5202 459.475 74.3165C459.679 74.1127 459.317 73.9679 458.669 73.9943C457.953 74.0238 457.808 74.1692 458.298 74.3649ZM207.148 82.0766C207.149 82.3295 201.551 82.4853 194.709 82.4227C186.098 82.3436 183.876 82.2018 187.491 81.9625C194.992 81.4654 207.147 81.536 207.148 82.0766ZM213.293 82.3018C213.293 82.4307 211.98 82.5043 210.375 82.4645C207.865 82.4019 207.715 82.3331 209.3 81.9735C211.022 81.5826 213.293 81.7698 213.293 82.3018ZM181.501 82.3295C181.079 82.5001 180.388 82.5001 179.965 82.3295C179.543 82.1595 179.888 82.0202 180.733 82.0202C181.578 82.0202 181.924 82.1595 181.501 82.3295ZM125.902 83.6378C126.328 83.9176 123.807 84.1624 120.227 84.1888C116.684 84.2152 113.896 84.0569 114.033 83.8366C114.405 83.2352 125.018 83.0579 125.902 83.6378ZM406.694 84.1833C407.137 84.3606 407.667 84.3385 407.871 84.1348C408.075 83.9311 407.712 83.7862 407.065 83.8126C406.349 83.8421 406.204 83.9875 406.694 84.1833ZM361.796 84.7485C361.592 84.9522 361.062 84.9743 360.619 84.7969C360.128 84.6012 360.274 84.4557 360.99 84.4263C361.637 84.3999 362 84.5447 361.796 84.7485ZM148.293 86.0629C151.907 86.1709 157.989 86.1715 161.809 86.0635C165.628 85.9555 162.672 85.8671 155.238 85.8665C147.805 85.8659 144.68 85.9543 148.293 86.0629ZM203.352 86.3525C203.679 86.6796 204.461 86.8391 205.088 86.706C205.933 86.5274 205.778 86.3728 204.492 86.1114C203.371 85.8825 202.967 85.9684 203.352 86.3525ZM393.793 86.0242C394.236 86.2016 394.766 86.1795 394.97 85.9757C395.174 85.772 394.811 85.6272 394.164 85.6536C393.448 85.683 393.303 85.8285 393.793 86.0242ZM208.232 86.6526C208.996 86.7993 210.102 86.7937 210.689 86.6403C211.277 86.4869 210.651 86.3666 209.3 86.3734C207.948 86.3801 207.468 86.5059 208.232 86.6526ZM216.833 86.6526C217.597 86.7993 218.703 86.7937 219.29 86.6403C219.877 86.4869 219.252 86.3666 217.9 86.3734C216.549 86.3801 216.068 86.5059 216.833 86.6526ZM235.881 86.6636C236.985 86.7999 238.644 86.7974 239.567 86.6575C240.49 86.517 239.587 86.4053 237.559 86.409C235.532 86.412 234.777 86.5268 235.881 86.6636ZM244.786 86.6593C245.72 86.7999 247.102 86.7962 247.858 86.6508C248.614 86.5053 247.849 86.39 246.16 86.3942C244.47 86.3992 243.852 86.5182 244.786 86.6593ZM325.256 86.6415C325.847 86.7962 326.815 86.7962 327.406 86.6415C327.997 86.4875 327.513 86.3611 326.331 86.3611C325.148 86.3611 324.665 86.4875 325.256 86.6415ZM335.392 86.625C335.815 86.7956 336.506 86.7956 336.928 86.625C337.351 86.455 337.005 86.3157 336.16 86.3157C335.315 86.3157 334.97 86.455 335.392 86.625Z" fill="#5DA399"/>
</svg>
