<svg width="370" height="89" viewBox="0 0 370 89" fill="none" xmlns="http://www.w3.org/2000/svg">
<path fill-rule="evenodd" clip-rule="evenodd" d="M266.88 0.341352C263.107 0.586842 259.808 0.875764 259.548 0.984031C259.288 1.09167 260.884 1.35793 263.095 1.57509C267.105 1.96913 267.099 1.97039 260.967 2.16427C257.585 2.27128 252.582 2.5816 249.851 2.85352C246.414 3.19595 248.163 3.25827 255.527 3.05558C272.356 2.59293 289.638 2.18378 291.86 2.19448C293.1 2.20078 293.784 1.9578 293.606 1.57509C293.414 1.16154 297.552 0.945633 305.668 0.945633C314.438 0.945633 317.93 1.14391 317.705 1.62923C317.505 2.05978 317.801 2.25869 318.505 2.16553C319.12 2.0837 319.942 2.18504 320.332 2.39087C320.722 2.59608 324.234 3.06691 328.137 3.43704C332.039 3.80716 336.031 4.35982 337.006 4.66511C337.982 4.96977 338.78 4.98488 338.78 4.69847C338.78 3.98341 337.527 3.56733 330.266 1.86842C329.355 1.65566 327.652 1.18861 326.481 0.831072C323.959 0.0606132 277.123 -0.323987 266.88 0.341352ZM122.842 1.00417C120.619 1.35478 120.683 1.38311 123.907 1.47627C127.302 1.57383 128.328 1.30757 126.272 0.861915C125.686 0.734765 124.143 0.798968 122.842 1.00417ZM117.639 1.31387C117.119 1.4215 114.831 1.69154 112.554 1.91374C110.278 2.13594 108.415 2.52621 108.415 2.78177C108.415 3.0367 109.106 3.13301 109.952 2.99515C111.131 2.80317 111.324 2.89948 110.78 3.40934C110.241 3.91417 110.581 4.05831 112.199 4.00859C114.14 3.94942 114.203 3.90158 112.909 3.46347L111.49 2.98319L113.224 2.90829C114.178 2.86737 115.029 3.08642 115.116 3.39549C115.206 3.71463 117.007 3.75365 119.295 3.4855C123.631 2.97816 123.556 2.73582 119.058 2.7226C117.497 2.71756 116.752 2.5753 117.402 2.40598C118.52 2.11517 120.032 0.841144 119.034 1.03124C118.787 1.07845 118.159 1.2056 117.639 1.31387ZM280.736 1.4108C279.12 1.53355 276.353 1.53418 274.586 1.41269C272.819 1.29184 274.141 1.19112 277.523 1.19049C280.905 1.18923 282.35 1.28869 280.736 1.4108ZM287.338 1.36233C287.013 1.53732 286.481 1.53732 286.156 1.36233C285.831 1.18797 286.096 1.04509 286.747 1.04509C287.397 1.04509 287.664 1.18797 287.338 1.36233ZM323.288 1.99179C322.963 2.16678 322.431 2.16678 322.106 1.99179C321.781 1.81743 322.047 1.67455 322.697 1.67455C323.347 1.67455 323.614 1.81743 323.288 1.99179ZM326.609 1.98802C326.288 2.16049 325.65 2.17119 325.189 2.01131C324.729 1.85143 324.991 1.71043 325.772 1.69784C326.552 1.68525 326.929 1.81555 326.609 1.98802ZM124.143 2.63825C124.598 2.79687 125.344 2.79687 125.799 2.63825C126.254 2.48026 125.881 2.35059 124.971 2.35059C124.06 2.35059 123.688 2.48026 124.143 2.63825ZM128.637 2.62125C128.962 2.79624 129.494 2.79624 129.819 2.62125C130.145 2.44689 129.879 2.30401 129.228 2.30401C128.578 2.30401 128.312 2.44689 128.637 2.62125ZM38.0782 3.66112C37.942 3.95445 35.4591 4.13637 32.5603 4.06524C27.3007 3.93746 18.0885 4.86402 16.5379 5.67728C16.019 5.94921 15.7555 6.68693 15.8179 7.69218C15.9244 9.40305 15.9977 9.46412 18.6575 10.052C20.8344 10.5336 21.0099 11.552 18.894 11.4243C17.4854 11.3393 17.368 11.4765 17.4929 13.0627C17.6121 14.5785 17.465 14.795 16.3104 14.8032C14.6562 14.8158 14.0734 15.3754 13.9428 17.0774C13.8582 18.1846 14.1652 18.4855 15.7167 18.8154C18.228 19.3498 18.0923 20.2203 15.4353 20.6188C13.3364 20.9335 10.7267 23.2008 11.2262 24.2759C11.3502 24.5435 10.8128 24.9495 10.0318 25.1779C8.80433 25.5367 8.7031 25.7142 9.28445 26.4879C9.65436 26.9801 10.2386 27.3874 10.5824 27.3924C11.0536 27.3999 11.037 27.5453 10.5153 27.9847C10.0304 28.3926 10.5834 28.6249 12.3643 28.7615C14.8747 28.9541 14.9055 28.9805 14.948 31.0023C14.9722 32.1278 14.8317 33.0481 14.6368 33.0481C14.4419 33.0481 14.282 33.6146 14.282 34.307C14.282 35.2399 13.9452 35.588 12.9812 35.6515C11.8473 35.7264 11.8185 35.7724 12.757 36.0122C14.1283 36.3622 16.6226 38.075 15.7687 38.08C15.4078 38.0819 15.2404 38.4765 15.3861 38.982C15.7711 40.3171 14.8345 41.0372 11.7215 41.8001C8.93631 42.4824 7.73623 43.1194 9.2362 43.1194C9.66997 43.1194 10.0247 43.5443 10.0247 44.0636C10.0247 44.7982 9.3942 45.0078 7.18657 45.0078C4.12607 45.0078 3.17434 46.2101 6.12225 46.3523C7.22016 46.4052 7.49073 46.5418 6.8318 46.7111C6.24619 46.861 5.76748 47.2279 5.76748 47.5269C5.76748 47.8259 5.33845 48.2514 4.81433 48.473C4.29021 48.6939 3.97896 49.1276 4.12181 49.4354C4.26514 49.7439 3.68284 50.2644 2.82808 50.5924C1.48515 51.1079 1.75619 51.1992 4.82142 51.2647C8.46422 51.3427 8.59951 52.0055 5.14167 52.8326C3.60858 53.199 3.42173 53.408 3.91699 54.2017C4.38718 54.9558 4.58065 54.9791 4.90704 54.3219C5.22208 53.6868 5.47042 53.7812 6.02291 54.7456C6.67428 55.8817 6.64353 56.0372 5.65916 56.6037C4.73959 57.1325 4.96002 57.271 7.18657 57.5668C9.52144 57.8765 9.68511 57.9904 8.78304 58.6784C8.23055 59.1002 6.84694 59.634 5.70835 59.8643C2.16962 60.5807 1.96575 61.331 5.29445 61.3882L8.36914 61.4405L4.34839 63.4529L0.327646 65.4653L2.69279 65.78L5.05794 66.0947L2.27085 66.9464C0.323389 67.5418 -0.317565 67.9655 0.142219 68.3532C0.504559 68.6585 1.2264 68.9323 1.74673 68.9619C2.68617 69.0154 2.68617 69.0192 1.75525 69.5032C1.07503 69.8564 1.6597 70.1396 3.88388 70.5343C6.66198 71.0265 6.7722 71.0989 5.05794 71.3035C4.01727 71.4275 2.96384 71.7939 2.71644 72.1168C2.43783 72.4806 4.41509 72.7229 7.91977 72.7538C12.2854 72.7922 13.2763 72.9477 12.2716 73.4355C11.5176 73.8025 10.9708 74.5389 10.9708 75.1885C10.9708 76.0975 10.1439 76.5331 6.60143 77.4898C4.19844 78.1388 2.63319 78.7727 3.12277 78.8979C3.83516 79.0805 3.88104 79.2372 3.35267 79.6822C2.86734 80.0914 3.00546 80.2431 3.87537 80.2576C4.52578 80.2683 5.37108 80.5408 5.75424 80.8631C6.52811 81.514 6.32708 81.6732 3.80914 82.4028C3.1223 82.6017 2.44493 83.1657 2.30349 83.6566C2.08779 84.4032 2.90518 84.5014 7.33652 84.2584C11.2461 84.0444 12.4415 84.1489 11.9169 84.6588C11.3185 85.241 11.3558 85.3335 12.1534 85.2492C13.7342 85.0805 14.0805 85.2819 13.3359 85.9365C12.8535 86.3608 13.5341 86.4162 15.4646 86.1103C18.9981 85.5494 18.8174 85.5431 26.8173 86.515C31.7198 87.1105 38.9065 87.2074 54.4895 86.8895C67.4245 86.6252 79.5511 86.7158 85.9459 87.1237C107.022 88.4701 109.118 88.5645 108.817 88.1504C108.648 87.9181 106.307 87.5744 103.614 87.3868C100.921 87.1999 98.5153 86.7933 98.2683 86.4848C97.6525 85.715 138.384 85.7748 152.749 86.5648C160.99 87.018 223.23 87.9049 244.884 87.8778C249.715 87.8715 270.785 87.0759 271.752 86.8631C272.55 86.6869 272.962 86.8172 272.788 87.1911C272.63 87.5322 272.713 87.8111 272.973 87.8111C273.233 87.8111 273.578 87.5278 273.739 87.1816C274.122 86.3564 275.867 86.3658 275.867 87.193C275.867 87.9049 287.042 87.947 295.202 87.2666C298.938 86.955 300.164 87.0463 300.337 87.6487C300.463 88.0843 300.875 88.4405 301.253 88.4405C301.631 88.4405 301.808 88.1573 301.647 87.8111C301.486 87.4649 301.74 87.1331 302.211 87.074C302.681 87.0148 303.386 86.9034 303.776 86.826C304.166 86.7492 305.656 86.6516 307.087 86.6094C308.672 86.5629 309.447 86.3281 309.068 86.0096C308.455 85.4915 311.81 85.0094 321.278 84.2565C326.038 83.8782 328.192 82.8446 324.566 82.6797C323.408 82.6269 322.248 82.518 321.988 82.4374C321.727 82.3568 319.492 82.2196 317.021 82.1327L312.527 81.9735L315.602 81.4837C317.293 81.2143 320.769 80.9053 323.327 80.7976C325.884 80.6894 328.079 80.3822 328.203 80.1147C328.328 79.8472 328.855 79.6281 329.375 79.6281C329.896 79.6281 330.207 79.382 330.067 79.0805C329.926 78.7765 328.915 78.7645 327.793 79.0534C325.528 79.6363 323.369 79.783 323.709 79.331C324.164 78.7242 333.965 76.477 334.643 76.8232C335.039 77.0253 335.47 76.754 335.63 76.202C335.83 75.5064 336.637 75.1923 338.411 75.1193L340.909 75.0167L338.307 74.6453C336.26 74.3526 335.977 74.1934 336.979 73.8981C337.679 73.691 339.276 73.7326 340.526 73.9894C341.777 74.2462 342.849 74.3992 342.908 74.3293C342.967 74.2588 342.676 73.5576 342.262 72.7701C341.763 71.8222 341.35 71.5502 341.039 71.9644C340.727 72.3792 340.067 72.3685 339.083 71.9317C336.44 70.7603 336.857 70.4965 340.991 70.7263C343.876 70.8862 344.954 70.7496 344.725 70.2542C344.525 69.8249 344.821 69.5347 345.493 69.5001C346.465 69.4497 341.817 68.1927 338.071 67.4928C337.29 67.3467 338.248 67.1805 340.199 67.1239C342.15 67.0666 344.066 66.7449 344.456 66.4095C345.045 65.9034 345.005 65.7957 344.22 65.78C343.7 65.7693 342.955 65.4615 342.564 65.0958C342.045 64.6098 342.458 64.5381 344.1 64.8295C347.036 65.3494 347.656 64.7999 346.302 62.8813C345.702 62.0316 345.492 61.3738 345.821 61.3738C346.142 61.3738 346.273 61.0905 346.112 60.7443C345.951 60.3981 344.928 60.1105 343.837 60.1054C342.747 60.0998 341.535 59.8001 341.145 59.4388C340.635 58.9667 341.132 58.8975 342.919 59.1933C345.446 59.6107 346.402 58.7722 344.338 57.9483C343.3 57.5341 343.297 57.5089 344.22 56.9191C344.97 56.4407 344.82 56.3696 343.498 56.5786C341.594 56.8801 339.594 55.5229 340.933 54.8387C341.353 54.6247 342.078 54.4497 342.545 54.4497C343.012 54.4497 343.659 54.0248 343.983 53.5055C344.446 52.764 344.447 52.5613 343.991 52.5613C343.668 52.5613 343.53 52.1409 343.682 51.6171C343.856 51.0103 343.663 50.6572 343.141 50.6289C342.466 50.5918 342.489 50.4967 343.274 50.0687C344.153 49.589 344.126 49.5034 342.888 48.8538C342.156 48.4698 341.251 48.1551 340.878 48.1551C340.505 48.1551 340.199 47.8719 340.199 47.5257C340.199 47.1795 341.423 46.8685 342.919 46.8351L345.639 46.7741L343.865 45.8053C341.942 44.7554 341.593 43.5185 342.948 42.5536C343.42 42.2181 346.187 41.7428 349.098 41.4973C352.008 41.2525 354.39 40.8326 354.39 40.5645C354.39 40.2963 353.804 39.7927 353.089 39.4447C352 38.9159 352.348 38.8045 355.218 38.763C357.164 38.7346 358.647 38.4407 358.647 38.0838C358.647 37.7376 358.209 37.4543 357.673 37.4543C357.138 37.4543 356.825 37.1836 356.979 36.8525C357.133 36.5214 357.571 36.41 357.953 36.6052C358.335 36.7997 358.647 36.6933 358.647 36.3685C358.647 36.0431 357.636 35.4614 356.4 35.0756C354.493 34.4801 355.225 34.4046 361.249 34.5745L368.344 34.7753L362.195 33.6247C351.435 31.611 351.627 31.6633 352.971 31.1276C354.065 30.6914 354.076 30.6511 353.117 30.5932C351.675 30.5057 351.309 29.4199 352.609 29.0875C353.205 28.9346 352.806 28.7753 351.709 28.7275C350.626 28.6803 349.668 28.3624 349.581 28.0212C349.494 27.68 346.975 27.1689 343.983 26.8863C338.655 26.3827 338.585 26.3563 340.54 25.5991C341.814 25.1062 345.132 24.8771 349.704 24.9658C356.321 25.0949 356.924 25.0111 357.543 23.8838C358.132 22.8093 358.924 22.6368 364.107 22.453C368.806 22.2868 370 22.0634 370 21.3515C370 20.8605 369.815 20.4589 369.589 20.4589C368.924 20.4589 360.852 18.5623 359.948 18.1941C358.239 17.4966 359.215 16.6796 361.84 16.6097C364.531 16.538 364.54 16.5317 362.668 16.0168C361.627 15.7304 359.073 15.4585 356.992 15.4131C353.285 15.3313 348.258 14.4759 349.66 14.1643C350.995 13.8678 346.116 12.9985 342.855 12.9519C340.013 12.911 339.458 12.7052 338.502 11.3317L337.406 9.75807L339.394 9.70142L341.382 9.64477L339.764 9.02601C338.875 8.6861 337.757 8.54384 337.281 8.70939C336.805 8.87494 336.415 8.77486 336.415 8.48656C336.415 8.19827 336.042 7.83255 335.587 7.67393C335.132 7.51593 335.717 7.31766 336.888 7.23457L339.017 7.08287L336.888 6.60574C329.931 5.04719 280.453 4.18672 264.514 5.34745C259.962 5.67917 254.072 5.95739 251.427 5.96557C248.033 5.9769 246.547 6.21295 246.378 6.76814C246.197 7.36046 246.041 7.37368 245.744 6.81975C245.41 6.19911 235.587 5.48467 234.714 6.01719C233.86 6.53775 109.253 6.46914 100.846 5.94354C95.2528 5.59356 88.8669 5.19701 86.6555 5.0623C84.4441 4.9276 77.8619 4.66952 72.029 4.49012C66.1956 4.3101 59.2775 3.98529 56.6555 3.76876C49.0738 3.14182 38.3483 3.0795 38.0782 3.66112ZM278.144 3.26393C278.485 3.44585 278.893 3.42319 279.05 3.21421C279.207 3.00523 278.928 2.85667 278.43 2.88374C277.878 2.91395 277.766 3.06313 278.144 3.26393ZM265.372 3.89339C265.713 4.07531 266.121 4.05265 266.278 3.84367C266.435 3.63469 266.156 3.48613 265.658 3.5132C265.107 3.54341 264.995 3.69259 265.372 3.89339ZM269.156 3.89339C269.497 4.07531 269.906 4.05265 270.063 3.84367C270.22 3.63469 269.941 3.48613 269.442 3.5132C268.891 3.54341 268.779 3.69259 269.156 3.89339ZM117.284 5.16679C117.87 5.3166 118.827 5.3166 119.413 5.16679C119.998 5.01635 119.519 4.8936 118.348 4.8936C117.178 4.8936 116.699 5.01635 117.284 5.16679ZM213.082 7.65316C212.761 7.82563 212.123 7.83633 211.662 7.67645C211.202 7.51656 211.464 7.37557 212.245 7.36298C213.025 7.35039 213.402 7.48068 213.082 7.65316ZM334.395 7.62043C334.238 7.82941 333.829 7.85207 333.488 7.67015C333.111 7.46935 333.223 7.32017 333.774 7.28996C334.273 7.26289 334.552 7.41144 334.395 7.62043ZM263.906 8.73834C264.067 8.95299 262.514 9.16071 260.454 9.20037C258.394 9.2394 251.281 9.41564 244.647 9.59126C238.013 9.76751 214.53 10.1295 192.463 10.397C170.396 10.6645 151.18 11.0755 149.762 11.3116C147.155 11.7446 144.036 11.2449 144.608 10.4851C144.937 10.0476 149.415 9.93054 174.521 9.70582C184.103 9.61959 190.249 9.33004 190.249 8.96432C190.249 8.63448 190.548 8.5174 190.914 8.70435C191.926 9.22051 207.679 9.13302 219.104 8.54762C230.274 7.97481 263.438 8.11644 263.906 8.73834ZM276.261 8.18505C275.921 8.63763 267.813 8.6924 267.477 8.24422C267.321 8.03839 269.288 7.86969 271.846 7.86969C274.405 7.86969 276.391 8.01132 276.261 8.18505ZM278.104 8.24988C277.947 8.45886 277.539 8.48153 277.198 8.29961C276.82 8.09881 276.932 7.94963 277.484 7.91942C277.982 7.89235 278.261 8.0409 278.104 8.24988ZM242.17 8.94418C242.758 9.09462 243.609 9.08895 244.062 8.93159C244.514 8.77422 244.032 8.65085 242.992 8.65777C241.951 8.6647 241.581 8.79374 242.17 8.94418ZM306.777 8.97125C306.897 9.23058 304.054 9.44334 300.459 9.44334C296.864 9.44334 293.762 9.23058 293.567 8.97125C293.372 8.71191 296.215 8.49915 299.885 8.49915C303.555 8.49915 306.657 8.71191 306.777 8.97125ZM309.216 9.12861C307.924 9.8676 307.56 9.8676 307.56 9.12861C307.56 8.78241 308.145 8.51929 308.861 8.54321C310.014 8.58287 310.054 8.64896 309.216 9.12861ZM222.799 9.55853C223.141 9.74044 223.549 9.71778 223.706 9.5088C223.863 9.29982 223.584 9.15127 223.085 9.17834C222.534 9.20855 222.422 9.35773 222.799 9.55853ZM225.616 9.58497C226.466 9.72471 227.744 9.72219 228.455 9.57867C229.165 9.43453 228.47 9.31997 226.909 9.32374C225.348 9.32689 224.766 9.4446 225.616 9.58497ZM130.129 11.0541C129.789 11.3342 129.317 11.4047 129.082 11.2115C128.847 11.0182 128.933 10.6305 129.273 10.3504C129.614 10.0703 130.085 9.99978 130.32 10.193C130.555 10.3863 130.469 10.774 130.129 11.0541ZM138.689 10.5241C138.689 10.7954 137.146 10.9836 135.259 10.9427C132.714 10.8873 132.195 10.747 133.249 10.3982C135.065 9.79647 138.689 9.88082 138.689 10.5241ZM143.419 10.0885C143.419 10.7608 140.865 11.683 140.145 11.2707C139.555 10.9333 139.647 10.7425 140.581 10.3636C142.025 9.77695 143.419 9.64225 143.419 10.0885ZM128.029 11.0529C127.877 11.3789 126.116 11.642 124.115 11.637C122.114 11.6313 120.726 11.4192 121.03 11.1649C121.872 10.4605 128.352 10.3567 128.029 11.0529ZM279.306 10.8005C278.985 10.9729 278.347 10.9836 277.887 10.8237C277.426 10.6639 277.688 10.5229 278.469 10.5103C279.249 10.4977 279.626 10.628 279.306 10.8005ZM312.409 11.4614C311.824 11.6112 310.865 11.6112 310.28 11.4614C309.695 11.3109 310.174 11.1882 311.344 11.1882C312.515 11.1882 312.994 11.3109 312.409 11.4614ZM19.0123 19.8294C19.0123 20.1756 18.9186 20.4589 18.8037 20.4589C18.6888 20.4589 18.4636 20.1756 18.3028 19.8294C18.1419 19.4832 18.2361 19.2 18.5114 19.2C18.7867 19.2 19.0123 19.4832 19.0123 19.8294ZM6.15206 42.9199C6.49311 43.1018 6.90134 43.0792 7.05838 42.8702C7.21543 42.6612 6.93634 42.5126 6.43777 42.5397C5.88669 42.5699 5.77458 42.7191 6.15206 42.9199ZM342.436 53.571C342.279 53.78 341.871 53.8026 341.53 53.6207C341.152 53.4199 341.264 53.2707 341.815 53.2405C342.314 53.2135 342.593 53.362 342.436 53.571ZM10.0247 55.0792C10.0247 55.4254 9.79911 55.7086 9.5238 55.7086C9.2485 55.7086 9.15437 55.4254 9.3152 55.0792C9.47603 54.733 9.7012 54.4497 9.81614 54.4497C9.93109 54.4497 10.0247 54.733 10.0247 55.0792ZM150.77 64.5632C151.279 65.6591 150.7 65.8914 150.051 64.8509C149.678 64.2529 149.642 63.8916 149.956 63.8916C150.232 63.8916 150.599 64.1938 150.77 64.5632ZM180.766 66.113C181.047 65.882 181.154 65.4294 181.004 65.1071C180.848 64.7703 181.935 64.5211 183.559 64.5211C185.192 64.5211 186.459 64.8131 186.559 65.2122C186.654 65.5924 187.732 66.0538 188.954 66.237C191.999 66.694 191.305 67.6633 188.104 67.4235C186.179 67.2794 185.519 67.4468 185.519 68.0788C185.519 69.1476 183.788 69.1999 183.467 68.1405C183.328 67.6841 183.213 67.832 183.191 68.4923C183.17 69.1187 182.978 69.4875 182.765 69.3113C182.551 69.1356 182.021 69.5435 181.587 70.2183C180.661 71.6585 178.423 71.8858 178.423 70.5406C178.423 69.852 178.013 69.7248 176.704 70.0068C175.355 70.2983 175.035 70.1881 175.217 69.4957C175.346 69.0098 175.752 68.6415 176.121 68.6768C176.491 68.712 177.084 68.3262 177.439 67.8201C178.001 67.02 177.875 66.9558 176.48 67.331C175.598 67.5683 174.521 67.8944 174.087 68.0555C173.654 68.2173 173.175 68.0807 173.023 67.7533C172.87 67.4254 173.822 66.9602 175.138 66.7198C176.453 66.4787 177.784 65.9122 178.094 65.4602C178.558 64.7867 178.803 64.8094 179.458 65.5855C179.897 66.1067 180.486 66.344 180.766 66.113ZM247.485 65.3941C247.485 65.9109 244.592 66.1709 244.362 65.6749C244.228 65.3866 244.876 65.1505 245.802 65.1505C246.728 65.1505 247.485 65.2601 247.485 65.3941ZM161.109 69.1841C160.703 70.5935 160.107 69.8891 160.25 68.1669C160.427 66.0255 160.439 66.0079 160.936 67.1422C161.189 67.7181 161.266 68.6371 161.109 69.1841ZM194.633 66.8224C194.313 66.9949 193.675 67.0055 193.214 66.8457C192.754 66.6858 193.016 66.5448 193.797 66.5322C194.577 66.5196 194.954 66.6499 194.633 66.8224ZM210.589 67.071C207.556 67.7892 196.771 67.7659 195.925 67.0389C195.455 66.6342 198.163 66.4523 203.967 66.4976C209.952 66.5454 212.045 66.7261 210.589 67.071ZM220.405 66.8602C219.689 67.0043 218.519 67.0043 217.803 66.8602C217.087 66.716 217.673 66.5983 219.104 66.5983C220.535 66.5983 221.12 66.716 220.405 66.8602ZM224.898 66.8262C224.573 67.0011 224.041 67.0011 223.716 66.8262C223.391 66.6518 223.657 66.5089 224.307 66.5089C224.957 66.5089 225.224 66.6518 224.898 66.8262ZM229.629 66.8262C229.304 67.0011 228.771 67.0011 228.446 66.8262C228.121 66.6518 228.387 66.5089 229.037 66.5089C229.688 66.5089 229.954 66.6518 229.629 66.8262ZM149.095 67.3467C149.095 68.2632 147.332 70.1831 146.507 70.1654C145.585 70.1453 145.589 70.0981 146.63 68.9437L147.712 67.7433L145.684 67.5009C143.903 67.2882 143.987 67.2454 146.375 67.1491C147.872 67.0886 149.095 67.1774 149.095 67.3467ZM151.332 67.4191C151.175 67.6281 150.767 67.6507 150.426 67.4688C150.049 67.268 150.161 67.1189 150.712 67.0886C151.21 67.0616 151.489 67.2101 151.332 67.4191ZM180.315 67.6684C180.315 68.0146 180.541 68.2978 180.816 68.2978C181.092 68.2978 181.186 68.0146 181.025 67.6684C180.864 67.3222 180.639 67.0389 180.524 67.0389C180.409 67.0389 180.315 67.3222 180.315 67.6684ZM328.245 67.4191C328.088 67.6281 327.68 67.6507 327.339 67.4688C326.961 67.268 327.074 67.1189 327.625 67.0886C328.123 67.0616 328.402 67.2101 328.245 67.4191ZM331.803 67.4556C331.478 67.6306 330.946 67.6306 330.62 67.4556C330.295 67.2813 330.561 67.1384 331.212 67.1384C331.862 67.1384 332.128 67.2813 331.803 67.4556ZM128.627 68.0486C128.47 68.2576 128.062 68.2802 127.721 68.0983C127.343 67.8975 127.455 67.7483 128.006 67.7181C128.505 67.691 128.784 67.8396 128.627 68.0486ZM141.892 68.4162C141.788 68.8272 141.422 69.2886 141.077 69.4416C140.724 69.5983 140.585 69.429 140.759 69.0538C140.932 68.6799 140.598 68.2676 139.997 68.114C139.234 67.9189 139.379 67.815 140.502 67.754C141.531 67.698 142.014 67.9283 141.892 68.4162ZM156.9 68.9273C156.728 69.6493 156.815 70.1862 157.105 70.1862C157.383 70.1862 157.61 70.4222 157.61 70.7105C157.61 71.5282 155.687 71.1373 155.267 70.2341C154.977 69.609 154.663 69.5901 153.876 70.1503C153.317 70.5481 152.63 70.6847 152.348 70.4531C151.781 69.986 154.973 67.8006 156.341 67.7194C156.991 67.681 157.127 67.9749 156.9 68.9273ZM246.303 68.2978C246.464 68.644 246.37 68.9273 246.094 68.9273C245.819 68.9273 245.593 68.644 245.593 68.2978C245.593 67.9516 245.687 67.6684 245.802 67.6684C245.917 67.6684 246.142 67.9516 246.303 68.2978ZM250.797 67.946C250.797 68.0989 250.584 68.3986 250.324 68.6126C250.063 68.8266 249.851 68.7013 249.851 68.335C249.851 67.9686 250.063 67.6684 250.324 67.6684C250.584 67.6684 250.797 67.793 250.797 67.946ZM319.986 68.0813C319.666 68.2538 319.027 68.2645 318.567 68.1046C318.107 67.9447 318.369 67.8037 319.149 67.7911C319.93 67.7785 320.306 67.9088 319.986 68.0813ZM322.569 68.0486C322.412 68.2576 322.004 68.2802 321.663 68.0983C321.285 67.8975 321.397 67.7483 321.948 67.7181C322.447 67.691 322.726 67.8396 322.569 68.0486ZM135.614 68.9273C135.775 69.2735 202.434 87.5155 202.158 87.5155C201.883 87.5155 134.904 69.2735 134.904 68.9273C134.904 68.5811 134.998 68.2978 135.113 68.2978C135.228 68.2978 135.453 68.5811 135.614 68.9273ZM191.54 68.678C191.383 68.887 190.975 68.9097 190.633 68.7278C190.256 68.527 190.368 68.3778 190.919 68.3476C191.418 68.3205 191.697 68.469 191.54 68.678ZM193.905 68.678C193.748 68.887 193.34 68.9097 192.999 68.7278C192.621 68.527 192.733 68.3778 193.284 68.3476C193.783 68.3205 194.062 68.469 193.905 68.678ZM198.29 69.242C198.29 69.7613 198.503 70.1862 198.763 70.1862C199.024 70.1862 199.236 69.8325 199.236 69.3994C199.235 68.8152 200.273 68.6654 203.262 68.8165C205.698 68.9399 207.179 69.2609 207.008 69.6291C206.853 69.9634 206.35 70.0786 205.891 69.8847C205.432 69.6908 204.438 69.9615 203.684 70.4852C202.469 71.3287 202.294 71.3299 202.158 70.4972C201.987 69.446 199.928 69.2074 199.473 70.1862C199.156 70.8692 197.205 71.0505 196.746 70.4393C196.286 69.8268 196.918 68.2978 197.631 68.2978C197.994 68.2978 198.29 68.7227 198.29 69.242ZM241.809 69.242C241.311 70.0414 241.415 70.1862 242.489 70.1862C243.214 70.1862 243.632 70.4556 243.465 70.8157C243.304 71.1619 242.724 71.4451 242.175 71.4451C241.627 71.4451 241.33 71.6478 241.516 71.8952C241.703 72.1426 243.578 72.2578 245.683 72.152C249.104 71.9795 249.48 72.0714 249.208 73.0137C249.008 73.7074 249.107 73.9693 249.495 73.7798C249.821 73.6205 250.034 73.1724 249.969 72.7827C249.904 72.3931 250.395 72.0746 251.061 72.0746C251.747 72.0746 252.145 72.3471 251.979 72.704C251.818 73.0503 251.912 73.3335 252.188 73.3335C252.463 73.3335 252.689 73.0503 252.689 72.704C252.689 71.6566 254.458 71.9991 254.778 73.1088C254.942 73.6778 255.005 74.238 254.918 74.3539C254.831 74.4691 252.662 74.6409 250.098 74.7353C246.695 74.8606 245.383 74.695 245.239 74.1203C245.13 73.6879 244.621 73.3335 244.107 73.3335C243.593 73.3335 243.304 73.6168 243.465 73.963C243.635 74.3299 243.154 74.5924 242.31 74.5924C241.514 74.5924 240.863 74.3092 240.863 73.963C240.863 73.6168 240.075 73.3335 239.113 73.3335C237.199 73.3335 237.444 72.327 239.444 71.9707C240.333 71.8121 240.663 71.3306 240.776 70.0288C240.868 68.9676 241.211 68.2978 241.662 68.2978C242.263 68.2978 242.29 68.4716 241.809 69.242ZM288.875 69.7494C289.396 69.93 288.81 70.049 287.575 70.0144C286.339 69.9798 285.328 69.7015 285.328 69.3969C285.328 69.0916 285.78 69.0337 286.333 69.2672C287.102 69.5914 287.247 69.4907 286.952 68.8373C286.648 68.1656 286.711 68.1367 287.247 68.7019C287.622 69.0979 288.355 69.5687 288.875 69.7494ZM229.747 69.5568C229.586 69.903 229.254 70.1862 229.009 70.1862C228.764 70.1862 228.564 69.903 228.564 69.5568C228.564 69.2105 228.896 68.9273 229.302 68.9273C229.707 68.9273 229.908 69.2105 229.747 69.5568ZM179.369 70.1862C180.286 70.9749 180.788 70.9749 180.788 70.1862C180.788 69.84 180.309 69.5612 179.724 69.5662C178.864 69.5744 178.795 69.6927 179.369 70.1862ZM223.834 70.4594C223.834 70.9705 224.398 71.4577 225.135 71.583C226.178 71.7605 226.05 71.8637 224.484 72.1061C222.706 72.3811 222.533 72.2817 222.533 70.9825C222.533 70.1925 222.823 69.5568 223.184 69.5568C223.541 69.5568 223.834 69.9628 223.834 70.4594ZM238.498 70.0924C238.498 70.4084 237.642 70.6829 236.596 70.7024C235.55 70.7213 234.79 70.5305 234.907 70.2787C235.225 69.5952 238.498 69.4252 238.498 70.0924ZM91.1493 70.8157C91.3101 71.1619 91.1095 71.4451 90.7041 71.4451C90.2988 71.4451 89.9667 71.1619 89.9667 70.8157C89.9667 70.4695 90.1668 70.1862 90.4118 70.1862C90.6568 70.1862 90.9884 70.4695 91.1493 70.8157ZM185.046 70.8528C185.046 71.2192 184.809 71.3249 184.52 71.087C184.231 70.849 183.808 71.0448 183.581 71.5219C183.254 72.208 183.166 72.1589 183.161 71.2878C183.156 70.6029 183.511 70.1862 184.1 70.1862C184.62 70.1862 185.046 70.4865 185.046 70.8528ZM191.668 70.6583C191.668 70.9176 191.156 71.1304 190.53 71.1304C189.905 71.1304 189.492 70.9176 189.613 70.6583C189.733 70.399 190.245 70.1862 190.75 70.1862C191.255 70.1862 191.668 70.399 191.668 70.6583ZM281.78 70.8157C281.619 71.1619 281.021 71.425 280.451 71.4011C279.452 71.3583 279.449 71.3375 280.361 70.8157C281.663 70.071 282.126 70.071 281.78 70.8157ZM316.548 70.8157C316.548 71.1619 317.027 71.4495 317.612 71.4546C318.197 71.4602 318.996 71.7391 319.386 72.0746C319.909 72.5247 319.537 72.7198 317.967 72.8174C316.796 72.8904 315.093 73.0622 314.183 73.1988C313.272 73.336 305.183 73.5312 296.207 73.6325C287.232 73.7338 281.165 73.6054 282.726 73.3467C284.287 73.0887 286.629 72.7009 287.929 72.4856C292.927 71.6591 298.989 71.4439 299.285 72.0815C299.45 72.4353 299.802 72.5448 300.069 72.3251C300.336 72.1061 301.052 72.2804 301.661 72.7135C302.268 73.1466 303.153 73.2951 303.626 73.0433C304.099 72.7915 306.015 72.536 307.885 72.4756C309.754 72.4151 311.422 72.1803 311.593 71.9537C311.763 71.7278 312.628 71.6994 313.515 71.8908C314.798 72.1677 315.129 72.0293 315.129 71.2129C315.129 70.6482 315.448 70.1862 315.838 70.1862C316.228 70.1862 316.548 70.4695 316.548 70.8157ZM330.463 70.973C330.683 71.6025 330.794 71.6025 331.014 70.973C331.311 70.127 335.26 69.8576 335.633 70.6583C335.753 70.9176 334.914 71.031 333.768 70.9095C332.467 70.7716 331.685 70.9491 331.685 71.3816C331.685 72.4315 329.46 72.2112 329.148 71.1304C328.817 69.9823 330.063 69.8331 330.463 70.973ZM220.759 71.4451C220.598 71.7913 219.894 72.0545 219.194 72.0305C218.057 71.9909 218.022 71.9279 218.867 71.4451C220.181 70.6936 221.108 70.6936 220.759 71.4451ZM265.224 71.4451C265.063 71.7913 265.37 72.0746 265.906 72.0746C266.441 72.0746 266.88 71.7913 266.88 71.4451C266.88 70.7017 267.796 70.8698 268.575 71.7561C269.29 72.5687 266.861 74.0033 265.545 73.5456C265.037 73.3688 264.478 73.5318 264.303 73.9082C264.128 74.2846 263.666 74.5924 263.276 74.5924C262.886 74.5924 262.708 74.2871 262.882 73.9145C263.1 73.4449 262.527 73.37 261.017 73.6709C259.695 73.9346 258.838 73.8648 258.838 73.4928C258.838 73.156 260.059 72.7122 261.55 72.5077C263.042 72.3031 264.337 71.8385 264.428 71.4753C264.519 71.1128 264.801 70.8157 265.055 70.8157C265.309 70.8157 265.385 71.0989 265.224 71.4451ZM278.748 71.396C278.382 71.7051 277.456 71.8524 276.69 71.7234C275.617 71.5427 275.241 71.7731 275.054 72.7261C274.92 73.4065 274.629 73.963 274.408 73.963C273.897 73.963 274.447 71.9134 275.123 71.2972C275.402 71.0429 276.482 70.8352 277.523 70.8352C278.814 70.8352 279.203 71.0133 278.748 71.396ZM112.199 72.0009C112.199 72.7506 110.37 73.3493 110.068 72.699C109.936 72.4145 110.095 72.0387 110.422 71.8631C111.391 71.3432 112.199 71.4061 112.199 72.0009ZM118.348 72.0746C118.348 72.4208 118.148 72.704 117.903 72.704C117.658 72.704 117.327 72.4208 117.166 72.0746C117.005 71.7284 117.206 71.4451 117.611 71.4451C118.016 71.4451 118.348 71.7284 118.348 72.0746ZM126.863 72.006C126.863 72.9577 123.409 73.1604 122.145 72.2829C121.039 71.5144 121.169 71.4527 123.907 71.4489C125.533 71.447 126.863 71.6975 126.863 72.006ZM128.318 72.2477C128.259 73.0005 127.61 72.8545 127.407 72.0431C127.303 71.6277 127.473 71.4011 127.785 71.5395C128.098 71.678 128.337 71.9965 128.318 72.2477ZM132.506 74.2305C132.524 74.5509 132.145 74.2676 131.662 73.601C131.068 72.7796 130.953 72.2445 131.308 71.9405C131.781 71.5326 132.422 72.7569 132.506 74.2305ZM136.521 71.8272C137.484 72.3188 137.491 73.3335 136.532 73.3335C136.127 73.3335 135.918 73.5998 136.07 73.9246C136.22 74.25 135.915 74.4735 135.39 74.4206C134.409 74.3224 134.256 72.7915 135.141 71.9267C135.72 71.3602 135.621 71.3671 136.521 71.8272ZM322.224 72.0746C322.224 72.4208 321.851 72.6996 321.396 72.6946C320.689 72.6864 320.672 72.5958 321.278 72.0746C322.171 71.3066 322.224 71.3066 322.224 72.0746ZM141.309 73.0547C140.099 73.7156 140.034 73.8623 140.836 74.1329C141.586 74.3866 141.536 74.4602 140.577 74.5194C139.892 74.5616 139.16 74.104 138.848 73.4386C138.351 72.3811 138.491 72.2848 140.508 72.2873C142.689 72.2899 142.696 72.2968 141.309 73.0547ZM147.811 73.7804C148.002 75.1073 147.89 75.2773 147.027 74.9688C146.473 74.7712 145.169 74.5968 144.129 74.5817C142.597 74.5597 142.396 74.43 143.074 73.9051C143.535 73.5482 143.793 73.0005 143.648 72.6877C143.503 72.3755 144.33 72.1451 145.486 72.1759C147.329 72.225 147.616 72.4233 147.811 73.7804ZM161.711 73.6879C162.202 74.5817 162.47 74.6711 162.91 74.0863C163.697 73.0383 164.705 73.1453 164.705 74.2777C164.705 75.0135 164.105 75.2112 161.985 75.1722C160.489 75.1451 159.532 74.9795 159.857 74.8052C161.247 74.058 160.257 73.3335 157.846 73.3335C155.032 73.3335 154.275 74.3526 156.782 74.7668C157.738 74.9242 157.301 75.0582 155.627 75.1212C154.117 75.1778 152.796 74.9216 152.618 74.5377C152.389 74.0448 152.156 74.0448 151.785 74.5377C151.503 74.9141 150.952 75.2219 150.562 75.2219C150.037 75.2219 149.991 75.0375 150.383 74.5156C150.675 74.1273 150.796 73.4009 150.652 72.9011C150.43 72.1331 151.216 72.0349 155.734 72.2647C160.218 72.4926 161.18 72.721 161.711 73.6879ZM172.271 73.4909C172.275 74.194 169.065 74.0624 168.732 73.3455C168.559 72.9735 169.203 72.7859 170.357 72.8734C171.409 72.9533 172.27 73.2315 172.271 73.4909ZM189.303 73.2964C189.303 73.6224 189.09 74.0631 188.831 74.2764C188.006 74.955 175.228 74.6434 174.166 73.9189C173.626 73.5507 179.485 72.9023 184.218 72.8066C187.134 72.7481 189.303 72.9565 189.303 73.2964ZM210.047 73.6615C210.546 74.3249 209.651 74.5496 205.239 74.8688C200.715 75.1967 195.925 74.3948 195.925 73.3096C195.925 72.7563 209.624 73.0981 210.047 73.6615ZM226.909 73.9403C223.857 74.3029 221.563 74.036 222.323 73.4065C222.58 73.1931 224.356 73.1503 226.269 73.3109L229.747 73.6029L226.909 73.9403ZM235.187 73.3335C235.187 73.6797 235.093 73.963 234.978 73.963C234.863 73.963 234.638 73.6797 234.477 73.3335C234.316 72.9873 234.41 72.704 234.686 72.704C234.961 72.704 235.187 72.9873 235.187 73.3335ZM245.83 73.3335C245.669 73.6797 245.87 73.963 246.275 73.963C246.68 73.963 247.012 73.6797 247.012 73.3335C247.012 72.9873 246.812 72.704 246.567 72.704C246.322 72.704 245.991 72.9873 245.83 73.3335ZM343.895 73.134C344.236 73.3159 344.644 73.2932 344.801 73.0843C344.958 72.8753 344.679 72.7267 344.181 72.7538C343.63 72.784 343.517 72.9332 343.895 73.134ZM233.085 73.9038C232.94 74.2173 232.395 74.3262 231.875 74.1449C230.573 73.6923 230.691 73.3335 232.14 73.3335C232.805 73.3335 233.231 73.5903 233.085 73.9038ZM257.537 73.7502C257.212 73.9252 256.68 73.9252 256.355 73.7502C256.03 73.5759 256.296 73.433 256.946 73.433C257.596 73.433 257.863 73.5759 257.537 73.7502ZM279.297 73.7502C278.972 73.9252 278.44 73.9252 278.114 73.7502C277.789 73.5759 278.055 73.433 278.705 73.433C279.356 73.433 279.622 73.5759 279.297 73.7502ZM340.436 76.4808C340.596 76.827 340.822 77.1103 340.937 77.1103C341.052 77.1103 341.145 76.827 341.145 76.4808C341.145 76.1346 340.92 75.8513 340.644 75.8513C340.369 75.8513 340.275 76.1346 340.436 76.4808ZM352.882 76.2813C353.224 76.4632 353.632 76.4405 353.789 76.2315C353.946 76.0226 353.667 75.874 353.168 75.9011C352.617 75.9313 352.505 76.0805 352.882 76.2813ZM159.501 84.1917C159.502 84.451 155.191 84.6109 149.923 84.5467C143.292 84.4655 141.582 84.3201 144.365 84.0746C150.141 83.5647 159.5 83.6371 159.501 84.1917ZM164.232 84.4227C164.232 84.5549 163.221 84.6304 161.985 84.5895C160.053 84.5253 159.937 84.4548 161.158 84.0859C162.484 83.685 164.232 83.877 164.232 84.4227ZM139.753 84.451C139.428 84.626 138.896 84.626 138.57 84.451C138.245 84.2767 138.511 84.1338 139.162 84.1338C139.812 84.1338 140.078 84.2767 139.753 84.451ZM96.9425 85.793C97.2703 86.0801 95.3294 86.3312 92.5726 86.3583C89.8447 86.3854 87.6985 86.2229 87.8035 85.997C88.0902 85.3801 96.2622 85.1982 96.9425 85.793ZM313.148 86.3526C313.489 86.5345 313.897 86.5119 314.054 86.3029C314.211 86.0939 313.932 85.9454 313.434 85.9724C312.883 86.0026 312.771 86.1518 313.148 86.3526ZM278.577 86.9324C278.42 87.1413 278.012 87.164 277.671 86.9821C277.293 86.7813 277.405 86.6321 277.957 86.6019C278.455 86.5748 278.734 86.7234 278.577 86.9324ZM114.183 88.2807C116.966 88.3914 121.649 88.3921 124.59 88.2813C127.531 88.1705 125.255 88.0799 119.531 88.0792C113.807 88.0786 111.401 88.1693 114.183 88.2807ZM156.578 88.5778C156.83 88.9133 157.432 89.0769 157.915 88.9403C158.565 88.7572 158.446 88.5985 157.456 88.3304C156.592 88.0956 156.282 88.1837 156.578 88.5778ZM303.214 88.241C303.555 88.4229 303.964 88.4003 304.121 88.1913C304.278 87.9823 303.999 87.8337 303.5 87.8608C302.949 87.891 302.837 88.0402 303.214 88.241ZM160.335 88.8856C160.924 89.036 161.775 89.0303 162.228 88.873C162.68 88.7156 162.198 88.5922 161.158 88.5992C160.117 88.6061 159.747 88.7351 160.335 88.8856ZM166.958 88.8856C167.546 89.036 168.398 89.0303 168.85 88.873C169.302 88.7156 168.821 88.5922 167.78 88.5992C166.739 88.6061 166.369 88.7351 166.958 88.8856ZM181.625 88.8969C182.475 89.0366 183.752 89.0341 184.463 88.8906C185.174 88.7465 184.478 88.6319 182.917 88.6357C181.356 88.6388 180.775 88.7565 181.625 88.8969ZM188.482 88.8925C189.201 89.0366 190.265 89.0329 190.847 88.8837C191.429 88.7345 190.84 88.6162 189.539 88.6206C188.239 88.6256 187.763 88.7477 188.482 88.8925ZM250.442 88.8742C250.897 89.0329 251.642 89.0329 252.097 88.8742C252.552 88.7162 252.18 88.5866 251.27 88.5866C250.359 88.5866 249.987 88.7162 250.442 88.8742ZM258.247 88.8572C258.572 89.0322 259.104 89.0322 259.429 88.8572C259.755 88.6829 259.489 88.54 258.838 88.54C258.188 88.54 257.922 88.6829 258.247 88.8572Z" fill="#34696F"/>
</svg>
