<svg width="620" height="150" viewBox="0 0 620 150" fill="none" xmlns="http://www.w3.org/2000/svg">
<path fill-rule="evenodd" clip-rule="evenodd" d="M447.226 0.775048C440.905 1.18636 435.377 1.67043 434.941 1.85183C434.505 2.03217 437.18 2.47828 440.885 2.84213C447.603 3.50233 447.593 3.50445 437.319 3.82927C431.652 4.00856 423.271 4.52849 418.694 4.9841C412.936 5.55782 415.867 5.66223 428.205 5.32264C456.402 4.54748 485.356 3.86197 489.079 3.8799C491.157 3.89044 492.302 3.48335 492.004 2.84213C491.683 2.14924 498.617 1.7875 512.214 1.7875C526.908 1.7875 532.759 2.11971 532.382 2.93283C532.047 3.6542 532.543 3.98747 533.722 3.83138C534.752 3.69428 536.129 3.86408 536.783 4.20894C537.437 4.55275 543.321 5.34162 549.86 5.96175C556.398 6.58187 563.086 7.50784 564.72 8.01934C566.355 8.52978 567.692 8.5551 567.692 8.07524C567.692 6.87717 565.594 6.18005 553.426 3.33359C551.901 2.97713 549.048 2.19459 547.086 1.59555C542.86 0.30468 464.387 -0.339702 447.226 0.775048ZM205.897 1.88558C202.172 2.47301 202.279 2.52047 207.68 2.67655C213.369 2.84002 215.088 2.39391 211.642 1.64723C210.661 1.43419 208.076 1.54177 205.897 1.88558ZM197.179 2.40446C196.307 2.5848 192.473 3.03724 188.659 3.40953C184.845 3.78181 181.724 4.43569 181.724 4.86387C181.724 5.291 182.883 5.45236 184.3 5.22139C186.275 4.89973 186.598 5.06109 185.687 5.91534C184.783 6.76116 185.354 7.00267 188.064 6.91936C191.317 6.82022 191.422 6.74007 189.253 6.00604L186.876 5.20135L189.782 5.07585C191.38 5.0073 192.806 5.37431 192.952 5.89214C193.102 6.42684 196.121 6.49223 199.952 6.04295C207.219 5.19292 207.093 4.78688 199.556 4.76474C196.941 4.7563 195.693 4.51795 196.782 4.23425C198.654 3.74701 201.189 1.61243 199.517 1.93093C199.103 2.01003 198.05 2.22306 197.179 2.40446ZM470.441 2.56687C467.734 2.77253 463.098 2.77358 460.138 2.57004C457.177 2.36755 459.391 2.19881 465.058 2.19775C470.725 2.19564 473.147 2.36227 470.441 2.56687ZM481.503 2.48566C480.959 2.77885 480.067 2.77885 479.522 2.48566C478.977 2.19353 479.423 1.95413 480.512 1.95413C481.602 1.95413 482.048 2.19353 481.503 2.48566ZM541.736 3.5403C541.192 3.83349 540.3 3.83349 539.755 3.5403C539.211 3.24817 539.656 3.00877 540.746 3.00877C541.835 3.00877 542.282 3.24817 541.736 3.5403ZM547.299 3.53397C546.763 3.82294 545.693 3.84087 544.922 3.573C544.15 3.30512 544.59 3.06888 545.897 3.04779C547.205 3.02669 547.836 3.245 547.299 3.53397ZM208.076 4.62341C208.838 4.88918 210.088 4.88918 210.85 4.62341C211.612 4.3587 210.989 4.14144 209.463 4.14144C207.937 4.14144 207.314 4.3587 208.076 4.62341ZM215.605 4.59494C216.15 4.88813 217.042 4.88813 217.587 4.59494C218.132 4.3028 217.686 4.0634 216.596 4.0634C215.506 4.0634 215.061 4.3028 215.605 4.59494ZM63.8777 6.33719C63.6494 6.82866 59.4894 7.13345 54.6327 7.01427C45.8204 6.80018 30.3856 8.3526 27.7877 9.71519C26.9183 10.1708 26.4768 11.4068 26.5814 13.0911C26.7598 15.9576 26.8826 16.0599 31.3391 17.0449C34.9864 17.8517 35.2804 19.5581 31.7353 19.344C29.3752 19.2016 29.1786 19.4316 29.3878 22.0892C29.5876 24.6288 29.3411 24.9916 27.4065 25.0053C24.635 25.0264 23.6586 25.964 23.4398 28.8157C23.2979 30.6708 23.8123 31.1749 26.4118 31.7276C30.6195 32.6229 30.392 34.0815 25.9403 34.7491C22.4238 35.2764 18.0513 39.0752 18.8882 40.8765C19.0959 41.3247 18.1956 42.005 16.8871 42.3878C14.8304 42.989 14.6608 43.2864 15.6348 44.5825C16.2546 45.4072 17.2334 46.0896 17.8096 46.098C18.599 46.1107 18.5712 46.3543 17.697 47.0904C16.8847 47.7738 17.8112 48.163 20.7951 48.3919C25.0011 48.7146 25.0526 48.7589 25.124 52.1464C25.1644 54.032 24.929 55.5739 24.6025 55.5739C24.2759 55.5739 24.0081 56.5231 24.0081 57.6832C24.0081 59.2462 23.4438 59.8294 21.8286 59.9359C19.9288 60.0614 19.8805 60.1384 21.4529 60.5402C23.7505 61.1266 27.9296 63.9962 26.499 64.0047C25.8943 64.0078 25.6138 64.6691 25.8579 65.516C26.503 67.7529 24.9338 68.9594 19.718 70.2376C15.0515 71.3808 13.0409 72.4481 15.554 72.4481C16.2808 72.4481 16.8752 73.16 16.8752 74.03C16.8752 75.2608 15.8187 75.612 12.1199 75.612C6.99218 75.612 5.39758 77.6264 10.3367 77.8647C12.1762 77.9533 12.6295 78.1821 11.5255 78.4658C10.5444 78.7169 9.7423 79.3317 9.7423 79.8327C9.7423 80.3336 9.02346 81.0465 8.14533 81.4178C7.26719 81.788 6.74569 82.5146 6.98504 83.0303C7.22518 83.5471 6.24956 84.4193 4.81744 84.9687C2.56741 85.8325 3.02154 85.9854 8.15721 86.0951C14.2606 86.2259 14.4873 87.3364 8.69377 88.7222C6.12514 89.336 5.81208 89.6861 6.64187 91.016C7.42966 92.2795 7.75381 92.3185 8.30066 91.2174C8.8285 90.1533 9.24458 90.3115 10.1703 91.9272C11.2616 93.8308 11.2101 94.0913 9.5608 95.0405C8.0201 95.9264 8.38943 96.1584 12.1199 96.6541C16.0319 97.173 16.3061 97.3639 14.7948 98.5166C13.8691 99.2232 11.5509 100.118 9.64323 100.504C3.71422 101.704 3.37263 102.961 8.94976 103.057L14.1013 103.144L7.36467 106.516L0.628059 109.888L4.59077 110.415L8.55348 110.942L3.88383 112.369C0.620928 113.367 -0.452967 114.077 0.317384 114.726C0.924472 115.238 2.13389 115.697 3.00569 115.746C4.57968 115.836 4.57968 115.842 3.01996 116.653C1.88028 117.245 2.85986 117.719 6.5864 118.381C11.241 119.205 11.4257 119.327 8.55348 119.669C6.80989 119.877 5.0449 120.491 4.6304 121.032C4.16359 121.642 7.47642 122.048 13.3484 122.099C20.6627 122.164 22.3231 122.424 20.6398 123.241C19.3764 123.856 18.4603 125.09 18.4603 126.179C18.4603 127.702 17.0749 128.431 11.1396 130.034C7.11343 131.122 4.49091 132.184 5.31119 132.394C6.50476 132.699 6.58164 132.962 5.69637 133.708C4.88322 134.393 5.11464 134.647 6.57213 134.672C7.66187 134.69 9.07815 135.146 9.72011 135.686C11.0167 136.777 10.6799 137.043 6.46117 138.266C5.3104 138.599 4.17548 139.544 3.93851 140.367C3.57711 141.617 4.94662 141.782 12.3712 141.375C18.9215 141.016 20.9243 141.191 20.0453 142.046C19.0428 143.021 19.1054 143.176 20.4416 143.035C23.0903 142.752 23.6704 143.09 22.423 144.187C21.6146 144.897 22.7551 144.99 25.9894 144.478C31.9097 143.538 31.607 143.527 45.0104 145.156C53.2243 146.153 65.2654 146.316 91.3742 145.783C113.046 145.34 133.364 145.492 144.078 146.176C179.39 148.431 182.903 148.59 182.398 147.896C182.115 147.507 178.192 146.931 173.68 146.616C169.169 146.303 165.138 145.622 164.724 145.105C163.692 143.815 231.936 143.915 256.005 145.239C269.811 145.998 374.093 147.484 410.372 147.439C418.467 147.428 453.769 146.095 455.389 145.739C456.726 145.444 457.416 145.662 457.125 146.288C456.86 146.86 456.999 147.327 457.435 147.327C457.871 147.327 458.448 146.853 458.718 146.273C459.36 144.89 462.284 144.906 462.284 146.292C462.284 147.484 481.006 147.555 494.678 146.415C500.939 145.893 502.992 146.046 503.283 147.055C503.494 147.785 504.183 148.382 504.817 148.382C505.45 148.382 505.747 147.907 505.478 147.327C505.208 146.747 505.633 146.191 506.421 146.092C507.21 145.993 508.39 145.806 509.044 145.677C509.698 145.548 512.194 145.385 514.592 145.314C517.248 145.236 518.545 144.843 517.911 144.309C516.883 143.441 522.505 142.633 538.368 141.372C546.343 140.738 549.952 139.006 543.876 138.73C541.937 138.641 539.993 138.459 539.557 138.324C539.121 138.189 535.376 137.959 531.235 137.813L523.706 137.547L528.858 136.726C531.691 136.275 537.515 135.757 541.801 135.576C546.086 135.395 549.762 134.88 549.971 134.432C550.179 133.984 551.063 133.617 551.935 133.617C552.807 133.617 553.328 133.205 553.094 132.699C552.857 132.19 551.163 132.17 549.283 132.654C545.488 133.631 541.872 133.876 542.441 133.119C543.204 132.103 559.624 128.337 560.761 128.918C561.425 129.256 562.147 128.802 562.414 127.877C562.75 126.711 564.101 126.185 567.073 126.063L571.259 125.891L566.9 125.268C563.47 124.778 562.996 124.511 564.674 124.017C565.848 123.67 568.523 123.739 570.618 124.17C572.714 124.6 574.51 124.856 574.609 124.739C574.708 124.621 574.22 123.446 573.526 122.127C572.69 120.538 571.998 120.083 571.477 120.777C570.954 121.472 569.849 121.454 568.199 120.722C563.771 118.759 564.47 118.317 571.397 118.702C576.229 118.97 578.037 118.741 577.652 117.911C577.318 117.192 577.814 116.706 578.939 116.648C580.569 116.564 572.78 114.457 566.503 113.285C565.196 113.04 566.801 112.762 570.07 112.667C573.339 112.571 576.549 112.032 577.203 111.47C578.189 110.622 578.121 110.441 576.806 110.415C575.935 110.397 574.686 109.881 574.032 109.269C573.163 108.454 573.855 108.334 576.606 108.822C581.524 109.694 582.564 108.773 580.294 105.558C579.29 104.135 578.938 103.033 579.489 103.033C580.026 103.033 580.246 102.558 579.977 101.978C579.707 101.398 577.992 100.916 576.165 100.907C574.338 100.898 572.309 100.396 571.655 99.7906C570.8 98.9996 571.633 98.8836 574.627 99.3793C578.861 100.078 580.462 98.6737 577.005 97.2932C575.266 96.5993 575.26 96.5571 576.806 95.5689C578.063 94.7674 577.811 94.6482 575.597 94.9983C572.406 95.5035 569.055 93.2297 571.3 92.0833C572.003 91.7247 573.218 91.4315 574 91.4315C574.783 91.4315 575.867 90.7197 576.41 89.8496C577.185 88.6072 577.188 88.2676 576.422 88.2676C575.882 88.2676 575.651 87.5631 575.904 86.6857C576.197 85.669 575.874 85.0774 574.999 85.0299C573.868 84.9677 573.906 84.8084 575.221 84.0913C576.694 83.2876 576.649 83.1442 574.575 82.0558C573.349 81.4125 571.832 80.8852 571.207 80.8852C570.582 80.8852 570.07 80.4106 570.07 79.8305C570.07 79.2505 572.12 78.7295 574.627 78.6736L579.184 78.5713L576.212 76.9482C572.99 75.1891 572.405 73.1167 574.676 71.5C575.465 70.9379 580.102 70.1416 584.979 69.7303C589.856 69.32 593.846 68.6166 593.846 68.1673C593.846 67.7181 592.865 66.8743 591.667 66.2911C589.842 65.4052 590.424 65.2186 595.233 65.149C598.494 65.1015 600.979 64.609 600.979 64.011C600.979 63.431 600.244 62.9564 599.347 62.9564C598.45 62.9564 597.926 62.5029 598.184 61.9481C598.441 61.3934 599.176 61.2067 599.815 61.5337C600.455 61.8595 600.979 61.6813 600.979 61.1371C600.979 60.5919 599.284 59.6174 597.214 58.9709C594.019 57.9732 595.246 57.8467 605.338 58.1314L617.226 58.4678L606.923 56.54C588.894 53.1662 589.217 53.2537 591.468 52.3562C593.302 51.6254 593.32 51.5579 591.713 51.4608C589.297 51.3142 588.683 49.495 590.862 48.9382C591.861 48.6819 591.193 48.4151 589.355 48.3349C587.539 48.2558 585.934 47.7232 585.788 47.1516C585.643 46.58 581.423 45.7236 576.41 45.2501C567.483 44.4064 567.365 44.3621 570.64 43.0934C572.775 42.2676 578.334 41.8837 585.995 42.0324C597.082 42.2486 598.092 42.1083 599.128 40.2195C600.116 38.4192 601.443 38.1302 610.126 37.8223C617.999 37.5439 620 37.1695 620 35.9767C620 35.1541 619.69 34.4812 619.311 34.4812C618.197 34.4812 604.672 31.3036 603.158 30.6866C600.295 29.5181 601.931 28.1492 606.329 28.0321C610.837 27.9119 610.852 27.9013 607.716 27.0386C605.972 26.5588 601.692 26.1032 598.205 26.0272C591.995 25.8901 583.572 24.4569 585.921 23.9348C588.157 23.4381 579.984 21.9817 574.52 21.9036C569.757 21.8351 568.829 21.4902 567.226 19.189L565.39 16.5524L568.721 16.4575L572.051 16.3626L569.341 15.3259C567.851 14.7564 565.979 14.518 565.181 14.7954C564.382 15.0727 563.729 14.9051 563.729 14.422C563.729 13.939 563.105 13.3263 562.342 13.0605C561.58 12.7958 562.56 12.4636 564.522 12.3244L568.088 12.0702L564.522 11.2708C552.865 8.6595 469.968 7.21782 443.263 9.16257C435.635 9.71836 425.768 10.1845 421.336 10.1982C415.648 10.2172 413.16 10.6127 412.876 11.5429C412.573 12.5353 412.311 12.5574 411.813 11.6294C411.255 10.5895 394.797 9.39247 393.333 10.2847C391.902 11.1569 183.128 11.0419 169.043 10.1613C159.672 9.57493 148.972 8.91051 145.267 8.68482C141.562 8.45912 130.534 8.02672 120.761 7.72615C110.987 7.42453 99.3963 6.88033 95.0032 6.51754C82.3004 5.46712 64.3302 5.36271 63.8777 6.33719ZM466.098 5.67172C466.67 5.97651 467.354 5.93854 467.617 5.5884C467.88 5.23827 467.413 4.98937 466.577 5.03472C465.654 5.08534 465.466 5.33529 466.098 5.67172ZM444.7 6.72635C445.271 7.03114 445.955 6.99318 446.218 6.64304C446.482 6.2929 446.014 6.04401 445.179 6.08935C444.255 6.13998 444.067 6.38993 444.7 6.72635ZM451.04 6.72635C451.612 7.03114 452.296 6.99318 452.559 6.64304C452.822 6.2929 452.354 6.04401 451.519 6.08935C450.596 6.13998 450.408 6.38993 451.04 6.72635ZM196.584 8.85989C197.565 9.11089 199.169 9.11089 200.151 8.85989C201.132 8.60783 200.329 8.40217 198.367 8.40217C196.406 8.40217 195.603 8.60783 196.584 8.85989ZM357.089 13.0257C356.553 13.3147 355.483 13.3326 354.711 13.0647C353.94 12.7968 354.379 12.5606 355.687 12.5395C356.995 12.5184 357.626 12.7367 357.089 13.0257ZM560.344 12.9709C560.081 13.321 559.397 13.359 558.826 13.0542C558.194 12.7177 558.381 12.4678 559.305 12.4172C560.14 12.3718 560.608 12.6207 560.344 12.9709ZM442.243 14.8439C442.513 15.2035 439.911 15.5515 436.461 15.618C433.009 15.6834 421.092 15.9787 409.976 16.2729C398.861 16.5682 359.516 17.1746 322.544 17.6229C285.571 18.0711 253.376 18.7598 250.999 19.1552C246.632 19.8808 241.406 19.0434 242.364 17.7705C242.915 17.0375 250.418 16.8414 292.482 16.4649C308.536 16.3204 318.834 15.8352 318.834 15.2225C318.834 14.6699 319.336 14.4737 319.949 14.7869C321.643 15.6517 348.037 15.5051 367.179 14.5243C385.894 13.5646 441.46 13.8019 442.243 14.8439ZM462.944 13.9169C462.374 14.6751 448.789 14.7669 448.226 14.016C447.966 13.6711 451.261 13.3885 455.547 13.3885C459.833 13.3885 463.162 13.6258 462.944 13.9169ZM466.032 14.0255C465.769 14.3756 465.085 14.4136 464.513 14.1088C463.881 13.7724 464.069 13.5224 464.992 13.4718C465.827 13.4265 466.295 13.6753 466.032 14.0255ZM405.825 15.1888C406.811 15.4408 408.237 15.4313 408.995 15.1677C409.753 14.904 408.946 14.6973 407.202 14.7089C405.459 14.7205 404.839 14.9367 405.825 15.1888ZM514.072 15.2341C514.273 15.6686 509.509 16.0251 503.486 16.0251C497.463 16.0251 492.267 15.6686 491.939 15.2341C491.612 14.7996 496.375 14.4431 502.525 14.4431C508.675 14.4431 513.871 14.7996 514.072 15.2341ZM518.158 15.4978C515.994 16.7359 515.384 16.7359 515.384 15.4978C515.384 14.9177 516.365 14.4769 517.564 14.517C519.495 14.5834 519.563 14.6941 518.158 15.4978ZM373.371 16.2181C373.942 16.5229 374.626 16.4849 374.89 16.1348C375.153 15.7846 374.685 15.5357 373.85 15.5811C372.926 15.6317 372.739 15.8816 373.371 16.2181ZM378.091 16.2624C379.515 16.4965 381.655 16.4923 382.846 16.2518C384.037 16.0103 382.871 15.8184 380.256 15.8247C377.64 15.83 376.666 16.0272 378.091 16.2624ZM218.106 18.7239C217.535 19.1932 216.745 19.3113 216.351 18.9876C215.957 18.6638 216.101 18.0141 216.671 17.5448C217.242 17.0755 218.032 16.9574 218.426 17.2812C218.82 17.6049 218.676 18.2546 218.106 18.7239ZM232.447 17.8359C232.447 18.2904 229.861 18.6058 226.701 18.5372C222.436 18.4444 221.567 18.2092 223.332 17.625C226.375 16.6167 232.447 16.7581 232.447 17.8359ZM240.372 17.1061C240.372 18.2324 236.093 19.7775 234.886 19.0867C233.899 18.5214 234.052 18.2018 235.617 17.567C238.037 16.584 240.372 16.3583 240.372 17.1061ZM214.587 18.7218C214.332 19.2681 211.382 19.7089 208.029 19.7005C204.677 19.691 202.351 19.3356 202.86 18.9095C204.271 17.7294 215.128 17.5554 214.587 18.7218ZM468.045 18.2989C467.508 18.5878 466.439 18.6058 465.667 18.3379C464.896 18.07 465.335 17.8338 466.643 17.8127C467.951 17.7916 468.582 18.0099 468.045 18.2989ZM523.508 19.4062C522.528 19.6572 520.922 19.6572 519.941 19.4062C518.961 19.1542 519.763 18.9485 521.725 18.9485C523.686 18.9485 524.488 19.1542 523.508 19.4062ZM31.9335 33.4266C31.9335 34.0066 31.7766 34.4812 31.584 34.4812C31.3914 34.4812 31.0141 34.0066 30.7447 33.4266C30.4752 32.8465 30.6329 32.3719 31.0942 32.3719C31.5554 32.3719 31.9335 32.8465 31.9335 33.4266ZM10.3866 72.1138C10.9581 72.4186 11.642 72.3806 11.9051 72.0305C12.1683 71.6803 11.7007 71.4314 10.8653 71.4768C9.94202 71.5274 9.75419 71.7773 10.3866 72.1138ZM573.818 89.9593C573.555 90.3094 572.871 90.3474 572.299 90.0426C571.667 89.7062 571.855 89.4562 572.778 89.4056C573.613 89.3602 574.081 89.6091 573.818 89.9593ZM16.8752 92.4862C16.8752 93.0662 16.4971 93.5408 16.0359 93.5408C15.5746 93.5408 15.4169 93.0662 15.6864 92.4862C15.9558 91.9061 16.3331 91.4315 16.5257 91.4315C16.7183 91.4315 16.8752 91.9061 16.8752 92.4862ZM252.689 108.376C253.542 110.212 252.571 110.602 251.484 108.858C250.858 107.856 250.798 107.251 251.324 107.251C251.787 107.251 252.402 107.757 252.689 108.376ZM302.946 110.973C303.417 110.586 303.596 109.828 303.345 109.288C303.084 108.723 304.904 108.306 307.626 108.306C310.361 108.306 312.484 108.795 312.651 109.464C312.811 110.101 314.617 110.874 316.665 111.181C321.765 111.946 320.603 113.57 315.24 113.169C312.015 112.927 310.908 113.208 310.908 114.267C310.908 116.057 308.009 116.145 307.47 114.37C307.239 113.605 307.045 113.853 307.008 114.959C306.974 116.009 306.652 116.627 306.294 116.331C305.936 116.037 305.048 116.721 304.321 117.851C302.769 120.264 299.02 120.645 299.02 118.391C299.02 117.237 298.332 117.024 296.14 117.497C293.88 117.985 293.343 117.801 293.649 116.641C293.864 115.826 294.546 115.209 295.164 115.268C295.783 115.327 296.776 114.681 297.372 113.833C298.313 112.493 298.103 112.385 295.765 113.014C294.286 113.411 292.482 113.958 291.756 114.228C291.03 114.499 290.227 114.27 289.972 113.721C289.717 113.172 291.311 112.392 293.515 111.99C295.719 111.586 297.949 110.636 298.469 109.879C299.246 108.751 299.657 108.789 300.754 110.089C301.489 110.962 302.476 111.36 302.946 110.973ZM414.731 109.768C414.731 110.634 409.884 111.07 409.498 110.239C409.274 109.756 410.36 109.36 411.911 109.36C413.462 109.36 414.731 109.544 414.731 109.768ZM270.011 116.118C269.33 118.48 268.332 117.3 268.572 114.414C268.869 110.826 268.888 110.797 269.722 112.697C270.145 113.662 270.275 115.202 270.011 116.118ZM326.18 112.161C325.643 112.45 324.573 112.468 323.802 112.2C323.031 111.933 323.47 111.696 324.778 111.675C326.086 111.654 326.716 111.872 326.18 112.161ZM352.913 112.578C347.831 113.781 329.761 113.742 328.344 112.524C327.556 111.846 332.093 111.541 341.818 111.617C351.846 111.697 355.353 112 352.913 112.578ZM369.358 112.225C368.159 112.466 366.199 112.466 364.999 112.225C363.8 111.983 364.781 111.786 367.179 111.786C369.576 111.786 370.558 111.983 369.358 112.225ZM376.888 112.168C376.343 112.461 375.451 112.461 374.906 112.168C374.362 111.876 374.807 111.636 375.897 111.636C376.987 111.636 377.433 111.876 376.888 112.168ZM384.813 112.168C384.269 112.461 383.377 112.461 382.832 112.168C382.287 111.876 382.733 111.636 383.822 111.636C384.912 111.636 385.358 111.876 384.813 112.168ZM249.883 113.04C249.883 114.576 246.928 117.792 245.546 117.763C244 117.729 244.008 117.65 245.752 115.716L247.564 113.704L244.167 113.298C241.183 112.942 241.324 112.87 245.326 112.709C247.832 112.608 249.883 112.756 249.883 113.04ZM253.631 113.161C253.367 113.511 252.683 113.549 252.112 113.245C251.48 112.908 251.667 112.658 252.591 112.608C253.426 112.562 253.894 112.811 253.631 113.161ZM302.19 113.579C302.19 114.159 302.569 114.634 303.03 114.634C303.491 114.634 303.649 114.159 303.379 113.579C303.11 112.999 302.733 112.524 302.54 112.524C302.347 112.524 302.19 112.999 302.19 113.579ZM550.041 113.161C549.778 113.511 549.094 113.549 548.523 113.245C547.89 112.908 548.078 112.658 549.002 112.608C549.837 112.562 550.305 112.811 550.041 113.161ZM556.002 113.222C555.458 113.516 554.566 113.516 554.021 113.222C553.476 112.93 553.922 112.691 555.011 112.691C556.101 112.691 556.547 112.93 556.002 113.222ZM215.589 114.216C215.325 114.566 214.641 114.604 214.07 114.299C213.438 113.963 213.625 113.713 214.549 113.662C215.384 113.617 215.852 113.866 215.589 114.216ZM237.813 114.832C237.64 115.52 237.026 116.294 236.447 116.55C235.856 116.812 235.623 116.529 235.915 115.9C236.206 115.274 235.646 114.583 234.638 114.326C233.36 113.999 233.604 113.825 235.485 113.722C237.208 113.628 238.017 114.014 237.813 114.832ZM262.96 115.688C262.671 116.898 262.817 117.797 263.303 117.797C263.768 117.797 264.148 118.193 264.148 118.676C264.148 120.046 260.926 119.391 260.223 117.878C259.736 116.83 259.211 116.799 257.893 117.737C256.956 118.404 255.805 118.633 255.333 118.245C254.382 117.462 259.731 113.8 262.022 113.664C263.112 113.6 263.34 114.092 262.96 115.688ZM412.75 114.634C413.02 115.214 412.862 115.688 412.401 115.688C411.939 115.688 411.561 115.214 411.561 114.634C411.561 114.053 411.718 113.579 411.911 113.579C412.103 113.579 412.481 114.053 412.75 114.634ZM420.279 114.044C420.279 114.3 419.923 114.802 419.487 115.161C419.051 115.519 418.694 115.31 418.694 114.696C418.694 114.082 419.051 113.579 419.487 113.579C419.923 113.579 420.279 113.788 420.279 114.044ZM536.204 114.271C535.667 114.56 534.597 114.578 533.826 114.31C533.055 114.042 533.494 113.806 534.802 113.785C536.109 113.763 536.74 113.982 536.204 114.271ZM540.531 114.216C540.268 114.566 539.584 114.604 539.012 114.299C538.38 113.963 538.568 113.713 539.491 113.662C540.326 113.617 540.794 113.866 540.531 114.216ZM227.295 115.688C227.565 116.268 339.249 146.832 338.788 146.832C338.326 146.832 226.106 116.268 226.106 115.688C226.106 115.108 226.263 114.634 226.456 114.634C226.648 114.634 227.026 115.108 227.295 115.688ZM320.997 115.271C320.734 115.621 320.05 115.659 319.478 115.354C318.846 115.017 319.034 114.767 319.957 114.717C320.792 114.671 321.26 114.92 320.997 115.271ZM324.959 115.271C324.696 115.621 324.012 115.659 323.441 115.354C322.808 115.017 322.996 114.767 323.92 114.717C324.755 114.671 325.223 114.92 324.959 115.271ZM332.307 116.215C332.307 117.086 332.664 117.797 333.1 117.797C333.536 117.797 333.891 117.205 333.891 116.479C333.889 115.5 335.629 115.249 340.637 115.503C344.719 115.709 347.2 116.247 346.913 116.864C346.653 117.424 345.81 117.617 345.041 117.292C344.272 116.967 342.608 117.421 341.344 118.298C339.308 119.712 339.014 119.714 338.788 118.318C338.501 116.557 335.05 116.157 334.288 117.797C333.757 118.942 330.489 119.245 329.72 118.221C328.948 117.195 330.008 114.634 331.203 114.634C331.81 114.634 332.307 115.345 332.307 116.215ZM405.221 116.215C404.386 117.555 404.56 117.797 406.36 117.797C407.575 117.797 408.275 118.249 407.995 118.852C407.725 119.432 406.754 119.907 405.834 119.907C404.916 119.907 404.419 120.246 404.73 120.661C405.043 121.075 408.184 121.268 411.712 121.091C417.443 120.802 418.073 120.956 417.618 122.535C417.283 123.697 417.448 124.136 418.099 123.818C418.644 123.552 419.002 122.801 418.892 122.148C418.783 121.495 419.607 120.961 420.722 120.961C421.872 120.961 422.539 121.418 422.261 122.016C421.991 122.596 422.149 123.071 422.61 123.071C423.071 123.071 423.449 122.596 423.449 122.016C423.449 120.261 426.414 120.835 426.95 122.694C427.224 123.648 427.33 124.586 427.185 124.78C427.039 124.973 423.405 125.261 419.109 125.419C413.407 125.629 411.209 125.352 410.968 124.389C410.785 123.664 409.932 123.071 409.071 123.071C408.21 123.071 407.725 123.545 407.995 124.125C408.281 124.74 407.475 125.18 406.06 125.18C404.727 125.18 403.636 124.705 403.636 124.125C403.636 123.545 402.316 123.071 400.703 123.071C397.498 123.071 397.907 121.384 401.258 120.787C402.748 120.522 403.301 119.715 403.49 117.534C403.644 115.756 404.218 114.634 404.975 114.634C405.981 114.634 406.026 114.925 405.221 116.215ZM484.079 117.066C484.951 117.368 483.97 117.568 481.899 117.51C479.829 117.452 478.135 116.985 478.135 116.475C478.135 115.963 478.892 115.866 479.819 116.258C481.107 116.801 481.351 116.632 480.856 115.537C480.347 114.412 480.452 114.364 481.351 115.311C481.979 115.974 483.207 116.763 484.079 117.066ZM385.011 116.743C384.742 117.323 384.186 117.797 383.776 117.797C383.365 117.797 383.03 117.323 383.03 116.743C383.03 116.163 383.586 115.688 384.265 115.688C384.945 115.688 385.281 116.163 385.011 116.743ZM300.605 117.797C302.142 119.119 302.983 119.119 302.983 117.797C302.983 117.217 302.18 116.75 301.2 116.759C299.758 116.772 299.644 116.971 300.605 117.797ZM375.104 118.255C375.104 119.112 376.049 119.928 377.284 120.138C379.032 120.435 378.817 120.608 376.194 121.014C373.214 121.475 372.925 121.308 372.925 119.132C372.925 117.808 373.411 116.743 374.015 116.743C374.614 116.743 375.104 117.423 375.104 118.255ZM399.673 117.64C399.673 118.17 398.239 118.63 396.487 118.662C394.734 118.694 393.461 118.374 393.657 117.952C394.19 116.807 399.673 116.522 399.673 117.64ZM152.796 118.852C153.066 119.432 152.73 119.907 152.05 119.907C151.371 119.907 150.815 119.432 150.815 118.852C150.815 118.272 151.15 117.797 151.561 117.797C151.971 117.797 152.527 118.272 152.796 118.852ZM310.116 118.914C310.116 119.528 309.72 119.705 309.235 119.307C308.75 118.908 308.043 119.236 307.662 120.035C307.115 121.185 306.967 121.103 306.958 119.643C306.95 118.496 307.545 117.797 308.531 117.797C309.403 117.797 310.116 118.301 310.116 118.914ZM321.211 118.588C321.211 119.023 320.354 119.379 319.305 119.379C318.258 119.379 317.566 119.023 317.768 118.588C317.969 118.154 318.827 117.797 319.673 117.797C320.52 117.797 321.211 118.154 321.211 118.588ZM472.191 118.852C471.921 119.432 470.92 119.873 469.965 119.833C468.291 119.761 468.285 119.726 469.813 118.852C471.994 117.604 472.77 117.604 472.191 118.852ZM530.443 118.852C530.443 119.432 531.246 119.914 532.226 119.923C533.206 119.932 534.544 120.399 535.198 120.961C536.074 121.715 535.451 122.042 532.82 122.206C530.859 122.328 528.006 122.616 526.48 122.845C524.954 123.075 511.402 123.402 496.363 123.572C481.325 123.741 471.16 123.526 473.776 123.093C476.391 122.66 480.314 122.011 482.494 121.65C490.868 120.265 501.024 119.905 501.52 120.973C501.795 121.566 502.387 121.749 502.834 121.381C503.281 121.014 504.481 121.306 505.5 122.032C506.518 122.757 508 123.006 508.793 122.584C509.585 122.163 512.796 121.734 515.928 121.633C519.06 121.532 521.855 121.139 522.141 120.759C522.425 120.38 523.875 120.333 525.362 120.653C527.512 121.117 528.065 120.885 528.065 119.518C528.065 118.572 528.6 117.797 529.254 117.797C529.908 117.797 530.443 118.272 530.443 118.852ZM553.757 119.116C554.126 120.17 554.312 120.17 554.681 119.116C555.179 117.698 561.795 117.247 562.419 118.588C562.62 119.023 561.215 119.213 559.295 119.009C557.115 118.778 555.804 119.076 555.804 119.8C555.804 121.559 552.077 121.19 551.554 119.379C551 117.456 553.087 117.206 553.757 119.116ZM369.953 119.907C369.683 120.487 368.503 120.928 367.33 120.888C365.426 120.821 365.367 120.716 366.783 119.907C368.984 118.647 370.538 118.647 369.953 119.907ZM444.452 119.907C444.182 120.487 444.697 120.961 445.594 120.961C446.491 120.961 447.226 120.487 447.226 119.907C447.226 118.661 448.762 118.943 450.066 120.428C451.264 121.789 447.194 124.193 444.99 123.426C444.139 123.13 443.202 123.403 442.91 124.033C442.616 124.664 441.842 125.18 441.188 125.18C440.534 125.18 440.237 124.668 440.527 124.044C440.892 123.257 439.933 123.132 437.404 123.636C435.189 124.078 433.752 123.961 433.752 123.337C433.752 122.773 435.797 122.03 438.297 121.687C440.797 121.344 442.966 120.566 443.118 119.957C443.27 119.35 443.743 118.852 444.168 118.852C444.594 118.852 444.721 119.327 444.452 119.907ZM467.111 119.824C466.498 120.342 464.945 120.589 463.662 120.373C461.866 120.07 461.235 120.456 460.922 122.053C460.697 123.193 460.21 124.125 459.839 124.125C458.983 124.125 459.905 120.691 461.037 119.659C461.505 119.233 463.314 118.885 465.058 118.885C467.221 118.885 467.874 119.183 467.111 119.824ZM188.064 120.838C188.064 122.094 185 123.097 184.494 122.008C184.273 121.531 184.54 120.901 185.088 120.607C186.711 119.736 188.064 119.841 188.064 120.838ZM198.367 120.961C198.367 121.541 198.032 122.016 197.622 122.016C197.211 122.016 196.656 121.541 196.386 120.961C196.117 120.381 196.453 119.907 197.132 119.907C197.811 119.907 198.367 120.381 198.367 120.961ZM212.633 120.846C212.633 122.441 206.846 122.781 204.729 121.31C202.875 120.023 203.093 119.919 207.68 119.913C210.405 119.91 212.633 120.33 212.633 120.846ZM215.07 121.251C214.972 122.513 213.885 122.268 213.545 120.909C213.37 120.213 213.656 119.833 214.179 120.065C214.702 120.297 215.103 120.831 215.07 121.251ZM222.088 124.573C222.118 125.11 221.483 124.636 220.674 123.519C219.678 122.143 219.486 121.246 220.08 120.737C220.873 120.053 221.947 122.105 222.088 124.573ZM228.815 120.547C230.428 121.371 230.441 123.071 228.834 123.071C228.154 123.071 227.805 123.517 228.058 124.061C228.311 124.606 227.799 124.981 226.92 124.892C225.277 124.727 225.021 122.163 226.503 120.714C227.474 119.764 227.306 119.776 228.815 120.547ZM539.953 120.961C539.953 121.541 539.329 122.009 538.566 122C537.381 121.986 537.352 121.835 538.368 120.961C539.864 119.675 539.953 119.675 539.953 120.961ZM236.837 122.603C234.809 123.711 234.701 123.957 236.044 124.41C237.3 124.835 237.217 124.958 235.61 125.058C234.462 125.128 233.237 124.361 232.713 123.247C231.882 121.475 232.115 121.314 235.495 121.318C239.149 121.322 239.161 121.334 236.837 122.603ZM247.731 123.819C248.05 126.043 247.862 126.327 246.417 125.811C245.49 125.479 243.305 125.187 241.561 125.162C238.995 125.125 238.659 124.908 239.794 124.028C240.566 123.43 240.999 122.513 240.756 121.989C240.512 121.465 241.899 121.079 243.836 121.131C246.923 121.213 247.404 121.546 247.731 123.819ZM271.019 123.664C271.842 125.162 272.292 125.312 273.028 124.332C274.348 122.576 276.037 122.755 276.037 124.653C276.037 125.885 275.03 126.217 271.479 126.151C268.973 126.106 267.369 125.828 267.913 125.536C270.243 124.284 268.584 123.071 264.545 123.071C259.83 123.071 258.562 124.778 262.761 125.472C264.363 125.736 263.632 125.96 260.827 126.066C258.295 126.161 256.083 125.731 255.784 125.088C255.4 124.262 255.01 124.262 254.39 125.088C253.916 125.719 252.993 126.235 252.34 126.235C251.461 126.235 251.383 125.926 252.04 125.051C252.529 124.401 252.732 123.183 252.49 122.346C252.119 121.059 253.436 120.895 261.005 121.28C268.518 121.662 270.13 122.044 271.019 123.664ZM288.713 123.334C288.72 124.512 283.341 124.292 282.783 123.091C282.493 122.467 283.573 122.153 285.506 122.3C287.268 122.434 288.711 122.9 288.713 123.334ZM317.249 123.008C317.249 123.555 316.893 124.293 316.459 124.65C315.076 125.787 293.667 125.265 291.887 124.051C290.982 123.434 300.8 122.348 308.729 122.188C313.616 122.09 317.249 122.439 317.249 123.008ZM352.005 123.62C352.84 124.732 351.341 125.108 343.949 125.643C336.369 126.192 328.344 124.849 328.344 123.031C328.344 122.104 351.296 122.676 352.005 123.62ZM380.256 124.087C375.143 124.695 371.299 124.248 372.572 123.193C373.003 122.835 375.979 122.764 379.184 123.033L385.011 123.522L380.256 124.087ZM394.125 123.071C394.125 123.651 393.968 124.125 393.776 124.125C393.583 124.125 393.206 123.651 392.937 123.071C392.667 122.491 392.825 122.016 393.286 122.016C393.747 122.016 394.125 122.491 394.125 123.071ZM411.958 123.071C411.688 123.651 412.024 124.125 412.703 124.125C413.383 124.125 413.939 123.651 413.939 123.071C413.939 122.491 413.604 122.016 413.193 122.016C412.783 122.016 412.227 122.491 411.958 123.071ZM576.262 122.736C576.833 123.041 577.517 123.003 577.78 122.653C578.044 122.303 577.576 122.054 576.741 122.099C575.817 122.15 575.629 122.4 576.262 122.736ZM390.605 124.026C390.361 124.551 389.448 124.734 388.577 124.43C386.396 123.672 386.592 123.071 389.021 123.071C390.136 123.071 390.849 123.501 390.605 124.026ZM431.573 123.769C431.028 124.062 430.137 124.062 429.592 123.769C429.047 123.477 429.493 123.237 430.582 123.237C431.672 123.237 432.118 123.477 431.573 123.769ZM468.03 123.769C467.485 124.062 466.594 124.062 466.049 123.769C465.504 123.477 465.95 123.237 467.039 123.237C468.129 123.237 468.575 123.477 468.03 123.769ZM570.466 128.344C570.736 128.924 571.113 129.398 571.305 129.398C571.498 129.398 571.655 128.924 571.655 128.344C571.655 127.764 571.277 127.289 570.816 127.289C570.354 127.289 570.197 127.764 570.466 128.344ZM591.32 128.009C591.892 128.314 592.576 128.276 592.839 127.926C593.102 127.576 592.634 127.327 591.799 127.372C590.876 127.423 590.688 127.673 591.32 128.009ZM267.317 141.263C267.318 141.698 260.096 141.965 251.27 141.858C240.16 141.722 237.294 141.478 241.957 141.067C251.634 140.213 267.315 140.334 267.317 141.263ZM275.244 141.65C275.244 141.872 273.55 141.998 271.479 141.93C268.242 141.822 268.048 141.704 270.092 141.086C272.314 140.414 275.244 140.736 275.244 141.65ZM234.23 141.698C233.685 141.991 232.794 141.991 232.249 141.698C231.704 141.405 232.15 141.166 233.239 141.166C234.329 141.166 234.775 141.405 234.23 141.698ZM162.502 143.946C163.052 144.427 159.8 144.848 155.181 144.893C150.61 144.938 147.015 144.666 147.191 144.288C147.671 143.254 161.363 142.949 162.502 143.946ZM524.747 144.884C525.318 145.188 526.002 145.15 526.265 144.8C526.528 144.45 526.061 144.201 525.225 144.247C524.302 144.297 524.114 144.547 524.747 144.884ZM466.824 145.855C466.561 146.205 465.877 146.243 465.306 145.938C464.673 145.602 464.861 145.352 465.785 145.301C466.62 145.256 467.088 145.505 466.824 145.855ZM191.389 148.114C196.051 148.3 203.897 148.301 208.825 148.115C213.753 147.929 209.939 147.778 200.349 147.777C190.759 147.775 186.727 147.927 191.389 148.114ZM262.419 148.612C262.842 149.174 263.85 149.448 264.659 149.219C265.749 148.912 265.549 148.647 263.89 148.197C262.444 147.804 261.923 147.952 262.419 148.612ZM508.103 148.048C508.675 148.352 509.359 148.314 509.622 147.964C509.885 147.614 509.417 147.365 508.582 147.411C507.659 147.461 507.471 147.711 508.103 148.048ZM268.715 149.127C269.701 149.38 271.128 149.37 271.885 149.106C272.643 148.843 271.836 148.636 270.092 148.648C268.349 148.659 267.729 148.875 268.715 149.127ZM279.811 149.127C280.797 149.38 282.223 149.37 282.981 149.106C283.738 148.843 282.932 148.636 281.188 148.648C279.444 148.659 278.825 148.875 279.811 149.127ZM304.384 149.146C305.808 149.381 307.948 149.376 309.139 149.136C310.331 148.894 309.165 148.702 306.549 148.709C303.934 148.714 302.96 148.911 304.384 149.146ZM315.873 149.139C317.078 149.381 318.861 149.374 319.836 149.124C320.81 148.874 319.825 148.676 317.645 148.683C315.466 148.692 314.668 148.897 315.873 149.139ZM419.685 149.108C420.447 149.374 421.696 149.374 422.459 149.108C423.221 148.844 422.597 148.627 421.072 148.627C419.546 148.627 418.922 148.844 419.685 149.108ZM432.762 149.08C433.307 149.373 434.199 149.373 434.743 149.08C435.288 148.788 434.842 148.549 433.752 148.549C432.663 148.549 432.217 148.788 432.762 149.08Z" fill="#34696F"/>
</svg>
