<svg width="287" height="52" viewBox="0 0 287 52" fill="none" xmlns="http://www.w3.org/2000/svg">
<path fill-rule="evenodd" clip-rule="evenodd" d="M206.871 0.198618C203.946 0.341458 201.389 0.509569 201.187 0.572565C200.986 0.635194 202.223 0.79012 203.937 0.916478C207.045 1.14575 207.04 1.14649 202.287 1.25929C199.666 1.32156 195.788 1.50212 193.671 1.66034C191.007 1.85958 192.363 1.89584 198.071 1.77791C211.116 1.50871 224.511 1.27065 226.234 1.27687C227.195 1.28054 227.725 1.13916 227.587 0.916478C227.438 0.675848 230.646 0.550223 236.937 0.550223C243.735 0.550223 246.442 0.665593 246.268 0.947975C246.113 1.19849 246.342 1.31423 246.888 1.26003C247.364 1.21241 248.001 1.27138 248.304 1.39115C248.606 1.51054 251.329 1.7845 254.354 1.99986C257.379 2.21522 260.473 2.53679 261.229 2.71442C261.985 2.89169 262.604 2.90048 262.604 2.73384C262.604 2.31777 261.633 2.07568 256.004 1.08715C255.298 0.963358 253.978 0.691598 253.071 0.483565C251.116 0.0352682 214.81 -0.188514 206.871 0.198618ZM95.2206 0.584284C93.4973 0.788288 93.5468 0.80477 96.0456 0.858975C98.6776 0.915745 99.4729 0.76082 97.879 0.501511C97.425 0.427527 96.229 0.464885 95.2206 0.584284ZM91.1873 0.764482C90.784 0.827111 89.0104 0.984235 87.2456 1.11352C85.4812 1.24281 84.0373 1.46989 84.0373 1.61859C84.0373 1.76692 84.5734 1.82296 85.229 1.74275C86.1427 1.63104 86.2923 1.68708 85.8706 1.98375C85.4526 2.27748 85.7166 2.36136 86.9706 2.33242C88.4754 2.29799 88.5238 2.27016 87.5206 2.01524L86.4206 1.73579L87.7652 1.69221C88.5044 1.6684 89.1644 1.79586 89.2319 1.97569C89.3012 2.16138 90.6978 2.18409 92.4706 2.02806C95.8322 1.73286 95.7739 1.59185 92.2873 1.58416C91.0773 1.58123 90.4998 1.49846 91.004 1.39993C91.87 1.23072 93.0426 0.489425 92.269 0.600034C92.0776 0.627503 91.5906 0.701486 91.1873 0.764482ZM217.611 0.820885C216.359 0.892304 214.214 0.892672 212.844 0.821984C211.474 0.751663 212.499 0.693062 215.121 0.692696C217.742 0.691963 218.863 0.749831 217.611 0.820885ZM222.729 0.792683C222.477 0.894502 222.065 0.894502 221.812 0.792683C221.56 0.691231 221.766 0.608091 222.271 0.608091C222.775 0.608091 222.981 0.691231 222.729 0.792683ZM250.596 1.15894C250.344 1.26076 249.931 1.26076 249.679 1.15894C249.427 1.05749 249.633 0.974347 250.137 0.974347C250.641 0.974347 250.848 1.05749 250.596 1.15894ZM253.169 1.15674C252.921 1.25709 252.426 1.26332 252.069 1.17029C251.712 1.07726 251.916 0.995223 252.521 0.987898C253.126 0.980572 253.417 1.05639 253.169 1.15674ZM96.229 1.53508C96.5817 1.62738 97.1596 1.62738 97.5123 1.53508C97.865 1.44315 97.5765 1.3677 96.8706 1.3677C96.1648 1.3677 95.8762 1.44315 96.229 1.53508ZM99.7123 1.52519C99.9646 1.62701 100.377 1.62701 100.629 1.52519C100.881 1.42374 100.675 1.3406 100.171 1.3406C99.6665 1.3406 99.4604 1.42374 99.7123 1.52519ZM29.5162 2.13025C29.4106 2.30092 27.4859 2.40677 25.239 2.36538C21.162 2.29103 14.0212 2.83016 12.8193 3.30336C12.417 3.46158 12.2128 3.89084 12.2612 4.47575C12.3437 5.47123 12.4005 5.50676 14.4623 5.84884C16.1497 6.12902 16.2857 6.72162 14.6456 6.64727C13.5537 6.59783 13.4628 6.67767 13.5596 7.60064C13.652 8.48258 13.5379 8.60857 12.6429 8.61333C11.3607 8.62066 10.9089 8.94626 10.8077 9.93661C10.7421 10.5809 10.9801 10.7559 12.1827 10.9478C14.1294 11.2588 14.0241 11.7653 11.9646 11.9972C10.3377 12.1803 8.31477 13.4995 8.70197 14.1251C8.79804 14.2808 8.38151 14.517 7.77614 14.6499C6.82464 14.8587 6.74617 14.962 7.19681 15.4121C7.48354 15.6985 7.93637 15.9355 8.20294 15.9384C8.56814 15.9428 8.55531 16.0274 8.15087 16.2831C7.77504 16.5204 8.20367 16.6556 9.58417 16.735C11.5301 16.8471 11.5539 16.8625 11.5869 18.0389C11.6056 18.6938 11.4967 19.2292 11.3456 19.2292C11.1946 19.2292 11.0706 19.5589 11.0706 19.9617C11.0706 20.5045 10.8096 20.7071 10.0623 20.7441C9.18341 20.7877 9.16104 20.8144 9.88851 20.9539C10.9515 21.1576 12.8849 22.1542 12.2231 22.1571C11.9433 22.1582 11.8135 22.3878 11.9264 22.6819C12.2249 23.4588 11.4989 23.8777 9.08587 24.3217C6.92694 24.7187 5.9967 25.0893 7.1594 25.0893C7.49564 25.0893 7.77064 25.3365 7.77064 25.6387C7.77064 26.0661 7.28187 26.1881 5.57064 26.1881C3.19831 26.1881 2.46057 26.8876 4.74564 26.9704C5.59667 27.0012 5.80641 27.0807 5.29564 27.1792C4.84171 27.2663 4.47064 27.4799 4.47064 27.6538C4.47064 27.8278 4.13807 28.0754 3.73181 28.2043C3.32554 28.3329 3.08427 28.5852 3.19501 28.7643C3.30611 28.9438 2.85474 29.2467 2.19217 29.4375C1.1512 29.7375 1.36131 29.7906 3.73731 29.8287C6.56101 29.8741 6.66587 30.2597 3.98554 30.741C2.79717 30.9542 2.65234 31.0758 3.03624 31.5376C3.40071 31.9764 3.55067 31.9899 3.80367 31.6076C4.04787 31.238 4.24037 31.293 4.66864 31.8541C5.17354 32.5151 5.1497 32.6056 4.38667 32.9352C3.67387 33.2429 3.84474 33.3235 5.57064 33.4956C7.38051 33.6758 7.50737 33.7421 6.80814 34.1424C6.37987 34.3878 5.30737 34.6984 4.42481 34.8324C1.68177 35.2492 1.52374 35.6858 4.10397 35.7191L6.48731 35.7495L3.37064 36.9205L0.253973 38.0914L2.08731 38.2745L3.92064 38.4576L1.76024 38.9532C0.250674 39.2997 -0.246159 39.5461 0.110241 39.7718C0.391107 39.9494 0.95064 40.1087 1.35397 40.1259C2.08217 40.1571 2.08218 40.1593 1.36058 40.4409C0.833308 40.6464 1.28651 40.8112 3.01058 41.0408C5.16401 41.3272 5.24944 41.3694 3.92064 41.4884C3.11397 41.5605 2.29741 41.7737 2.10564 41.9616C1.88967 42.1733 3.42234 42.3143 6.13897 42.3322C9.52294 42.3546 10.2911 42.4451 9.51231 42.7289C8.92784 42.9424 8.50397 43.371 8.50397 43.7489C8.50397 44.2778 7.86304 44.5312 5.11707 45.088C3.25441 45.4656 2.04111 45.8344 2.42061 45.9073C2.97281 46.0135 3.00837 46.1047 2.59881 46.3636C2.22261 46.6017 2.32967 46.69 3.00397 46.6984C3.50814 46.7046 4.16337 46.8632 4.46037 47.0507C5.06024 47.4294 4.90441 47.5221 2.95264 47.9466C2.42024 48.0623 1.89517 48.3905 1.78554 48.6762C1.61834 49.1105 2.25194 49.1677 5.68687 49.0263C8.71737 48.9018 9.64394 48.9626 9.23731 49.2592C8.77347 49.598 8.80244 49.6519 9.42064 49.6028C10.646 49.5046 10.9144 49.6218 10.3373 50.0027C9.96331 50.2496 10.4909 50.2818 11.9873 50.1038C14.7263 49.7775 14.5862 49.7738 20.7873 50.3393C24.5874 50.6858 30.1582 50.7422 42.2373 50.5572C52.2638 50.4034 61.6637 50.4562 66.6206 50.6935C82.9575 51.4769 84.5825 51.5318 84.349 51.2909C84.2181 51.1557 82.4031 50.9557 80.3156 50.8466C78.2286 50.7378 76.3637 50.5012 76.1723 50.3217C75.6949 49.8738 107.268 49.9086 118.403 50.3683C124.79 50.632 173.036 51.148 189.821 51.1323C193.565 51.1286 209.898 50.6657 210.647 50.5419C211.266 50.4393 211.585 50.5151 211.451 50.7327C211.328 50.9312 211.392 51.0934 211.594 51.0934C211.796 51.0934 212.063 50.9286 212.187 50.7272C212.484 50.247 213.837 50.2525 213.837 50.7338C213.837 51.148 222.499 51.1725 228.824 50.7766C231.721 50.5953 232.671 50.6484 232.805 50.9989C232.903 51.2524 233.222 51.4597 233.515 51.4597C233.808 51.4597 233.945 51.2949 233.821 51.0934C233.696 50.892 233.892 50.699 234.257 50.6646C234.622 50.6301 235.168 50.5653 235.471 50.5202C235.773 50.4756 236.928 50.4188 238.037 50.3943C239.266 50.3672 239.866 50.2305 239.573 50.0452C239.097 49.7438 241.698 49.4632 249.037 49.0252C252.727 48.8051 254.396 48.2037 251.586 48.1077C250.688 48.077 249.789 48.0136 249.587 47.9667C249.386 47.9198 247.653 47.84 245.737 47.7895L242.254 47.6968L244.637 47.4118C245.948 47.2551 248.643 47.0753 250.625 47.0126C252.608 46.9496 254.309 46.7709 254.405 46.6152C254.502 46.4596 254.911 46.3321 255.314 46.3321C255.717 46.3321 255.958 46.1889 255.85 46.0135C255.741 45.8366 254.957 45.8296 254.087 45.9977C252.331 46.3369 250.658 46.4222 250.922 46.1593C251.275 45.8062 258.871 44.4987 259.397 44.7001C259.704 44.8177 260.038 44.6598 260.162 44.3386C260.317 43.9339 260.943 43.7511 262.318 43.7086L264.254 43.6489L262.237 43.4328C260.651 43.2625 260.431 43.1699 261.208 42.9981C261.751 42.8776 262.988 42.9018 263.958 43.0512C264.927 43.2006 265.758 43.2896 265.804 43.249C265.85 43.208 265.624 42.8 265.303 42.3418C264.916 41.7902 264.596 41.632 264.355 41.873C264.113 42.1143 263.602 42.1081 262.839 41.8539C260.79 41.1723 261.113 41.0189 264.318 41.1525C266.554 41.2456 267.39 41.1661 267.212 40.8778C267.057 40.6281 267.287 40.4592 267.807 40.4391C268.561 40.4098 264.958 39.6784 262.054 39.2711C261.449 39.1861 262.191 39.0894 263.704 39.0565C265.216 39.0231 266.701 38.836 267.004 38.6408C267.46 38.3463 267.429 38.2837 266.821 38.2745C266.417 38.2683 265.84 38.0892 265.537 37.8764C265.135 37.5936 265.455 37.5519 266.728 37.7215C269.003 38.024 269.484 37.7043 268.434 36.5879C267.97 36.0935 267.807 35.7107 268.062 35.7107C268.31 35.7107 268.412 35.5459 268.287 35.3445C268.163 35.143 267.369 34.9756 266.524 34.9727C265.679 34.9694 264.74 34.7951 264.437 34.5849C264.042 34.3102 264.427 34.2699 265.812 34.442C267.771 34.6848 268.512 34.197 266.912 33.7176C266.108 33.4766 266.105 33.4619 266.821 33.1187C267.402 32.8404 267.286 32.799 266.261 32.9206C264.785 33.096 263.235 32.3064 264.273 31.9083C264.598 31.7837 265.16 31.6819 265.522 31.6819C265.885 31.6819 266.386 31.4347 266.637 31.1325C266.996 30.7011 266.997 30.5831 266.643 30.5831C266.393 30.5831 266.286 30.3385 266.403 30.0338C266.539 29.6807 266.389 29.4752 265.984 29.4587C265.461 29.4371 265.479 29.3818 266.087 29.1328C266.769 28.8537 266.748 28.8039 265.788 28.4259C265.221 28.2025 264.519 28.0194 264.23 28.0194C263.941 28.0194 263.704 27.8545 263.704 27.6531C263.704 27.4517 264.653 27.2707 265.812 27.2513L267.921 27.2158L266.546 26.6521C265.055 26.0412 264.785 25.3215 265.835 24.7601C266.2 24.5648 268.345 24.2883 270.602 24.1455C272.858 24.003 274.704 23.7587 274.704 23.6027C274.704 23.4467 274.25 23.1537 273.696 22.9511C272.852 22.6435 273.121 22.5786 275.346 22.5545C276.854 22.538 278.004 22.3669 278.004 22.1593C278.004 21.9578 277.664 21.793 277.249 21.793C276.834 21.793 276.592 21.6355 276.711 21.4429C276.83 21.2502 277.17 21.1854 277.466 21.2989C277.762 21.4121 278.004 21.3502 278.004 21.1612C278.004 20.9719 277.22 20.6335 276.262 20.4089C274.784 20.0625 275.351 20.0185 280.021 20.1174L285.521 20.2342L280.754 19.5647C272.413 18.3931 272.562 18.4235 273.604 18.1118C274.452 17.858 274.46 17.8345 273.717 17.8008C272.599 17.7499 272.315 17.1181 273.323 16.9248C273.785 16.8358 273.476 16.7431 272.626 16.7153C271.786 16.6878 271.044 16.5028 270.976 16.3043C270.909 16.1058 268.956 15.8084 266.637 15.644C262.507 15.351 262.453 15.3356 263.968 14.895C264.955 14.6082 267.528 14.4749 271.072 14.5265C276.201 14.6016 276.668 14.5529 277.148 13.8969C277.605 13.2717 278.219 13.1714 282.236 13.0644C285.878 12.9677 286.804 12.8377 286.804 12.4235C286.804 12.1378 286.661 11.9041 286.485 11.9041C285.97 11.9041 279.713 10.8006 279.012 10.5863C277.688 10.1805 278.444 9.70514 280.479 9.66448C282.565 9.62273 282.572 9.61907 281.121 9.31947C280.314 9.15282 278.334 8.9946 276.721 8.96823C273.847 8.92062 269.951 8.42288 271.037 8.24158C272.072 8.06908 268.291 7.56328 265.763 7.53617C263.559 7.51237 263.13 7.3926 262.388 6.59343L261.539 5.6778L263.08 5.64483L264.621 5.61187L263.367 5.25184C262.677 5.05406 261.811 4.97129 261.442 5.06761C261.073 5.16394 260.771 5.10571 260.771 4.93796C260.771 4.77022 260.482 4.55742 260.129 4.46512C259.776 4.37319 260.23 4.25782 261.137 4.20948L262.787 4.12121L261.137 3.84359C255.744 2.93674 217.392 2.43607 205.037 3.11145C201.508 3.30446 196.943 3.46635 194.893 3.47111C192.262 3.4777 191.11 3.61505 190.979 3.93808C190.839 4.28273 190.717 4.29042 190.487 3.96812C190.229 3.60699 182.615 3.19129 181.937 3.50114C181.275 3.80403 84.6867 3.76411 78.1706 3.45829C73.8348 3.25465 68.8848 3.02391 67.1706 2.94553C65.4565 2.86715 60.3543 2.71699 55.8329 2.61261C51.3112 2.50786 45.9487 2.31887 43.9163 2.19288C38.0393 1.82809 29.7255 1.79183 29.5162 2.13025ZM215.602 1.89914C215.866 2.00499 216.183 1.9918 216.305 1.87021C216.426 1.74861 216.21 1.66217 215.824 1.67792C215.396 1.6955 215.309 1.7823 215.602 1.89914ZM205.702 2.2654C205.966 2.37124 206.283 2.35806 206.405 2.23646C206.526 2.11486 206.31 2.02843 205.924 2.04418C205.496 2.06176 205.409 2.14856 205.702 2.2654ZM208.635 2.2654C208.9 2.37124 209.216 2.35806 209.338 2.23646C209.46 2.11486 209.243 2.02843 208.857 2.04418C208.43 2.06176 208.343 2.14856 208.635 2.2654ZM90.9123 3.00633C91.3662 3.0935 92.1084 3.0935 92.5623 3.00633C93.0162 2.9188 92.6448 2.84737 91.7373 2.84737C90.8298 2.84737 90.4584 2.9188 90.9123 3.00633ZM165.169 4.45304C164.921 4.55339 164.426 4.55962 164.069 4.46659C163.712 4.37356 163.916 4.29152 164.521 4.28419C165.126 4.27687 165.417 4.35268 165.169 4.45304ZM259.205 4.43399C259.083 4.55559 258.766 4.56877 258.502 4.46293C258.209 4.34609 258.296 4.25929 258.724 4.24171C259.11 4.22596 259.326 4.3124 259.205 4.43399ZM204.565 5.08446C204.69 5.20935 203.487 5.33022 201.89 5.35329C200.293 5.376 194.78 5.47855 189.637 5.58074C184.495 5.68329 166.292 5.89389 149.187 6.04954C132.082 6.2052 117.187 6.44437 116.087 6.58171C114.067 6.8337 111.649 6.54289 112.092 6.10082C112.347 5.84627 115.818 5.77815 135.279 5.6474C142.707 5.59722 147.471 5.42874 147.471 5.21595C147.471 5.02403 147.703 4.95591 147.987 5.06468C148.77 5.36501 160.981 5.31411 169.837 4.97349C178.496 4.6402 204.203 4.7226 204.565 5.08446ZM214.143 4.76252C213.879 5.02586 207.594 5.05773 207.333 4.79695C207.213 4.67719 208.738 4.57903 210.721 4.57903C212.704 4.57903 214.244 4.66144 214.143 4.76252ZM215.571 4.80025C215.45 4.92184 215.133 4.93503 214.869 4.82918C214.576 4.71235 214.663 4.62555 215.09 4.60796C215.477 4.59222 215.693 4.67865 215.571 4.80025ZM187.717 5.20423C188.173 5.29176 188.833 5.28847 189.183 5.1969C189.534 5.10534 189.161 5.03355 188.354 5.03758C187.547 5.04161 187.261 5.11669 187.717 5.20423ZM237.797 5.21998C237.89 5.37087 235.686 5.49467 232.899 5.49467C230.113 5.49467 227.709 5.37087 227.557 5.21998C227.406 5.06908 229.609 4.94529 232.454 4.94529C235.3 4.94529 237.704 5.06908 237.797 5.21998ZM239.687 5.31154C238.686 5.74152 238.404 5.74152 238.404 5.31154C238.404 5.1101 238.858 4.95701 239.412 4.97092C240.306 4.994 240.337 5.03245 239.687 5.31154ZM172.702 5.56169C172.966 5.66754 173.283 5.65435 173.405 5.53276C173.526 5.41116 173.31 5.32473 172.924 5.34048C172.496 5.35806 172.409 5.44486 172.702 5.56169ZM174.886 5.57708C175.544 5.65838 176.534 5.65692 177.086 5.57341C177.637 5.48954 177.097 5.42288 175.887 5.42508C174.677 5.42691 174.227 5.4954 174.886 5.57708ZM100.869 6.43191C100.605 6.5949 100.24 6.63592 100.057 6.52348C99.8751 6.41104 99.9418 6.18543 100.205 6.02244C100.469 5.85946 100.835 5.81844 101.017 5.93088C101.2 6.04332 101.133 6.26893 100.869 6.43191ZM107.504 6.12353C107.504 6.28138 106.308 6.3909 104.846 6.36709C102.873 6.33486 102.471 6.25318 103.287 6.05028C104.695 5.70014 107.504 5.74922 107.504 6.12353ZM111.171 5.87008C111.171 6.26124 109.191 6.7978 108.633 6.55791C108.176 6.36159 108.246 6.25062 108.971 6.03013C110.09 5.68878 111.171 5.6104 111.171 5.87008ZM99.2411 6.43118C99.1234 6.6209 97.7583 6.774 96.2073 6.77107C94.6563 6.76777 93.5802 6.64434 93.8159 6.49638C94.4686 6.08654 99.4916 6.0261 99.2411 6.43118ZM216.503 6.28431C216.254 6.38467 215.759 6.39089 215.403 6.29787C215.046 6.20484 215.249 6.1228 215.854 6.11547C216.459 6.10814 216.751 6.18396 216.503 6.28431ZM242.162 6.66888C241.709 6.75605 240.966 6.75605 240.512 6.66888C240.059 6.58135 240.43 6.50993 241.337 6.50993C242.245 6.50993 242.616 6.58135 242.162 6.66888ZM14.7373 11.5379C14.7373 11.7393 14.6647 11.9041 14.5756 11.9041C14.4865 11.9041 14.312 11.7393 14.1873 11.5379C14.0626 11.3364 14.1356 11.1716 14.349 11.1716C14.5624 11.1716 14.7373 11.3364 14.7373 11.5379ZM4.76874 24.9732C5.03311 25.0791 5.34954 25.0659 5.47127 24.9443C5.59301 24.8227 5.37668 24.7363 4.99021 24.752C4.56304 24.7696 4.47614 24.8564 4.76874 24.9732ZM265.438 31.1706C265.316 31.2922 265 31.3054 264.735 31.1996C264.443 31.0827 264.53 30.9959 264.957 30.9783C265.343 30.9626 265.56 31.049 265.438 31.1706ZM7.77064 32.0482C7.77064 32.2496 7.59574 32.4144 7.38234 32.4144C7.16894 32.4144 7.09597 32.2496 7.22064 32.0482C7.34531 31.8467 7.51984 31.6819 7.60894 31.6819C7.69804 31.6819 7.77064 31.8467 7.77064 32.0482ZM116.869 37.5665C117.264 38.2042 116.814 38.3393 116.311 37.7339C116.022 37.386 115.994 37.1757 116.238 37.1757C116.452 37.1757 116.736 37.3515 116.869 37.5665ZM140.12 38.4683C140.338 38.3338 140.421 38.0705 140.305 37.883C140.184 37.687 141.026 37.542 142.285 37.542C143.551 37.542 144.533 37.7119 144.61 37.9441C144.684 38.1654 145.52 38.4338 146.467 38.5404C148.827 38.8063 148.289 39.3703 145.808 39.2308C144.316 39.1469 143.804 39.2444 143.804 39.6121C143.804 40.234 142.462 40.2644 142.213 39.648C142.106 39.3824 142.016 39.4685 142 39.8527C141.984 40.2171 141.835 40.4318 141.669 40.3292C141.503 40.227 141.093 40.4643 140.756 40.857C140.038 41.695 138.304 41.8272 138.304 41.0445C138.304 40.6438 137.986 40.5698 136.972 40.7339C135.926 40.9035 135.678 40.8394 135.819 40.4365C135.918 40.1538 136.234 39.9395 136.52 39.96C136.806 39.9805 137.266 39.756 137.541 39.4615C137.977 38.996 137.879 38.9587 136.798 39.177C136.114 39.315 135.279 39.5048 134.943 39.5985C134.607 39.6926 134.236 39.6132 134.118 39.4227C134 39.2319 134.737 38.9612 135.757 38.8213C136.777 38.681 137.808 38.3514 138.049 38.0885C138.408 37.6966 138.599 37.7097 139.106 38.1613C139.446 38.4646 139.903 38.6027 140.12 38.4683ZM191.837 38.05C191.837 38.3507 189.595 38.5019 189.416 38.2133C189.312 38.0456 189.815 37.9083 190.532 37.9083C191.25 37.9083 191.837 37.972 191.837 38.05ZM124.883 40.2552C124.568 41.0753 124.106 40.6654 124.217 39.6634C124.354 38.4174 124.363 38.4071 124.749 39.0671C124.945 39.4022 125.005 39.9369 124.883 40.2552ZM150.869 38.881C150.621 38.9814 150.126 38.9876 149.769 38.8946C149.412 38.8015 149.616 38.7195 150.221 38.7122C150.826 38.7049 151.117 38.7807 150.869 38.881ZM163.237 39.0257C160.886 39.4436 152.526 39.43 151.871 39.007C151.506 38.7715 153.605 38.6657 158.104 38.692C162.743 38.7199 164.366 38.825 163.237 39.0257ZM170.846 38.903C170.291 38.9869 169.384 38.9869 168.829 38.903C168.274 38.8191 168.728 38.7506 169.837 38.7506C170.946 38.7506 171.4 38.8191 170.846 38.903ZM174.329 38.8832C174.077 38.985 173.665 38.985 173.412 38.8832C173.16 38.7818 173.366 38.6986 173.871 38.6986C174.375 38.6986 174.581 38.7818 174.329 38.8832ZM177.996 38.8832C177.744 38.985 177.331 38.985 177.079 38.8832C176.827 38.7818 177.033 38.6986 177.537 38.6986C178.041 38.6986 178.248 38.7818 177.996 38.8832ZM115.571 39.1861C115.571 39.7194 114.204 40.8365 113.564 40.8262C112.849 40.8145 112.853 40.787 113.66 40.1153L114.498 39.4169L112.926 39.2758C111.546 39.1521 111.611 39.1272 113.462 39.0711C114.622 39.036 115.571 39.0876 115.571 39.1861ZM117.305 39.2282C117.183 39.3498 116.866 39.363 116.602 39.2572C116.309 39.1403 116.396 39.0535 116.824 39.0359C117.21 39.0202 117.426 39.1066 117.305 39.2282ZM139.771 39.3733C139.771 39.5747 139.946 39.7395 140.159 39.7395C140.372 39.7395 140.445 39.5747 140.321 39.3733C140.196 39.1718 140.021 39.007 139.932 39.007C139.843 39.007 139.771 39.1718 139.771 39.3733ZM254.438 39.2282C254.316 39.3498 254 39.363 253.735 39.2572C253.443 39.1403 253.53 39.0535 253.957 39.0359C254.343 39.0202 254.56 39.1066 254.438 39.2282ZM257.196 39.2495C256.944 39.3513 256.531 39.3513 256.279 39.2495C256.027 39.148 256.233 39.0649 256.737 39.0649C257.241 39.0649 257.448 39.148 257.196 39.2495ZM99.7046 39.5945C99.5829 39.7161 99.2664 39.7293 99.0021 39.6234C98.7095 39.5066 98.7964 39.4198 99.2235 39.4022C99.61 39.3865 99.8263 39.4729 99.7046 39.5945ZM109.987 39.8084C109.907 40.0476 109.623 40.316 109.355 40.405C109.081 40.4962 108.974 40.3977 109.109 40.1794C109.243 39.9618 108.984 39.7219 108.518 39.6326C107.926 39.519 108.039 39.4586 108.909 39.4231C109.707 39.3905 110.081 39.5245 109.987 39.8084ZM121.621 40.1058C121.487 40.5259 121.555 40.8383 121.779 40.8383C121.995 40.8383 122.171 40.9756 122.171 41.1434C122.171 41.6191 120.68 41.3917 120.355 40.8661C120.129 40.5024 119.886 40.4914 119.277 40.8174C118.843 41.0489 118.31 41.1284 118.092 40.9936C117.652 40.7218 120.127 39.4502 121.187 39.4029C121.691 39.3806 121.797 39.5516 121.621 40.1058ZM190.921 39.7395C191.045 39.941 190.972 40.1058 190.759 40.1058C190.546 40.1058 190.371 39.941 190.371 39.7395C190.371 39.5381 190.443 39.3733 190.532 39.3733C190.621 39.3733 190.796 39.5381 190.921 39.7395ZM194.404 39.5348C194.404 39.6238 194.239 39.7981 194.037 39.9227C193.836 40.0472 193.671 39.9743 193.671 39.7611C193.671 39.548 193.836 39.3733 194.037 39.3733C194.239 39.3733 194.404 39.4458 194.404 39.5348ZM248.036 39.6135C247.788 39.7139 247.293 39.7201 246.936 39.6271C246.579 39.5341 246.782 39.452 247.387 39.4447C247.992 39.4374 248.284 39.5132 248.036 39.6135ZM250.038 39.5945C249.916 39.7161 249.6 39.7293 249.335 39.6234C249.043 39.5066 249.13 39.4198 249.557 39.4022C249.943 39.3865 250.16 39.4729 250.038 39.5945ZM105.121 40.1058C105.245 40.3072 105.172 40.472 104.959 40.472C104.746 40.472 104.571 40.3072 104.571 40.1058C104.571 39.9043 104.643 39.7395 104.732 39.7395C104.821 39.7395 104.996 39.9043 105.121 40.1058ZM148.471 39.9608C148.35 40.0823 148.033 40.0955 147.769 39.9897C147.476 39.8728 147.563 39.786 147.99 39.7685C148.377 39.7527 148.593 39.8392 148.471 39.9608ZM150.305 39.9608C150.183 40.0823 149.866 40.0955 149.602 39.9897C149.309 39.8728 149.396 39.786 149.824 39.7685C150.21 39.7527 150.426 39.8392 150.305 39.9608ZM153.704 40.2889C153.704 40.5911 153.869 40.8383 154.071 40.8383C154.272 40.8383 154.437 40.6325 154.437 40.3805C154.436 40.0406 155.241 39.9534 157.558 40.0413C159.446 40.1131 160.594 40.2999 160.461 40.5142C160.341 40.7086 159.951 40.7757 159.595 40.6629C159.24 40.5501 158.47 40.7075 157.885 41.0123C156.943 41.5031 156.807 41.5038 156.702 41.0192C156.569 40.4076 154.973 40.2688 154.621 40.8383C154.375 41.2357 152.863 41.3412 152.507 40.9855C152.15 40.6292 152.64 39.7395 153.193 39.7395C153.474 39.7395 153.704 39.9868 153.704 40.2889ZM187.437 40.2889C187.051 40.7541 187.131 40.8383 187.964 40.8383C188.526 40.8383 188.85 40.9951 188.721 41.2046C188.596 41.406 188.146 41.5708 187.721 41.5708C187.296 41.5708 187.066 41.6887 187.21 41.8327C187.355 41.9766 188.808 42.0436 190.44 41.9821C193.092 41.8818 193.383 41.9352 193.173 42.4835C193.018 42.8871 193.094 43.0395 193.395 42.9292C193.648 42.8366 193.813 42.5758 193.762 42.3491C193.712 42.1224 194.093 41.9371 194.609 41.9371C195.141 41.9371 195.449 42.0956 195.321 42.3033C195.196 42.5048 195.269 42.6696 195.482 42.6696C195.696 42.6696 195.871 42.5048 195.871 42.3033C195.871 41.6939 197.242 41.8931 197.49 42.5388C197.617 42.8699 197.666 43.1959 197.599 43.2633C197.531 43.3303 195.85 43.4303 193.863 43.4852C191.225 43.5581 190.208 43.4618 190.096 43.1274C190.012 42.8758 189.617 42.6696 189.219 42.6696C188.82 42.6696 188.596 42.8344 188.721 43.0358C188.853 43.2494 188.48 43.4021 187.826 43.4021C187.209 43.4021 186.704 43.2373 186.704 43.0358C186.704 42.8344 186.093 42.6696 185.347 42.6696C183.864 42.6696 184.054 42.0839 185.604 41.8766C186.293 41.7843 186.549 41.5041 186.636 40.7467C186.708 40.1292 186.973 39.7395 187.323 39.7395C187.789 39.7395 187.81 39.8406 187.437 40.2889ZM223.921 40.5841C224.324 40.6892 223.87 40.7585 222.912 40.7383C221.955 40.7182 221.171 40.5563 221.171 40.379C221.171 40.2014 221.521 40.1677 221.95 40.3036C222.546 40.4922 222.659 40.4336 222.429 40.0534C222.194 39.6626 222.243 39.6458 222.659 39.9747C222.949 40.205 223.517 40.479 223.921 40.5841ZM178.087 40.472C177.963 40.6735 177.706 40.8383 177.516 40.8383C177.326 40.8383 177.171 40.6735 177.171 40.472C177.171 40.2706 177.428 40.1058 177.742 40.1058C178.057 40.1058 178.212 40.2706 178.087 40.472ZM139.037 40.8383C139.748 41.2972 140.137 41.2972 140.137 40.8383C140.137 40.6369 139.766 40.4746 139.312 40.4775C138.645 40.4823 138.593 40.5512 139.037 40.8383ZM173.504 40.9973C173.504 41.2947 173.941 41.5781 174.512 41.651C175.321 41.7543 175.221 41.8144 174.008 41.9554C172.629 42.1154 172.496 42.0576 172.496 41.3016C172.496 40.842 172.72 40.472 173 40.472C173.277 40.472 173.504 40.7083 173.504 40.9973ZM184.871 40.7837C184.871 40.9676 184.207 41.1273 183.397 41.1386C182.586 41.1496 181.997 41.0386 182.087 40.8921C182.334 40.4944 184.871 40.3955 184.871 40.7837ZM70.654 41.2046C70.7786 41.406 70.6232 41.5708 70.3089 41.5708C69.9947 41.5708 69.7373 41.406 69.7373 41.2046C69.7373 41.0031 69.8924 40.8383 70.0823 40.8383C70.2723 40.8383 70.5293 41.0031 70.654 41.2046ZM143.437 41.2262C143.437 41.4393 143.254 41.5009 143.03 41.3624C142.806 41.224 142.478 41.3379 142.302 41.6155C142.049 42.0147 141.981 41.9861 141.976 41.4792C141.973 41.0808 142.248 40.8383 142.704 40.8383C143.107 40.8383 143.437 41.013 143.437 41.2262ZM148.571 41.113C148.571 41.2639 148.174 41.3877 147.689 41.3877C147.204 41.3877 146.884 41.2639 146.977 41.113C147.071 40.9621 147.467 40.8383 147.859 40.8383C148.251 40.8383 148.571 40.9621 148.571 41.113ZM218.421 41.2046C218.296 41.406 217.832 41.5591 217.391 41.5452C216.616 41.5203 216.614 41.5082 217.321 41.2046C218.33 40.7713 218.689 40.7713 218.421 41.2046ZM245.371 41.2046C245.371 41.406 245.742 41.5734 246.196 41.5763C246.649 41.5796 247.268 41.7418 247.571 41.9371C247.976 42.1989 247.688 42.3125 246.471 42.3692C245.563 42.4117 244.243 42.5117 243.537 42.5912C242.831 42.671 236.561 42.7846 229.604 42.8435C222.646 42.9025 217.944 42.8278 219.154 42.6773C220.364 42.5271 222.179 42.3015 223.187 42.1762C227.061 41.6953 231.76 41.5701 231.99 41.9411C232.117 42.1469 232.391 42.2107 232.597 42.0828C232.805 41.9554 233.359 42.0568 233.831 42.3088C234.302 42.5608 234.988 42.6472 235.354 42.5007C235.721 42.3542 237.206 42.2055 238.655 42.1704C240.105 42.1352 241.398 41.9986 241.53 41.8667C241.661 41.7353 242.332 41.7188 243.02 41.8301C244.015 41.9913 244.271 41.9107 244.271 41.4357C244.271 41.1071 244.518 40.8383 244.821 40.8383C245.123 40.8383 245.371 41.0031 245.371 41.2046ZM256.157 41.2961C256.328 41.6624 256.414 41.6624 256.584 41.2961C256.815 40.8039 259.876 40.6471 260.164 41.113C260.257 41.2639 259.607 41.3298 258.719 41.2591C257.71 41.1789 257.104 41.2822 257.104 41.5338C257.104 42.1447 255.38 42.0165 255.138 41.3877C254.881 40.7196 255.847 40.6328 256.157 41.2961ZM171.121 41.5708C170.996 41.7722 170.45 41.9253 169.907 41.9114C169.026 41.8883 168.999 41.8517 169.654 41.5708C170.673 41.1335 171.391 41.1335 171.121 41.5708ZM205.587 41.5708C205.463 41.7722 205.701 41.9371 206.116 41.9371C206.531 41.9371 206.871 41.7722 206.871 41.5708C206.871 41.1383 207.581 41.236 208.185 41.7517C208.739 42.2246 206.856 43.0593 205.836 42.793C205.442 42.6901 205.009 42.7849 204.874 43.004C204.738 43.223 204.38 43.4021 204.077 43.4021C203.775 43.4021 203.637 43.2244 203.772 43.0076C203.941 42.7344 203.497 42.6908 202.327 42.8659C201.302 43.0193 200.637 42.9787 200.637 42.7622C200.637 42.5663 201.583 42.3081 202.74 42.189C203.896 42.07 204.9 41.7997 204.97 41.5884C205.041 41.3774 205.259 41.2046 205.456 41.2046C205.653 41.2046 205.712 41.3694 205.587 41.5708ZM216.071 41.5422C215.787 41.7221 215.069 41.8078 214.475 41.7327C213.644 41.6276 213.352 41.7616 213.207 42.3161C213.103 42.7121 212.878 43.0358 212.706 43.0358C212.31 43.0358 212.737 41.8433 213.261 41.4847C213.477 41.3368 214.314 41.2159 215.121 41.2159C216.121 41.2159 216.423 41.3196 216.071 41.5422ZM86.9706 41.8942C86.9706 42.3304 85.5531 42.6787 85.3188 42.3004C85.2165 42.1348 85.3401 41.9162 85.5934 41.814C86.3444 41.5115 86.9706 41.5481 86.9706 41.8942ZM91.7373 41.9371C91.7373 42.1385 91.5822 42.3033 91.3923 42.3033C91.2023 42.3033 90.9453 42.1385 90.8206 41.9371C90.696 41.7356 90.8514 41.5708 91.1657 41.5708C91.4799 41.5708 91.7373 41.7356 91.7373 41.9371ZM98.3373 41.8971C98.3373 42.4509 95.6599 42.5688 94.6805 42.0583C93.8225 41.6111 93.9237 41.5752 96.0456 41.573C97.3062 41.5719 98.3373 41.7177 98.3373 41.8971ZM99.4648 42.0378C99.4193 42.4758 98.9166 42.3909 98.759 41.9187C98.6783 41.677 98.8103 41.5452 99.0523 41.6257C99.2943 41.7063 99.4798 41.8916 99.4648 42.0378ZM102.712 43.1915C102.726 43.3779 102.432 43.2131 102.058 42.8252C101.597 42.3473 101.508 42.0359 101.783 41.8591C102.15 41.6217 102.646 42.3341 102.712 43.1915ZM105.824 41.7931C106.57 42.0792 106.576 42.6696 105.832 42.6696C105.518 42.6696 105.356 42.8245 105.474 43.0135C105.591 43.2028 105.354 43.3329 104.947 43.3021C104.187 43.245 104.068 42.3542 104.754 41.851C105.203 41.5214 105.126 41.5254 105.824 41.7931ZM249.771 41.9371C249.771 42.1385 249.482 42.3008 249.129 42.2978C248.58 42.2931 248.567 42.2403 249.037 41.9371C249.729 41.4902 249.771 41.4902 249.771 41.9371ZM109.535 42.5073C108.597 42.8919 108.547 42.9772 109.168 43.1347C109.749 43.2823 109.711 43.3252 108.967 43.3596C108.436 43.3841 107.87 43.1179 107.627 42.7307C107.243 42.1154 107.351 42.0594 108.914 42.0609C110.605 42.0623 110.61 42.0664 109.535 42.5073ZM114.575 42.9296C114.723 43.7017 114.636 43.8006 113.967 43.6211C113.538 43.5061 112.527 43.4046 111.721 43.3959C110.534 43.383 110.378 43.3076 110.903 43.0021C111.26 42.7945 111.461 42.4758 111.348 42.2938C111.236 42.1121 111.877 41.9781 112.773 41.996C114.201 42.0246 114.424 42.14 114.575 42.9296ZM125.349 42.8758C125.73 43.3959 125.938 43.4479 126.279 43.1076C126.889 42.4978 127.671 42.5601 127.671 43.219C127.671 43.6471 127.205 43.7621 125.562 43.7394C124.403 43.7237 123.66 43.6273 123.912 43.5259C124.99 43.0911 124.223 42.6696 122.354 42.6696C120.173 42.6696 119.586 43.2625 121.529 43.5035C122.27 43.5951 121.932 43.6731 120.634 43.7097C119.463 43.7427 118.439 43.5936 118.301 43.3702C118.123 43.0834 117.943 43.0834 117.656 43.3702C117.437 43.5892 117.01 43.7683 116.707 43.7683C116.301 43.7683 116.265 43.661 116.569 43.3574C116.795 43.1314 116.889 42.7088 116.777 42.418C116.605 41.9711 117.214 41.914 120.716 42.0477C124.192 42.1803 124.938 42.3132 125.349 42.8758ZM133.535 42.7611C133.538 43.1702 131.05 43.0937 130.792 42.6765C130.658 42.4601 131.157 42.3509 132.052 42.4018C132.867 42.4484 133.534 42.6102 133.535 42.7611ZM146.737 42.648C146.737 42.8377 146.573 43.0941 146.372 43.2182C145.732 43.613 135.827 43.4317 135.004 43.0102C134.585 42.7959 139.127 42.4187 142.796 42.363C145.057 42.329 146.737 42.4502 146.737 42.648ZM162.817 42.8604C163.204 43.2464 162.51 43.3772 159.09 43.5629C155.583 43.7537 151.871 43.2871 151.871 42.6557C151.871 42.3337 162.489 42.5326 162.817 42.8604ZM175.887 43.0226C173.522 43.2336 171.744 43.0783 172.332 42.7121C172.532 42.5879 173.908 42.563 175.391 42.6564L178.087 42.8263L175.887 43.0226ZM182.304 42.6696C182.304 42.871 182.231 43.0358 182.142 43.0358C182.053 43.0358 181.879 42.871 181.754 42.6696C181.629 42.4681 181.702 42.3033 181.916 42.3033C182.129 42.3033 182.304 42.4681 182.304 42.6696ZM190.554 42.6696C190.429 42.871 190.585 43.0358 190.899 43.0358C191.213 43.0358 191.471 42.871 191.471 42.6696C191.471 42.4681 191.316 42.3033 191.126 42.3033C190.936 42.3033 190.679 42.4681 190.554 42.6696ZM266.569 42.5535C266.833 42.6593 267.15 42.6461 267.271 42.5245C267.393 42.4029 267.177 42.3165 266.79 42.3322C266.363 42.3498 266.276 42.4366 266.569 42.5535ZM180.675 43.0014C180.562 43.1838 180.14 43.2472 179.737 43.1417C178.728 42.8783 178.819 42.6696 179.942 42.6696C180.458 42.6696 180.788 42.819 180.675 43.0014ZM199.629 42.912C199.377 43.0139 198.965 43.0139 198.712 42.912C198.46 42.8106 198.666 42.7274 199.171 42.7274C199.675 42.7274 199.881 42.8106 199.629 42.912ZM216.496 42.912C216.244 43.0139 215.831 43.0139 215.579 42.912C215.327 42.8106 215.533 42.7274 216.037 42.7274C216.541 42.7274 216.748 42.8106 216.496 42.912ZM263.887 44.5008C264.012 44.7023 264.186 44.8671 264.276 44.8671C264.365 44.8671 264.437 44.7023 264.437 44.5008C264.437 44.2994 264.262 44.1346 264.049 44.1346C263.836 44.1346 263.763 44.2994 263.887 44.5008ZM273.535 44.3847C273.8 44.4906 274.116 44.4774 274.238 44.3558C274.36 44.2342 274.143 44.1478 273.757 44.1635C273.33 44.1811 273.243 44.2679 273.535 44.3847ZM123.637 48.9875C123.637 49.1384 120.296 49.2314 116.212 49.194C111.072 49.1468 109.746 49.0622 111.904 48.9193C116.381 48.6227 123.636 48.6648 123.637 48.9875ZM127.304 49.1219C127.304 49.1988 126.52 49.2428 125.562 49.2189C124.064 49.1816 123.975 49.1406 124.921 48.9259C125.948 48.6926 127.304 48.8043 127.304 49.1219ZM108.329 49.1384C108.077 49.2402 107.665 49.2402 107.412 49.1384C107.16 49.0369 107.366 48.9538 107.871 48.9538C108.375 48.9538 108.581 49.0369 108.329 49.1384ZM75.1445 49.9192C75.3986 50.0862 73.8942 50.2324 71.7573 50.2481C69.6427 50.2639 67.9791 50.1694 68.0605 50.0379C68.2827 49.679 74.6173 49.5731 75.1445 49.9192ZM242.735 50.2448C243 50.3507 243.316 50.3375 243.438 50.2159C243.56 50.0943 243.343 50.0079 242.957 50.0236C242.53 50.0412 242.443 50.128 242.735 50.2448ZM215.938 50.5821C215.816 50.7037 215.5 50.7169 215.235 50.6111C214.943 50.4942 215.03 50.4074 215.457 50.3899C215.843 50.3741 216.06 50.4605 215.938 50.5821ZM88.5088 51.3667C90.6655 51.4311 94.2955 51.4315 96.5755 51.367C98.8554 51.3026 97.0906 51.2498 92.654 51.2495C88.2173 51.2491 86.3521 51.3018 88.5088 51.3667ZM121.371 51.5395C121.566 51.7348 122.032 51.83 122.407 51.7505C122.911 51.6439 122.819 51.5516 122.051 51.3956C121.382 51.259 121.141 51.3103 121.371 51.5395ZM235.035 51.3436C235.3 51.4494 235.616 51.4363 235.738 51.3147C235.86 51.1931 235.643 51.1066 235.257 51.1224C234.83 51.1399 234.743 51.2268 235.035 51.3436ZM124.283 51.7186C124.739 51.8062 125.399 51.8029 125.75 51.7113C126.101 51.6197 125.727 51.548 124.921 51.552C124.114 51.556 123.827 51.6311 124.283 51.7186ZM129.417 51.7186C129.873 51.8062 130.533 51.8029 130.883 51.7113C131.234 51.6197 130.861 51.548 130.054 51.552C129.247 51.556 128.961 51.6311 129.417 51.7186ZM140.786 51.7252C141.444 51.8065 142.434 51.8051 142.986 51.7216C143.537 51.6377 142.997 51.571 141.787 51.5732C140.577 51.5751 140.127 51.6436 140.786 51.7252ZM146.101 51.7227C146.658 51.8065 147.483 51.8043 147.934 51.7175C148.385 51.6307 147.929 51.5619 146.921 51.5644C145.912 51.5674 145.543 51.6384 146.101 51.7227ZM194.129 51.712C194.482 51.8043 195.06 51.8043 195.412 51.712C195.765 51.6201 195.476 51.5447 194.771 51.5447C194.065 51.5447 193.776 51.6201 194.129 51.712ZM200.179 51.7022C200.431 51.804 200.844 51.804 201.096 51.7022C201.348 51.6007 201.141 51.5176 200.637 51.5176C200.133 51.5176 199.927 51.6007 200.179 51.7022Z" fill="#5DA399"/>
</svg>
