<svg width="24" height="23" viewBox="0 0 24 23" fill="none" xmlns="http://www.w3.org/2000/svg">
<path d="M0.878407 22.5186C0.315963 22.2102 0 21.792 0 21.356C0 20.92 0.315963 20.5018 0.878407 20.1935L16.7583 11.4901L0.878407 2.78666C0.331903 2.47653 0.0295042 2.06117 0.0363398 1.63004C0.0431754 1.1989 0.358698 0.786484 0.914953 0.481612C1.47121 0.176741 2.22369 0.00380862 3.01032 6.21596e-05C3.79695 -0.0036843 4.5548 0.162055 5.12063 0.461582L23.1216 10.3275C23.684 10.6359 24 11.0541 24 11.4901C24 11.9261 23.684 12.3443 23.1216 12.6526L5.12063 22.5186C4.55802 22.8268 3.79505 23 2.99952 23C2.20398 23 1.44102 22.8268 0.878407 22.5186Z" fill="white"/>
</svg>
